<?xml version="1.0" encoding="us-ascii" standalone="no"?><svg xmlns="http://www.w3.org/2000/svg" xmlns:xlink="http://www.w3.org/1999/xlink" contentStyleType="text/css" height="601px" preserveAspectRatio="none" style="width:573px;height:601px;background:#FFFFFF;" version="1.1" viewBox="0 0 573 601" width="573px" zoomAndPan="magnify"><defs/><g><rect fill="#F1F1F1" height="40" rx="12.5" ry="12.5" style="stroke:#181818;stroke-width:0.5;" width="61" x="222.4" y="87"/><text fill="#000000" font-family="sans-serif" font-size="14" lengthAdjust="spacing" textLength="51" x="227.4" y="112.291">Waiting</text><rect fill="#F1F1F1" height="40" rx="12.5" ry="12.5" style="stroke:#181818;stroke-width:0.5;" width="50" x="288.9" y="321"/><text fill="#000000" font-family="sans-serif" font-size="14" lengthAdjust="spacing" textLength="38" x="294.9" y="346.291">Value</text><rect fill="#F1F1F1" height="40" rx="12.5" ry="12.5" style="stroke:#181818;stroke-width:0.5;" width="114" x="232.9" y="438"/><text fill="#000000" font-family="sans-serif" font-size="14" lengthAdjust="spacing" textLength="104" x="237.9" y="463.291">ValueBackslash</text><rect fill="#F1F1F1" height="40" rx="12.5" ry="12.5" style="stroke:#181818;stroke-width:0.5;" width="95" x="391.4" y="438"/><text fill="#000000" font-family="sans-serif" font-size="14" lengthAdjust="spacing" textLength="85" x="396.4" y="463.291">ValueOption</text><rect fill="#F1F1F1" height="40" rx="12.5" ry="12.5" style="stroke:#181818;stroke-width:0.5;" width="161" x="357.4" y="555"/><text fill="#000000" font-family="sans-serif" font-size="14" lengthAdjust="spacing" textLength="151" x="362.4" y="580.291">ValueOptionBackslash</text><rect fill="#F1F1F1" height="40" rx="12.5" ry="12.5" style="stroke:#181818;stroke-width:0.5;" width="52" x="125.9" y="204"/><text fill="#000000" font-family="sans-serif" font-size="14" lengthAdjust="spacing" textLength="42" x="130.9" y="229.291">Literal</text><rect fill="#F1F1F1" height="40" rx="12.5" ry="12.5" style="stroke:#181818;stroke-width:0.5;" width="118" x="29.9" y="321"/><text fill="#000000" font-family="sans-serif" font-size="14" lengthAdjust="spacing" textLength="108" x="34.9" y="346.291">LiteralBackslash</text><ellipse cx="252.9" cy="16" fill="#222222" rx="10" ry="10" style="stroke:#222222;stroke-width:1.0;"/><ellipse cx="88.9" cy="458" fill="none" rx="11" ry="11" style="stroke:#222222;stroke-width:1.0;"/><ellipse cx="88.9" cy="458" fill="#222222" rx="6" ry="6" style="stroke:#222222;stroke-width:1.0;"/><!--link *start* to W--><g id="link_*start*_W"><path d="M252.9,26.19 C252.9,40.4 252.9,62.02 252.9,80.74 " fill="none" id="*start*-to-W" style="stroke:#181818;stroke-width:1.0;"/><polygon fill="#181818" points="252.9,86.74,256.9,77.74,252.9,81.74,248.9,77.74,252.9,86.74" style="stroke:#181818;stroke-width:1.0;"/></g><!--link W to W--><g id="link_W_W"><path d="M283.9,98.05 C301.77,96.22 318.4,99.21 318.4,107 C318.4,114.79 307.7391,118.3779 289.8691,116.5579 " fill="none" id="W-to-W" style="stroke:#181818;stroke-width:1.0;"/><polygon fill="#181818" points="283.9,115.95,292.4484,120.8413,288.8743,116.4566,293.259,112.8825,283.9,115.95" style="stroke:#181818;stroke-width:1.0;"/><text fill="#000000" font-family="sans-serif" font-size="13" lengthAdjust="spacing" textLength="74" x="324.4" y="112.0684">white space</text></g><!--link V to V--><g id="link_V_V"><path d="M339.18,331.1 C356.67,328.1 373.9,331.4 373.9,341 C373.9,350.6 362.5836,354.9143 345.0936,351.9143 " fill="none" id="V-to-V" style="stroke:#181818;stroke-width:1.0;"/><polygon fill="#181818" points="339.18,350.9,347.3742,356.3639,344.108,351.7453,348.7267,348.4791,339.18,350.9" style="stroke:#181818;stroke-width:1.0;"/><text fill="#000000" font-family="sans-serif" font-size="13" lengthAdjust="spacing" textLength="33" x="379.9" y="346.0684">other</text></g><!--link VO to VO--><g id="link_VO_VO"><path d="M486.79,447.09 C505.65,446.54 521.4,450.17 521.4,458 C521.4,465.83 511.6475,469.6349 492.7875,469.0849 " fill="none" id="VO-to-VO" style="stroke:#181818;stroke-width:1.0;"/><polygon fill="#181818" points="486.79,468.91,495.6696,473.1706,491.7879,469.0557,495.9028,465.174,486.79,468.91" style="stroke:#181818;stroke-width:1.0;"/><text fill="#000000" font-family="sans-serif" font-size="13" lengthAdjust="spacing" textLength="33" x="527.4" y="463.0684">other</text></g><!--link L to L--><g id="link_L_L"><path d="M178.23,214 C195.8,211.18 212.9,214.52 212.9,224 C212.9,233.48 201.7242,237.7708 184.1542,234.9508 " fill="none" id="L-to-L" style="stroke:#181818;stroke-width:1.0;"/><polygon fill="#181818" points="178.23,234,186.4824,239.3757,183.1668,234.7924,187.7502,231.4768,178.23,234" style="stroke:#181818;stroke-width:1.0;"/><text fill="#000000" font-family="sans-serif" font-size="13" lengthAdjust="spacing" textLength="33" x="218.9" y="229.0684">other</text></g><!--link W to V--><g id="link_W_V"><path d="M260.13,127.41 C263.33,136.35 267.01,147.15 269.9,157 C287.17,215.95 301.5609,281.1394 308.6509,314.7294 " fill="none" id="W-to-V" style="stroke:#181818;stroke-width:1.0;"/><polygon fill="#181818" points="309.89,320.6,311.945,310.9679,308.8574,315.7078,304.1175,312.6201,309.89,320.6" style="stroke:#181818;stroke-width:1.0;"/><text fill="#000000" font-family="sans-serif" font-size="13" lengthAdjust="spacing" textLength="10" x="293.9" y="229.0684">'{'</text></g><!--link V to W--><g id="link_V_W"><path d="M320.75,320.72 C323.57,311.8 326.5,300.99 327.9,291 C336.35,230.65 329.26,209.83 298.9,157 C292.62,146.07 287.7152,139.87 279.2152,131.46 " fill="none" id="V-to-W" style="stroke:#181818;stroke-width:1.0;"/><polygon fill="#181818" points="274.95,127.24,278.5344,136.4134,278.5043,130.7567,284.1611,130.7266,274.95,127.24" style="stroke:#181818;stroke-width:1.0;"/><text fill="#000000" font-family="sans-serif" font-size="13" lengthAdjust="spacing" textLength="10" x="332.9" y="229.0684">'}'</text></g><!--link V to VB--><g id="link_V_VB"><path d="M294.77,361.25 C287.71,369.66 280.56,380.08 276.9,391 C271.78,406.28 273.875,418.6439 278.815,431.9739 " fill="none" id="V-to-VB" style="stroke:#181818;stroke-width:1.0;"/><polygon fill="#181818" points="280.9,437.6,281.5232,427.7709,279.1625,432.9116,274.0218,430.5509,280.9,437.6" style="stroke:#181818;stroke-width:1.0;"/><text fill="#000000" font-family="sans-serif" font-size="13" lengthAdjust="spacing" textLength="13" x="277.9" y="404.5684">'\'</text></g><!--link VB to V--><g id="link_VB_V"><path d="M293.93,437.69 C298.37,416.44 304.2244,388.3535 308.6544,367.1235 " fill="none" id="VB-to-V" style="stroke:#181818;stroke-width:1.0;"/><polygon fill="#181818" points="309.88,361.25,304.1259,369.2432,308.8587,366.1446,311.9573,370.8773,309.88,361.25" style="stroke:#181818;stroke-width:1.0;"/><text fill="#000000" font-family="sans-serif" font-size="13" lengthAdjust="spacing" textLength="22" x="304.9" y="404.5684">any</text></g><!--link V to VO--><g id="link_V_VO"><path d="M334.82,361.25 C357.9,382.48 390.3942,412.3779 413.4942,433.6279 " fill="none" id="V-to-VO" style="stroke:#181818;stroke-width:1.0;"/><polygon fill="#181818" points="417.91,437.69,413.9944,428.653,414.2302,434.3049,408.5782,434.5407,417.91,437.69" style="stroke:#181818;stroke-width:1.0;"/><text fill="#000000" font-family="sans-serif" font-size="13" lengthAdjust="spacing" textLength="10" x="383.9" y="404.5684">':'</text></g><!--link VO to VOB--><g id="link_VO_VOB"><path d="M423.16,478.26 C417.14,486.82 410.98,497.36 407.9,508 C403.17,524.32 408.2815,536.8984 417.4715,549.7584 " fill="none" id="VO-to-VOB" style="stroke:#181818;stroke-width:1.0;"/><polygon fill="#181818" points="420.96,554.64,418.9817,544.9919,418.0529,550.572,412.4728,549.6432,420.96,554.64" style="stroke:#181818;stroke-width:1.0;"/><text fill="#000000" font-family="sans-serif" font-size="13" lengthAdjust="spacing" textLength="13" x="408.9" y="521.5684">'\'</text></g><!--link VOB to VO--><g id="link_VOB_VO"><path d="M438.07,554.69 C438.25,533.44 438.4991,505.4798 438.6791,484.2498 " fill="none" id="VOB-to-VO" style="stroke:#181818;stroke-width:1.0;"/><polygon fill="#181818" points="438.73,478.25,434.6538,487.2158,438.6876,483.2498,442.6536,487.2836,438.73,478.25" style="stroke:#181818;stroke-width:1.0;"/><text fill="#000000" font-family="sans-serif" font-size="13" lengthAdjust="spacing" textLength="22" x="438.9" y="521.5684">any</text></g><!--link VO to W--><g id="link_VO_W"><path d="M438.18,437.59 C436.7,410.75 432.25,361.08 418.9,321 C392.69,242.32 386.47,217.64 329.9,157 C316.82,142.98 304.1475,134.1792 288.8875,125.7192 " fill="none" id="VO-to-W" style="stroke:#181818;stroke-width:1.0;"/><polygon fill="#181818" points="283.64,122.81,289.5718,130.6721,288.0129,125.2343,293.4508,123.6754,283.64,122.81" style="stroke:#181818;stroke-width:1.0;"/><text fill="#000000" font-family="sans-serif" font-size="13" lengthAdjust="spacing" textLength="10" x="408.9" y="287.5684">'}'</text></g><!--link W to LB--><g id="link_W_LB"><path d="M221.96,112.52 C192.21,118.29 147.52,130.84 117.9,157 C71,198.42 77.6388,276.6124 84.0088,314.6424 " fill="none" id="W-to-LB" style="stroke:#181818;stroke-width:1.0;"/><polygon fill="#181818" points="85,320.56,87.4583,311.0229,84.174,315.6287,79.5682,312.3444,85,320.56" style="stroke:#181818;stroke-width:1.0;"/><text fill="#000000" font-family="sans-serif" font-size="13" lengthAdjust="spacing" textLength="13" x="89.9" y="229.0684">'\'</text></g><!--link LB to L--><g id="link_LB_L"><path d="M94.17,320.51 C98.25,306.97 104.62,288.79 112.9,274 C118.74,263.57 122.9027,257.6374 130.1527,249.0374 " fill="none" id="LB-to-L" style="stroke:#181818;stroke-width:1.0;"/><polygon fill="#181818" points="134.02,244.45,125.1608,248.7529,130.7973,248.2728,131.2773,253.9093,134.02,244.45" style="stroke:#181818;stroke-width:1.0;"/><text fill="#000000" font-family="sans-serif" font-size="13" lengthAdjust="spacing" textLength="22" x="113.9" y="287.5684">any</text></g><!--link L to LB--><g id="link_L_LB"><path d="M151.9,244.24 C151.16,257.99 148.61,276.55 140.9,291 C134.83,302.38 129.6502,308.6774 120.2402,316.8074 " fill="none" id="L-to-LB" style="stroke:#181818;stroke-width:1.0;"/><polygon fill="#181818" points="115.7,320.73,125.1253,317.8729,119.4835,317.4612,119.8952,311.8193,115.7,320.73" style="stroke:#181818;stroke-width:1.0;"/><text fill="#000000" font-family="sans-serif" font-size="13" lengthAdjust="spacing" textLength="13" x="148.9" y="287.5684">'\'</text></g><!--link W to L--><g id="link_W_L"><path d="M243.83,127.43 C236.82,141.28 226.24,159.86 213.9,174 C203.52,185.88 194.8049,193.4407 183.0049,202.0607 " fill="none" id="W-to-L" style="stroke:#181818;stroke-width:1.0;"/><polygon fill="#181818" points="178.16,205.6,187.7869,203.5211,182.1975,202.6506,183.0679,197.0611,178.16,205.6" style="stroke:#181818;stroke-width:1.0;"/><text fill="#000000" font-family="sans-serif" font-size="13" lengthAdjust="spacing" textLength="33" x="227.9" y="170.5684">other</text></g><!--link L to W--><g id="link_L_W"><path d="M136.78,203.54 C127.99,189.69 120.34,171.1 129.9,157 C150.41,126.75 186.9577,116.0685 216.2077,111.6385 " fill="none" id="L-to-W" style="stroke:#181818;stroke-width:1.0;"/><polygon fill="#181818" points="222.14,110.74,212.6425,108.1328,217.1964,111.4887,213.8405,116.0426,222.14,110.74" style="stroke:#181818;stroke-width:1.0;"/><text fill="#000000" font-family="sans-serif" font-size="13" lengthAdjust="spacing" textLength="74" x="130.9" y="170.5684">white space</text></g><!--link L to V--><g id="link_L_V"><path d="M178.34,238.59 C195.52,247.82 218.13,260.72 236.9,274 C257.17,288.34 274.0476,302.8451 289.0876,316.6351 " fill="none" id="L-to-V" style="stroke:#181818;stroke-width:1.0;"/><polygon fill="#181818" points="293.51,320.69,289.5796,311.6594,289.8246,317.3109,284.1731,317.556,293.51,320.69" style="stroke:#181818;stroke-width:1.0;"/><text fill="#000000" font-family="sans-serif" font-size="13" lengthAdjust="spacing" textLength="10" x="260.9" y="287.5684">'{'</text></g><!--link W to *end*--><g id="link_W_*end*"><path d="M222.08,110.55 C187.74,114.86 132.26,126.37 95.9,157 C33.26,209.76 31.1,241.39 11.9,321 C7.73,338.28 6,344.23 11.9,361 C25.86,400.71 59.3505,432.2734 76.1605,446.5034 " fill="none" id="W-to-*end*" style="stroke:#181818;stroke-width:1.0;"/><polygon fill="#181818" points="80.74,450.38,76.4552,441.5121,76.9238,447.1495,71.2863,447.618,80.74,450.38" style="stroke:#181818;stroke-width:1.0;"/><text fill="#000000" font-family="sans-serif" font-size="13" lengthAdjust="spacing" textLength="25" x="24.9" y="287.5684">EOT</text></g><!--link L to *end*--><g id="link_L_*end*"><path d="M161.19,244.07 C165.01,252.94 168.99,263.78 170.9,274 C175.19,296.93 176.41,334.2 165.9,361 C150.61,399.99 118.1041,431.586 101.5941,446.116 " fill="none" id="L-to-*end*" style="stroke:#181818;stroke-width:1.0;"/><polygon fill="#181818" points="97.09,450.08,106.4888,447.1368,100.8434,446.7767,101.2035,441.1313,97.09,450.08" style="stroke:#181818;stroke-width:1.0;"/><text fill="#000000" font-family="sans-serif" font-size="13" lengthAdjust="spacing" textLength="25" x="174.9" y="346.0684">EOT</text></g><!--link LB to *end*--><g id="link_LB_*end*"><path d="M88.9,361.25 C88.9,385.8 88.9,421.39 88.9,440.64 " fill="none" id="LB-to-*end*" style="stroke:#181818;stroke-width:1.0;"/><polygon fill="#181818" points="88.9,446.64,92.9,437.64,88.9,441.64,84.9,437.64,88.9,446.64" style="stroke:#181818;stroke-width:1.0;"/><text fill="#000000" font-family="sans-serif" font-size="13" lengthAdjust="spacing" textLength="25" x="89.9" y="404.5684">EOT</text></g><!--SRC=[RP2nQiCm48PtFSMHHL382tZe8EXsS4kGXpJ3uOXQr76CfH12oBlNPobARJAP__llErbg_T61Emtn1aSNcj4FqPzxfKBaw61Jiu- -_za01wWBjTnTtCpi0XbkVaF7eKsTMGeqhquLlMbMDhrqzD6DtCqSLt1fuIJjFmwmtNxA_zOWNwZWsaxJ40PkdB82xGJFiNMZiZHdAW0bOuco90lwhiNEE_L3gnojaVmzjQOCStyhjIpNbOnJ1aKWynf92YrFICVZKr2O1CppkAhhqfRRl7c3Z9-NofQyN0LVjClrlsnMu0y0]--></g></svg>