<svg xmlns="http://www.w3.org/2000/svg" xmlns:xlink="http://www.w3.org/1999/xlink" contentStyleType="text/css" height="801px" preserveAspectRatio="none" style="width:767px;height:801px;background:#FFFFFF;" version="1.1" viewBox="0 0 767 801" width="767px" zoomAndPan="magnify"><defs/><g><rect fill="#F1F1F1" height="40" rx="12.5" ry="12.5" style="stroke:#181818;stroke-width:0.5;" width="50" x="14.1" y="87"/><text fill="#000000" font-family="sans-serif" font-size="14" lengthAdjust="spacing" textLength="32.7783" x="22.7108" y="112.291">Type</text><rect fill="#F1F1F1" height="40" rx="12.5" ry="12.5" style="stroke:#181818;stroke-width:0.5;" width="64.2021" x="7" y="204"/><text fill="#000000" font-family="sans-serif" font-size="14" lengthAdjust="spacing" textLength="54.2021" x="12" y="229.291">Subtype</text><rect fill="#F1F1F1" height="40" rx="12.5" ry="12.5" style="stroke:#181818;stroke-width:0.5;" width="102.8184" x="283.69" y="321"/><text fill="#000000" font-family="sans-serif" font-size="14" lengthAdjust="spacing" textLength="92.8184" x="288.69" y="346.291">ParameterKey</text><rect fill="#F1F1F1" height="40" rx="12.5" ry="12.5" style="stroke:#181818;stroke-width:0.5;" width="147.457" x="351.37" y="438"/><text fill="#000000" font-family="sans-serif" font-size="14" lengthAdjust="spacing" textLength="137.457" x="356.37" y="463.291">ParameterValueStart</text><rect fill="#F1F1F1" height="40" rx="12.5" ry="12.5" style="stroke:#181818;stroke-width:0.5;" width="115.9844" x="66.11" y="555"/><text fill="#000000" font-family="sans-serif" font-size="14" lengthAdjust="spacing" textLength="105.9844" x="71.11" y="580.291">ParameterValue</text><rect fill="#F1F1F1" height="40" rx="12.5" ry="12.5" style="stroke:#181818;stroke-width:0.5;" width="165.9961" x="355.1" y="555"/><text fill="#000000" font-family="sans-serif" font-size="14" lengthAdjust="spacing" textLength="155.9961" x="360.1" y="580.291">ParameterQuotedValue</text><rect fill="#F1F1F1" height="40" rx="12.5" ry="12.5" style="stroke:#181818;stroke-width:0.5;" width="212.2344" x="423.98" y="672"/><text fill="#000000" font-family="sans-serif" font-size="14" lengthAdjust="spacing" textLength="202.2344" x="428.98" y="697.291">ParameterQuotedValueEscape</text><rect fill="#F1F1F1" height="40" rx="12.5" ry="12.5" style="stroke:#181818;stroke-width:0.5;" width="191.084" x="134.56" y="672"/><text fill="#000000" font-family="sans-serif" font-size="14" lengthAdjust="spacing" textLength="181.084" x="139.56" y="697.291">ParameterQuotedValueEnd</text><ellipse cx="39.1" cy="16" fill="#222222" rx="10" ry="10" style="stroke:#222222;stroke-width:1.0;"/><ellipse cx="230.1" cy="784" fill="none" rx="11" ry="11" style="stroke:#222222;stroke-width:1.0;"/><ellipse cx="230.1" cy="784" fill="#222222" rx="6" ry="6" style="stroke:#222222;stroke-width:1.0;"/><!--link *start* to Type--><g id="link_*start*_Type"><path d="M39.1,26.19 C39.1,40.4 39.1,62.02 39.1,80.74 " fill="none" id="*start*-to-Type" style="stroke:#181818;stroke-width:1.0;"/><polygon fill="#181818" points="39.1,86.74,43.1,77.74,39.1,81.74,35.1,77.74,39.1,86.74" style="stroke:#181818;stroke-width:1.0;"/></g><!--link Type to Subtype--><g id="link_Type_Subtype"><path d="M39.1,127.25 C39.1,148.48 39.1,176.44 39.1,197.69 " fill="none" id="Type-to-Subtype" style="stroke:#181818;stroke-width:1.0;"/><polygon fill="#181818" points="39.1,203.69,43.1,194.69,39.1,198.69,35.1,194.69,39.1,203.69" style="stroke:#181818;stroke-width:1.0;"/><text fill="#000000" font-family="sans-serif" font-size="13" lengthAdjust="spacing" textLength="12.7715" x="40.1" y="170.5684">'/'</text></g><!--link Type to Type--><g id="link_Type_Type"><path d="M64.38,98.46 C81.87,95.87 99.1,98.71 99.1,107 C99.1,115.28 87.8053,119.0089 70.3153,116.4189 " fill="none" id="Type-to-Type" style="stroke:#181818;stroke-width:1.0;"/><polygon fill="#181818" points="64.38,115.54,72.697,120.8152,69.3261,116.2724,73.8689,112.9015,64.38,115.54" style="stroke:#181818;stroke-width:1.0;"/><text fill="#000000" font-family="sans-serif" font-size="13" lengthAdjust="spacing" textLength="33.4775" x="105.1" y="112.0684">other</text></g><!--link Subtype to ParameterKey--><g id="link_Subtype_ParameterKey"><path d="M71.62,237.64 C123.21,257.68 218.5773,294.7271 279.4473,318.3771 " fill="none" id="Subtype-to-ParameterKey" style="stroke:#181818;stroke-width:1.0;"/><polygon fill="#181818" points="285.04,320.55,278.0996,313.5621,280.3794,318.7392,275.2023,321.019,285.04,320.55" style="stroke:#181818;stroke-width:1.0;"/><text fill="#000000" font-family="sans-serif" font-size="13" lengthAdjust="spacing" textLength="10.0674" x="205.1" y="287.5684">';'</text></g><!--link Subtype to Subtype--><g id="link_Subtype_Subtype"><path d="M71.55,213.56 C89.59,211.61 106.2,215.09 106.2,224 C106.2,232.91 95.5553,237.0348 77.5153,235.0848 " fill="none" id="Subtype-to-Subtype" style="stroke:#181818;stroke-width:1.0;"/><polygon fill="#181818" points="71.55,234.44,80.068,239.384,76.521,234.9773,80.9277,231.4304,71.55,234.44" style="stroke:#181818;stroke-width:1.0;"/><text fill="#000000" font-family="sans-serif" font-size="13" lengthAdjust="spacing" textLength="33.4775" x="112.2" y="229.0684">other</text></g><!--link ParameterKey to ParameterValueStart--><g id="link_ParameterKey_ParameterValueStart"><path d="M352.72,361.17 C360.69,370.06 370.09,380.88 378.1,391 C390.15,406.22 399.4754,419.2626 408.6354,432.6126 " fill="none" id="ParameterKey-to-ParameterValueStart" style="stroke:#181818;stroke-width:1.0;"/><polygon fill="#181818" points="412.03,437.56,410.2363,427.8758,409.2012,433.4372,403.6398,432.402,412.03,437.56" style="stroke:#181818;stroke-width:1.0;"/><text fill="#000000" font-family="sans-serif" font-size="13" lengthAdjust="spacing" textLength="16.2881" x="391.1" y="404.5684">'='</text></g><!--link ParameterValueStart to ParameterKey--><g id="link_ParameterValueStart_ParameterKey"><path d="M391.29,437.57 C379.8,429.62 367.71,419.56 359.1,408 C348.76,394.12 343.9611,381.1494 340.4511,367.1694 " fill="none" id="ParameterValueStart-to-ParameterKey" style="stroke:#181818;stroke-width:1.0;"/><polygon fill="#181818" points="338.99,361.35,337.302,371.0531,340.2076,366.1995,345.0612,369.105,338.99,361.35" style="stroke:#181818;stroke-width:1.0;"/><text fill="#000000" font-family="sans-serif" font-size="13" lengthAdjust="spacing" textLength="10.0674" x="360.1" y="404.5684">';'</text></g><!--link ParameterKey to ParameterKey--><g id="link_ParameterKey_ParameterKey"><path d="M386.98,330.05 C405.96,329.75 421.51,333.4 421.51,341 C421.51,348.6 411.9593,352.3448 392.9793,352.0448 " fill="none" id="ParameterKey-to-ParameterKey" style="stroke:#181818;stroke-width:1.0;"/><polygon fill="#181818" points="386.98,351.95,395.9157,356.0917,391.9794,352.029,396.0421,348.0927,386.98,351.95" style="stroke:#181818;stroke-width:1.0;"/><text fill="#000000" font-family="sans-serif" font-size="13" lengthAdjust="spacing" textLength="33.4775" x="427.51" y="346.0684">other</text></g><!--link ParameterValueStart to ParameterQuotedValue--><g id="link_ParameterValueStart_ParameterQuotedValue"><path d="M427.28,478.25 C429.68,499.48 432.8466,527.4779 435.2466,548.7279 " fill="none" id="ParameterValueStart-to-ParameterQuotedValue" style="stroke:#181818;stroke-width:1.0;"/><polygon fill="#181818" points="435.92,554.69,438.8847,545.2979,435.3589,549.7216,430.9352,546.1958,435.92,554.69" style="stroke:#181818;stroke-width:1.0;"/><text fill="#000000" font-family="sans-serif" font-size="13" lengthAdjust="spacing" textLength="10.8101" x="433.1" y="521.5684">'"'</text></g><!--link ParameterValueStart to ParameterValue--><g id="link_ParameterValueStart_ParameterValue"><path d="M351.35,469.85 C311.35,477.39 261.73,489.49 220.1,508 C193.12,520 170.3865,536.046 151.7965,550.826 " fill="none" id="ParameterValueStart-to-ParameterValue" style="stroke:#181818;stroke-width:1.0;"/><polygon fill="#181818" points="147.1,554.56,156.6341,552.09,151.0138,551.4483,151.6555,545.828,147.1,554.56" style="stroke:#181818;stroke-width:1.0;"/><text fill="#000000" font-family="sans-serif" font-size="13" lengthAdjust="spacing" textLength="33.4775" x="221.1" y="521.5684">other</text></g><!--link ParameterQuotedValue to ParameterQuotedValueEscape--><g id="link_ParameterQuotedValue_ParameterQuotedValueEscape"><path d="M453.5,595.25 C470.48,616.48 493.9018,645.7548 510.9018,667.0048 " fill="none" id="ParameterQuotedValue-to-ParameterQuotedValueEscape" style="stroke:#181818;stroke-width:1.0;"/><polygon fill="#181818" points="514.65,671.69,512.1512,662.1634,511.5265,667.7857,505.9043,667.161,514.65,671.69" style="stroke:#181818;stroke-width:1.0;"/><text fill="#000000" font-family="sans-serif" font-size="13" lengthAdjust="spacing" textLength="12.7715" x="490.1" y="638.5684">'\'</text></g><!--link ParameterQuotedValueEscape to ParameterQuotedValue--><g id="link_ParameterQuotedValueEscape_ParameterQuotedValue"><path d="M480.04,671.68 C467.02,664.3 454.36,654.55 446.1,642 C437.1,628.31 435.4193,615.4966 435.8893,601.4566 " fill="none" id="ParameterQuotedValueEscape-to-ParameterQuotedValue" style="stroke:#181818;stroke-width:1.0;"/><polygon fill="#181818" points="436.09,595.46,431.7911,604.3211,435.9227,600.4572,439.7866,604.5888,436.09,595.46" style="stroke:#181818;stroke-width:1.0;"/><text fill="#000000" font-family="sans-serif" font-size="13" lengthAdjust="spacing" textLength="22.0391" x="447.1" y="638.5684">any</text></g><!--link ParameterQuotedValue to ParameterQuotedValueEnd--><g id="link_ParameterQuotedValue_ParameterQuotedValueEnd"><path d="M405.39,595.45 C382.72,608.8 351.76,626.8 324.1,642 C305.88,652.02 290.7626,659.9898 273.6026,668.8398 " fill="none" id="ParameterQuotedValue-to-ParameterQuotedValueEnd" style="stroke:#181818;stroke-width:1.0;"/><polygon fill="#181818" points="268.27,671.59,278.1023,671.0198,272.7138,669.2982,274.4354,663.9097,268.27,671.59" style="stroke:#181818;stroke-width:1.0;"/><text fill="#000000" font-family="sans-serif" font-size="13" lengthAdjust="spacing" textLength="10.8101" x="353.1" y="638.5684">'"'</text></g><!--link ParameterQuotedValue to ParameterQuotedValue--><g id="link_ParameterQuotedValue_ParameterQuotedValue"><path d="M521.35,564.22 C541.31,565.07 556.1,568.66 556.1,575 C556.1,581.34 547.3046,584.6747 527.3446,585.5247 " fill="none" id="ParameterQuotedValue-to-ParameterQuotedValue" style="stroke:#181818;stroke-width:1.0;"/><polygon fill="#181818" points="521.35,585.78,530.512,589.3935,526.3455,585.5673,530.1717,581.4007,521.35,585.78" style="stroke:#181818;stroke-width:1.0;"/><text fill="#000000" font-family="sans-serif" font-size="13" lengthAdjust="spacing" textLength="33.4775" x="562.1" y="580.0684">other</text></g><!--link ParameterQuotedValueEnd to ParameterKey--><g id="link_ParameterQuotedValueEnd_ParameterKey"><path d="M236.83,671.59 C243.47,652.25 253.81,621.67 262.1,595 C289.03,508.34 316.4994,409.7453 328.1894,367.2253 " fill="none" id="ParameterQuotedValueEnd-to-ParameterKey" style="stroke:#181818;stroke-width:1.0;"/><polygon fill="#181818" points="329.78,361.44,323.5373,369.0576,328.4545,366.2611,331.2511,371.1784,329.78,361.44" style="stroke:#181818;stroke-width:1.0;"/><text fill="#000000" font-family="sans-serif" font-size="13" lengthAdjust="spacing" textLength="10.0674" x="288.1" y="521.5684">';'</text></g><!--link ParameterQuotedValueEnd to ParameterQuotedValueEnd--><g id="link_ParameterQuotedValueEnd_ParameterQuotedValueEnd"><path d="M326.02,682.85 C346.14,683.8 360.64,686.85 360.64,692 C360.64,697.15 352.1333,699.917 332.0133,700.867 " fill="none" id="ParameterQuotedValueEnd-to-ParameterQuotedValueEnd" style="stroke:#181818;stroke-width:1.0;"/><polygon fill="#181818" points="326.02,701.15,335.1986,704.7211,331.0144,700.9142,334.8213,696.73,326.02,701.15" style="stroke:#181818;stroke-width:1.0;"/><text fill="#000000" font-family="sans-serif" font-size="13" lengthAdjust="spacing" textLength="33.4775" x="366.64" y="697.0684">other</text></g><!--link ParameterValue to ParameterKey--><g id="link_ParameterValue_ParameterKey"><path d="M137.49,554.62 C162,519.84 216.69,445.37 272.1,391 C282.88,380.42 291.0939,373.5619 302.4939,365.0419 " fill="none" id="ParameterValue-to-ParameterKey" style="stroke:#181818;stroke-width:1.0;"/><polygon fill="#181818" points="307.3,361.45,297.6963,363.6338,303.2949,364.4433,302.4855,370.0419,307.3,361.45" style="stroke:#181818;stroke-width:1.0;"/><text fill="#000000" font-family="sans-serif" font-size="13" lengthAdjust="spacing" textLength="11.9463" x="228.1" y="463.0684">';"</text></g><!--link ParameterValue to ParameterValue--><g id="link_ParameterValue_ParameterValue"><path d="M182.22,564.03 C201.59,564.03 217.09,567.69 217.09,575 C217.09,582.31 207.59,585.97 188.22,585.97 " fill="none" id="ParameterValue-to-ParameterValue" style="stroke:#181818;stroke-width:1.0;"/><polygon fill="#181818" points="182.22,585.97,191.22,589.97,187.22,585.97,191.22,581.97,182.22,585.97" style="stroke:#181818;stroke-width:1.0;"/><text fill="#000000" font-family="sans-serif" font-size="13" lengthAdjust="spacing" textLength="33.4775" x="223.09" y="580.0684">other</text></g><!--link Subtype to *end*--><g id="link_Subtype_*end*"><path d="M31.18,244.16 C22.59,266.69 10.1,305.41 10.1,340 C10.1,340 10.1,340 10.1,693 C10.1,784.2 168.0633,785.208 212.8933,783.728 " fill="none" id="Subtype-to-*end*" style="stroke:#181818;stroke-width:1.0;"/><polygon fill="#181818" points="218.89,783.53,209.7629,779.8291,213.8927,783.695,210.0269,787.8248,218.89,783.53" style="stroke:#181818;stroke-width:1.0;"/></g><!--link ParameterKey to *end*--><g id="link_ParameterKey_*end*"><path d="M386.79,345.1 C500.05,353.3 760.1,380.47 760.1,457 C760.1,457 760.1,457 760.1,693 C760.1,756.57 688.01,728.58 626.1,743 C476.7,777.81 294.6195,782.2565 247.2995,782.8365 " fill="none" id="ParameterKey-to-*end*" style="stroke:#181818;stroke-width:1.0;"/><polygon fill="#181818" points="241.3,782.91,250.3483,786.7994,246.2996,782.8487,250.2503,778.8,241.3,782.91" style="stroke:#181818;stroke-width:1.0;"/></g><!--link ParameterValue to *end*--><g id="link_ParameterValue_*end*"><path d="M117.03,595.46 C108.21,623.23 96.63,674.96 117.1,712 C139.52,752.56 190.1308,771.3635 213.7108,778.4035 " fill="none" id="ParameterValue-to-*end*" style="stroke:#181818;stroke-width:1.0;"/><polygon fill="#181818" points="219.46,780.12,211.9805,773.7125,214.669,778.6896,209.6918,781.3781,219.46,780.12" style="stroke:#181818;stroke-width:1.0;"/></g><!--link ParameterValueStart to *end*--><g id="link_ParameterValueStart_*end*"><path d="M480.75,478.44 C518.77,494.11 568.06,519.42 601.1,555 C651.21,608.97 701.68,655.79 654.1,712 C598.89,777.23 309.1799,782.5311 247.4099,782.9311 " fill="none" id="ParameterValueStart-to-*end*" style="stroke:#181818;stroke-width:1.0;"/><polygon fill="#181818" points="241.41,782.97,250.4357,786.9116,246.4099,782.9376,250.3839,778.9118,241.41,782.97" style="stroke:#181818;stroke-width:1.0;"/></g><!--link ParameterQuotedValueEnd to *end*--><g id="link_ParameterQuotedValueEnd_*end*"><path d="M230.1,712.09 C230.1,730.66 230.1,752.17 230.1,766.87 " fill="none" id="ParameterQuotedValueEnd-to-*end*" style="stroke:#181818;stroke-width:1.0;"/><polygon fill="#181818" points="230.1,772.87,234.1,763.87,230.1,767.87,226.1,763.87,230.1,772.87" style="stroke:#181818;stroke-width:1.0;"/></g><!--SRC=[bLEx3i8m3Dpp5L6NI4Y87GGR4mke5Gim16A9IlIXr1twzs1Ib4TB2aiLdy_divFUSmKSYXexhg2vwRp6l2ePQr0YyAoheJ-cxHKfwiEzrB801Bs3BeIEyj52YbBZQ2O43ss5eAPIs-OcwoYXL8oTPXS-ds-CSKRVTzYRvqik5iB2cS4gl8Dcx4EYZ3iULQs4bxPwVQt7zmJiCaXdBI9KqojKT0GyjZCwAITYkiGECqdzw8PktAxVx9Yheaxdi_Ypj5JXCB-KnOsIwDGUOlI1lrWlCtl4g2oxy7R7tILHLZ2t-pfVFy7mbNcWrHl2zZ5ukP45KVu9]--></g></svg>