<svg xmlns="http://www.w3.org/2000/svg" xmlns:xlink="http://www.w3.org/1999/xlink" contentStyleType="text/css" height="801px" preserveAspectRatio="none" style="width:763px;height:801px;background:#FFFFFF;" version="1.1" viewBox="0 0 763 801" width="763px" zoomAndPan="magnify"><defs/><g><rect fill="#F1F1F1" height="40" rx="12.5" ry="12.5" style="stroke:#181818;stroke-width:0.5;" width="50" x="223" y="87"/><text fill="#000000" font-family="sans-serif" font-size="14" lengthAdjust="spacing" textLength="32.7783" x="231.6108" y="112.291">Type</text><rect fill="#F1F1F1" height="40" rx="12.5" ry="12.5" style="stroke:#181818;stroke-width:0.5;" width="64.2021" x="133.9" y="204"/><text fill="#000000" font-family="sans-serif" font-size="14" lengthAdjust="spacing" textLength="54.2021" x="138.9" y="229.291">Subtype</text><rect fill="#F1F1F1" height="40" rx="12.5" ry="12.5" style="stroke:#181818;stroke-width:0.5;" width="102.8184" x="279.59" y="321"/><text fill="#000000" font-family="sans-serif" font-size="14" lengthAdjust="spacing" textLength="92.8184" x="284.59" y="346.291">ParameterKey</text><rect fill="#F1F1F1" height="40" rx="12.5" ry="12.5" style="stroke:#181818;stroke-width:0.5;" width="147.457" x="347.27" y="438"/><text fill="#000000" font-family="sans-serif" font-size="14" lengthAdjust="spacing" textLength="137.457" x="352.27" y="463.291">ParameterValueStart</text><rect fill="#F1F1F1" height="40" rx="12.5" ry="12.5" style="stroke:#181818;stroke-width:0.5;" width="115.9844" x="62.01" y="555"/><text fill="#000000" font-family="sans-serif" font-size="14" lengthAdjust="spacing" textLength="105.9844" x="67.01" y="580.291">ParameterValue</text><rect fill="#F1F1F1" height="40" rx="12.5" ry="12.5" style="stroke:#181818;stroke-width:0.5;" width="165.9961" x="351" y="555"/><text fill="#000000" font-family="sans-serif" font-size="14" lengthAdjust="spacing" textLength="155.9961" x="356" y="580.291">ParameterQuotedValue</text><rect fill="#F1F1F1" height="40" rx="12.5" ry="12.5" style="stroke:#181818;stroke-width:0.5;" width="212.2344" x="419.88" y="672"/><text fill="#000000" font-family="sans-serif" font-size="14" lengthAdjust="spacing" textLength="202.2344" x="424.88" y="697.291">ParameterQuotedValueEscape</text><rect fill="#F1F1F1" height="40" rx="12.5" ry="12.5" style="stroke:#181818;stroke-width:0.5;" width="191.084" x="130.46" y="672"/><text fill="#000000" font-family="sans-serif" font-size="14" lengthAdjust="spacing" textLength="181.084" x="135.46" y="697.291">ParameterQuotedValueEnd</text><ellipse cx="248" cy="16" fill="#222222" rx="10" ry="10" style="stroke:#222222;stroke-width:1.0;"/><ellipse cx="226" cy="784" fill="none" rx="11" ry="11" style="stroke:#222222;stroke-width:1.0;"/><ellipse cx="226" cy="784" fill="#222222" rx="6" ry="6" style="stroke:#222222;stroke-width:1.0;"/><!--link *start* to Type--><g id="link_*start*_Type"><path d="M248,26.19 C248,40.4 248,62.02 248,80.74 " fill="none" id="*start*-to-Type" style="stroke:#181818;stroke-width:1.0;"/><polygon fill="#181818" points="248,86.74,252,77.74,248,81.74,244,77.74,248,86.74" style="stroke:#181818;stroke-width:1.0;"/></g><!--link Type to Subtype--><g id="link_Type_Subtype"><path d="M234.28,127.25 C219.14,148.48 198.4031,177.5545 183.2531,198.8045 " fill="none" id="Type-to-Subtype" style="stroke:#181818;stroke-width:1.0;"/><polygon fill="#181818" points="179.77,203.69,188.2516,198.6838,182.6726,199.6187,181.7376,194.0397,179.77,203.69" style="stroke:#181818;stroke-width:1.0;"/><text fill="#000000" font-family="sans-serif" font-size="13" lengthAdjust="spacing" textLength="12.7715" x="213" y="170.5684">'/'</text></g><!--link Type to ParameterKey--><g id="link_Type_ParameterKey"><path d="M254.93,127.38 C270.56,171.05 306.3488,271.0907 322.0088,314.8607 " fill="none" id="Type-to-ParameterKey" style="stroke:#181818;stroke-width:1.0;"/><polygon fill="#181818" points="324.03,320.51,324.7644,310.6886,322.3457,315.8022,317.232,313.3835,324.03,320.51" style="stroke:#181818;stroke-width:1.0;"/><text fill="#000000" font-family="sans-serif" font-size="13" lengthAdjust="spacing" textLength="10.0674" x="297" y="229.0684">';'</text></g><!--link Type to Type--><g id="link_Type_Type"><path d="M273.28,98.46 C290.77,95.87 308,98.71 308,107 C308,115.28 296.7053,119.0089 279.2153,116.4189 " fill="none" id="Type-to-Type" style="stroke:#181818;stroke-width:1.0;"/><polygon fill="#181818" points="273.28,115.54,281.597,120.8152,278.2261,116.2724,282.7689,112.9015,273.28,115.54" style="stroke:#181818;stroke-width:1.0;"/><text fill="#000000" font-family="sans-serif" font-size="13" lengthAdjust="spacing" textLength="33.4775" x="314" y="112.0684">other</text></g><!--link Subtype to ParameterKey--><g id="link_Subtype_ParameterKey"><path d="M193.62,244.25 C224.08,265.48 267.8776,296.0093 298.3676,317.2593 " fill="none" id="Subtype-to-ParameterKey" style="stroke:#181818;stroke-width:1.0;"/><polygon fill="#181818" points="303.29,320.69,298.1935,312.2623,299.188,317.8311,293.6192,318.8256,303.29,320.69" style="stroke:#181818;stroke-width:1.0;"/><text fill="#000000" font-family="sans-serif" font-size="13" lengthAdjust="spacing" textLength="10.0674" x="260" y="287.5684">';'</text></g><!--link Subtype to Subtype--><g id="link_Subtype_Subtype"><path d="M198.45,213.56 C216.49,211.61 233.1,215.09 233.1,224 C233.1,232.91 222.4553,237.0348 204.4153,235.0848 " fill="none" id="Subtype-to-Subtype" style="stroke:#181818;stroke-width:1.0;"/><polygon fill="#181818" points="198.45,234.44,206.968,239.384,203.421,234.9773,207.8277,231.4304,198.45,234.44" style="stroke:#181818;stroke-width:1.0;"/><text fill="#000000" font-family="sans-serif" font-size="13" lengthAdjust="spacing" textLength="33.4775" x="239.1" y="229.0684">other</text></g><!--link ParameterKey to ParameterValueStart--><g id="link_ParameterKey_ParameterValueStart"><path d="M348.62,361.17 C356.59,370.06 365.99,380.88 374,391 C386.05,406.22 395.3629,419.2643 404.5329,432.6143 " fill="none" id="ParameterKey-to-ParameterValueStart" style="stroke:#181818;stroke-width:1.0;"/><polygon fill="#181818" points="407.93,437.56,406.1314,427.8768,405.0991,433.4386,399.5372,432.4063,407.93,437.56" style="stroke:#181818;stroke-width:1.0;"/><text fill="#000000" font-family="sans-serif" font-size="13" lengthAdjust="spacing" textLength="16.2881" x="387" y="404.5684">'='</text></g><!--link ParameterValueStart to ParameterKey--><g id="link_ParameterValueStart_ParameterKey"><path d="M387.19,437.57 C375.7,429.62 363.61,419.56 355,408 C344.65,394.12 339.865,381.1484 336.345,367.1684 " fill="none" id="ParameterValueStart-to-ParameterKey" style="stroke:#181818;stroke-width:1.0;"/><polygon fill="#181818" points="334.88,361.35,333.1986,371.0543,336.1008,366.1987,340.9564,369.1009,334.88,361.35" style="stroke:#181818;stroke-width:1.0;"/><text fill="#000000" font-family="sans-serif" font-size="13" lengthAdjust="spacing" textLength="10.0674" x="356" y="404.5684">';'</text></g><!--link ParameterKey to ParameterKey--><g id="link_ParameterKey_ParameterKey"><path d="M382.88,330.05 C401.86,329.75 417.41,333.4 417.41,341 C417.41,348.6 407.8593,352.3448 388.8793,352.0448 " fill="none" id="ParameterKey-to-ParameterKey" style="stroke:#181818;stroke-width:1.0;"/><polygon fill="#181818" points="382.88,351.95,391.8157,356.0917,387.8794,352.029,391.9421,348.0927,382.88,351.95" style="stroke:#181818;stroke-width:1.0;"/><text fill="#000000" font-family="sans-serif" font-size="13" lengthAdjust="spacing" textLength="33.4775" x="423.41" y="346.0684">other</text></g><!--link ParameterValueStart to ParameterQuotedValue--><g id="link_ParameterValueStart_ParameterQuotedValue"><path d="M423.18,478.25 C425.58,499.48 428.7339,527.4782 431.1439,548.7282 " fill="none" id="ParameterValueStart-to-ParameterQuotedValue" style="stroke:#181818;stroke-width:1.0;"/><polygon fill="#181818" points="431.82,554.69,434.7803,545.2966,431.2566,549.7218,426.8313,546.1981,431.82,554.69" style="stroke:#181818;stroke-width:1.0;"/><text fill="#000000" font-family="sans-serif" font-size="13" lengthAdjust="spacing" textLength="10.8101" x="429" y="521.5684">'"'</text></g><!--link ParameterValueStart to ParameterValue--><g id="link_ParameterValueStart_ParameterValue"><path d="M347.25,469.85 C307.25,477.39 257.63,489.49 216,508 C189.02,520 166.2865,536.046 147.6965,550.826 " fill="none" id="ParameterValueStart-to-ParameterValue" style="stroke:#181818;stroke-width:1.0;"/><polygon fill="#181818" points="143,554.56,152.5341,552.09,146.9138,551.4483,147.5555,545.828,143,554.56" style="stroke:#181818;stroke-width:1.0;"/><text fill="#000000" font-family="sans-serif" font-size="13" lengthAdjust="spacing" textLength="33.4775" x="217" y="521.5684">other</text></g><!--link ParameterQuotedValue to ParameterQuotedValueEscape--><g id="link_ParameterQuotedValue_ParameterQuotedValueEscape"><path d="M449.4,595.25 C466.38,616.48 489.8018,645.7548 506.8018,667.0048 " fill="none" id="ParameterQuotedValue-to-ParameterQuotedValueEscape" style="stroke:#181818;stroke-width:1.0;"/><polygon fill="#181818" points="510.55,671.69,508.0512,662.1634,507.4265,667.7857,501.8043,667.161,510.55,671.69" style="stroke:#181818;stroke-width:1.0;"/><text fill="#000000" font-family="sans-serif" font-size="13" lengthAdjust="spacing" textLength="12.7715" x="486" y="638.5684">'\'</text></g><!--link ParameterQuotedValueEscape to ParameterQuotedValue--><g id="link_ParameterQuotedValueEscape_ParameterQuotedValue"><path d="M475.94,671.68 C462.92,664.3 450.26,654.55 442,642 C433,628.31 431.3193,615.4966 431.7893,601.4566 " fill="none" id="ParameterQuotedValueEscape-to-ParameterQuotedValue" style="stroke:#181818;stroke-width:1.0;"/><polygon fill="#181818" points="431.99,595.46,427.6911,604.3211,431.8227,600.4572,435.6866,604.5888,431.99,595.46" style="stroke:#181818;stroke-width:1.0;"/><text fill="#000000" font-family="sans-serif" font-size="13" lengthAdjust="spacing" textLength="22.0391" x="443" y="638.5684">any</text></g><!--link ParameterQuotedValue to ParameterQuotedValueEnd--><g id="link_ParameterQuotedValue_ParameterQuotedValueEnd"><path d="M401.29,595.45 C378.62,608.8 347.66,626.8 320,642 C301.78,652.02 286.6626,659.9898 269.5026,668.8398 " fill="none" id="ParameterQuotedValue-to-ParameterQuotedValueEnd" style="stroke:#181818;stroke-width:1.0;"/><polygon fill="#181818" points="264.17,671.59,274.0023,671.0198,268.6138,669.2982,270.3354,663.9097,264.17,671.59" style="stroke:#181818;stroke-width:1.0;"/><text fill="#000000" font-family="sans-serif" font-size="13" lengthAdjust="spacing" textLength="10.8101" x="349" y="638.5684">'"'</text></g><!--link ParameterQuotedValue to ParameterQuotedValue--><g id="link_ParameterQuotedValue_ParameterQuotedValue"><path d="M517.25,564.22 C537.21,565.07 552,568.66 552,575 C552,581.34 543.2046,584.6747 523.2446,585.5247 " fill="none" id="ParameterQuotedValue-to-ParameterQuotedValue" style="stroke:#181818;stroke-width:1.0;"/><polygon fill="#181818" points="517.25,585.78,526.412,589.3935,522.2455,585.5673,526.0717,581.4007,517.25,585.78" style="stroke:#181818;stroke-width:1.0;"/><text fill="#000000" font-family="sans-serif" font-size="13" lengthAdjust="spacing" textLength="33.4775" x="558" y="580.0684">other</text></g><!--link ParameterQuotedValueEnd to ParameterKey--><g id="link_ParameterQuotedValueEnd_ParameterKey"><path d="M232.73,671.59 C239.37,652.25 249.71,621.67 258,595 C284.93,508.34 312.3994,409.7453 324.0894,367.2253 " fill="none" id="ParameterQuotedValueEnd-to-ParameterKey" style="stroke:#181818;stroke-width:1.0;"/><polygon fill="#181818" points="325.68,361.44,319.4373,369.0576,324.3545,366.2611,327.1511,371.1784,325.68,361.44" style="stroke:#181818;stroke-width:1.0;"/><text fill="#000000" font-family="sans-serif" font-size="13" lengthAdjust="spacing" textLength="10.0674" x="285" y="521.5684">';'</text></g><!--link ParameterQuotedValueEnd to ParameterQuotedValueEnd--><g id="link_ParameterQuotedValueEnd_ParameterQuotedValueEnd"><path d="M321.92,682.85 C342.04,683.8 356.54,686.85 356.54,692 C356.54,697.15 348.0333,699.917 327.9133,700.867 " fill="none" id="ParameterQuotedValueEnd-to-ParameterQuotedValueEnd" style="stroke:#181818;stroke-width:1.0;"/><polygon fill="#181818" points="321.92,701.15,331.0986,704.7211,326.9144,700.9142,330.7213,696.73,321.92,701.15" style="stroke:#181818;stroke-width:1.0;"/><text fill="#000000" font-family="sans-serif" font-size="13" lengthAdjust="spacing" textLength="33.4775" x="362.54" y="697.0684">other</text></g><!--link ParameterValue to ParameterKey--><g id="link_ParameterValue_ParameterKey"><path d="M133.39,554.62 C157.9,519.84 212.58,445.37 268,391 C278.78,380.42 286.9939,373.5619 298.3939,365.0419 " fill="none" id="ParameterValue-to-ParameterKey" style="stroke:#181818;stroke-width:1.0;"/><polygon fill="#181818" points="303.2,361.45,293.5963,363.6338,299.1949,364.4433,298.3855,370.0419,303.2,361.45" style="stroke:#181818;stroke-width:1.0;"/><text fill="#000000" font-family="sans-serif" font-size="13" lengthAdjust="spacing" textLength="11.9463" x="225" y="463.0684">';"</text></g><!--link ParameterValue to ParameterValue--><g id="link_ParameterValue_ParameterValue"><path d="M178.12,564.03 C197.49,564.03 212.99,567.69 212.99,575 C212.99,582.31 203.49,585.97 184.12,585.97 " fill="none" id="ParameterValue-to-ParameterValue" style="stroke:#181818;stroke-width:1.0;"/><polygon fill="#181818" points="178.12,585.97,187.12,589.97,183.12,585.97,187.12,581.97,178.12,585.97" style="stroke:#181818;stroke-width:1.0;"/><text fill="#000000" font-family="sans-serif" font-size="13" lengthAdjust="spacing" textLength="33.4775" x="218.99" y="580.0684">other</text></g><!--link Subtype to *end*--><g id="link_Subtype_*end*"><path d="M133.62,232.67 C86.87,245.88 6,277.74 6,340 C6,340 6,340 6,693 C6,784.2 163.9633,785.208 208.7933,783.728 " fill="none" id="Subtype-to-*end*" style="stroke:#181818;stroke-width:1.0;"/><polygon fill="#181818" points="214.79,783.53,205.6629,779.8291,209.7927,783.695,205.9269,787.8248,214.79,783.53" style="stroke:#181818;stroke-width:1.0;"/></g><!--link ParameterKey to *end*--><g id="link_ParameterKey_*end*"><path d="M382.69,345.1 C495.95,353.3 756,380.47 756,457 C756,457 756,457 756,693 C756,756.57 683.91,728.58 622,743 C472.6,777.81 290.5195,782.2565 243.1895,782.8365 " fill="none" id="ParameterKey-to-*end*" style="stroke:#181818;stroke-width:1.0;"/><polygon fill="#181818" points="237.19,782.91,246.2383,786.7994,242.1896,782.8487,246.1403,778.8,237.19,782.91" style="stroke:#181818;stroke-width:1.0;"/></g><!--link ParameterValue to *end*--><g id="link_ParameterValue_*end*"><path d="M112.93,595.46 C104.11,623.23 92.53,674.96 113,712 C135.42,752.56 186.0308,771.3635 209.6108,778.4035 " fill="none" id="ParameterValue-to-*end*" style="stroke:#181818;stroke-width:1.0;"/><polygon fill="#181818" points="215.36,780.12,207.8805,773.7125,210.569,778.6896,205.5918,781.3781,215.36,780.12" style="stroke:#181818;stroke-width:1.0;"/></g><!--link ParameterValueStart to *end*--><g id="link_ParameterValueStart_*end*"><path d="M476.65,478.44 C514.67,494.11 563.96,519.42 597,555 C647.11,608.97 697.58,655.79 650,712 C594.79,777.23 305.0699,782.5311 243.3099,782.9311 " fill="none" id="ParameterValueStart-to-*end*" style="stroke:#181818;stroke-width:1.0;"/><polygon fill="#181818" points="237.31,782.97,246.3357,786.9116,242.3099,782.9376,246.2839,778.9118,237.31,782.97" style="stroke:#181818;stroke-width:1.0;"/></g><!--link ParameterQuotedValueEnd to *end*--><g id="link_ParameterQuotedValueEnd_*end*"><path d="M226,712.09 C226,730.66 226,752.17 226,766.87 " fill="none" id="ParameterQuotedValueEnd-to-*end*" style="stroke:#181818;stroke-width:1.0;"/><polygon fill="#181818" points="226,772.87,230,763.87,226,767.87,222,763.87,226,772.87" style="stroke:#181818;stroke-width:1.0;"/></g><!--SRC=[bLCz3y8W4Dtv5SI5nCIuQtHpSj6qSL47b4jiefJGwz1_hmY6ZrQgIyFTU_VktK5lbG0A3uKT5T1STQMmgYKX3N84MdOAtB5eBsWY5-wuvWz0q5leqjI1triea6iSHDBalgqHn1YqQQvSPGbI47ASdkbijhR6YVc-GsUUBYYRCvyEXp3OCi1Aow_n1fgGZy2NgX3slLnjn8y4_AACpefbgBPNgXW8HEnWBKPvmiPB_32Zr8zkwYRi-isElKRJwNHYVvPAaGxpIrdUg14TsqEEtlENwsLdpnZbiajlTzZT9CjAvWvVv-i7wR-oAEdr-cd_629iO446Vm80]--></g></svg>