<svg xmlns="http://www.w3.org/2000/svg" xmlns:xlink="http://www.w3.org/1999/xlink" contentStyleType="text/css" height="1558px" preserveAspectRatio="none" style="width:1483px;height:1558px;background:#FFFFFF;" version="1.1" viewBox="0 0 1483 1558" width="1483px" zoomAndPan="magnify"><defs/><g><!--class avatar_state--><g id="elem_avatar_state"><rect codeLine="2" fill="#F1F1F1" height="443.7188" id="avatar_state" rx="2.5" ry="2.5" style="stroke:#181818;stroke-width:0.5;" width="509.8887" x="347.81" y="593.67"/><ellipse cx="557.7314" cy="609.67" fill="#ADD1B2" rx="11" ry="11" style="stroke:#181818;stroke-width:1.0;"/><path d="M561.8456,615.67 L554.1259,615.67 L554.1259,603.2769 L561.8456,603.2769 L561.8456,605.4351 L556.5746,605.4351 L556.5746,608.108 L561.3476,608.108 L561.3476,610.2662 L556.5746,610.2662 L556.5746,613.5118 L561.8456,613.5118 Z " fill="#000000"/><text fill="#000000" font-family="sans-serif" font-size="14" lengthAdjust="spacing" textLength="81.5459" x="578.2314" y="614.961">avatar_state</text><line style="stroke:#181818;stroke-width:0.5;" x1="348.81" x2="856.6987" y1="625.67" y2="625.67"/><ellipse cx="358.81" cy="639.4141" fill="#000000" rx="3" ry="3" style="stroke:#000000;stroke-width:1.0;"/><text fill="#000000" font-family="sans-serif" font-size="14" lengthAdjust="spacing" textLength="51.9531" x="367.81" y="643.2052">id: uuid</text><text fill="#000000" font-family="sans-serif" font-size="14" lengthAdjust="spacing" textLength="4.4297" x="367.81" y="659.6934">&#160;</text><line style="stroke:#181818;stroke-width:1.0;" x1="348.81" x2="856.6987" y1="666.6466" y2="666.6466"/><text fill="#000000" font-family="sans-serif" font-size="14" lengthAdjust="spacing" textLength="4.4297" x="367.81" y="684.1817">&#160;</text><ellipse cx="358.81" cy="696.879" fill="#000000" rx="3" ry="3" style="stroke:#000000;stroke-width:1.0;"/><text fill="#000000" font-family="sans-serif" font-size="14" lengthAdjust="spacing" textLength="88.3066" x="367.81" y="700.67">user_id: uuid</text><ellipse cx="358.81" cy="713.3673" fill="#000000" rx="3" ry="3" style="stroke:#000000;stroke-width:1.0;"/><text fill="#000000" font-family="sans-serif" font-size="14" lengthAdjust="spacing" textLength="99.5107" x="367.81" y="717.1583">group_id: uuid</text><text fill="#000000" font-family="sans-serif" font-size="14" lengthAdjust="spacing" textLength="4.4297" x="367.81" y="733.6466">&#160;</text><ellipse cx="358.81" cy="746.3438" fill="#000000" rx="3" ry="3" style="stroke:#000000;stroke-width:1.0;"/><text fill="#000000" font-family="sans-serif" font-size="14" lengthAdjust="spacing" textLength="483.8887" x="367.81" y="750.1348">game_mode: enum('ADVENTURE', 'CREATIVE', 'SPECTATOR', 'SURVIVAL')</text><ellipse cx="358.81" cy="762.8321" fill="#000000" rx="3" ry="3" style="stroke:#000000;stroke-width:1.0;"/><text fill="#000000" font-family="sans-serif" font-size="14" lengthAdjust="spacing" textLength="97.8086" x="367.81" y="766.6231">health: double</text><ellipse cx="358.81" cy="779.3204" fill="#000000" rx="3" ry="3" style="stroke:#000000;stroke-width:1.0;"/><text fill="#000000" font-family="sans-serif" font-size="14" lengthAdjust="spacing" textLength="95.9287" x="367.81" y="783.1114">food_level: int</text><ellipse cx="358.81" cy="795.8087" fill="#000000" rx="3" ry="3" style="stroke:#000000;stroke-width:1.0;"/><text fill="#000000" font-family="sans-serif" font-size="14" lengthAdjust="spacing" textLength="82.2773" x="367.81" y="799.5997">air_level: int</text><ellipse cx="358.81" cy="812.297" fill="#000000" rx="3" ry="3" style="stroke:#000000;stroke-width:1.0;"/><text fill="#000000" font-family="sans-serif" font-size="14" lengthAdjust="spacing" textLength="57.7705" x="367.81" y="816.088">level: int</text><ellipse cx="358.81" cy="828.7852" fill="#000000" rx="3" ry="3" style="stroke:#000000;stroke-width:1.0;"/><text fill="#000000" font-family="sans-serif" font-size="14" lengthAdjust="spacing" textLength="64.8184" x="367.81" y="832.5763">exp: float</text><ellipse cx="358.81" cy="845.2735" fill="#000000" rx="3" ry="3" style="stroke:#000000;stroke-width:1.0;"/><text fill="#000000" font-family="sans-serif" font-size="14" lengthAdjust="spacing" textLength="164.4111" x="367.81" y="849.0645">fire_duration_in_tics: int</text><text fill="#000000" font-family="sans-serif" font-size="14" lengthAdjust="spacing" textLength="4.4297" x="367.81" y="865.5528">&#160;</text><ellipse cx="358.81" cy="878.2501" fill="#000000" rx="3" ry="3" style="stroke:#000000;stroke-width:1.0;"/><text fill="#000000" font-family="sans-serif" font-size="14" lengthAdjust="spacing" textLength="126.3691" x="367.81" y="882.0411">position_x: double</text><ellipse cx="358.81" cy="894.7384" fill="#000000" rx="3" ry="3" style="stroke:#000000;stroke-width:1.0;"/><text fill="#000000" font-family="sans-serif" font-size="14" lengthAdjust="spacing" textLength="125.0977" x="367.81" y="898.5294">position_y: double</text><ellipse cx="358.81" cy="911.2266" fill="#000000" rx="3" ry="3" style="stroke:#000000;stroke-width:1.0;"/><text fill="#000000" font-family="sans-serif" font-size="14" lengthAdjust="spacing" textLength="125.8086" x="367.81" y="915.0177">position_z: double</text><text fill="#000000" font-family="sans-serif" font-size="14" lengthAdjust="spacing" textLength="4.4297" x="367.81" y="931.5059">&#160;</text><ellipse cx="358.81" cy="944.2032" fill="#000000" rx="3" ry="3" style="stroke:#000000;stroke-width:1.0;"/><text fill="#000000" font-family="sans-serif" font-size="14" lengthAdjust="spacing" textLength="122.6641" x="367.81" y="947.9942">velocity_x: double</text><ellipse cx="358.81" cy="960.6915" fill="#000000" rx="3" ry="3" style="stroke:#000000;stroke-width:1.0;"/><text fill="#000000" font-family="sans-serif" font-size="14" lengthAdjust="spacing" textLength="121.3926" x="367.81" y="964.4825">velocity_y: double</text><ellipse cx="358.81" cy="977.1798" fill="#000000" rx="3" ry="3" style="stroke:#000000;stroke-width:1.0;"/><text fill="#000000" font-family="sans-serif" font-size="14" lengthAdjust="spacing" textLength="122.1035" x="367.81" y="980.9708">velocity_z: double</text><text fill="#000000" font-family="sans-serif" font-size="14" lengthAdjust="spacing" textLength="4.4297" x="367.81" y="997.4591">&#160;</text><ellipse cx="358.81" cy="1010.1563" fill="#000000" rx="3" ry="3" style="stroke:#000000;stroke-width:1.0;"/><text fill="#000000" font-family="sans-serif" font-size="14" lengthAdjust="spacing" textLength="122.3018" x="367.81" y="1013.9473">inventory_id: uuid</text><ellipse cx="358.81" cy="1026.6446" fill="#000000" rx="3" ry="3" style="stroke:#000000;stroke-width:1.0;"/><text fill="#000000" font-family="sans-serif" font-size="14" lengthAdjust="spacing" textLength="211.1621" x="367.81" y="1030.4356">ender_chest_inventory_id: uuid</text></g><!--class avatar_state_group--><g id="elem_avatar_state_group"><rect codeLine="30" fill="#F1F1F1" height="179.9063" id="avatar_state_group" rx="2.5" ry="2.5" style="stroke:#181818;stroke-width:0.5;" width="305.501" x="193" y="171.88"/><ellipse cx="276.9487" cy="187.88" fill="#ADD1B2" rx="11" ry="11" style="stroke:#181818;stroke-width:1.0;"/><path d="M281.063,193.88 L273.3433,193.88 L273.3433,181.4869 L281.063,181.4869 L281.063,183.6451 L275.792,183.6451 L275.792,186.318 L280.5649,186.318 L280.5649,188.4762 L275.792,188.4762 L275.792,191.7218 L281.063,191.7218 Z " fill="#000000"/><text fill="#000000" font-family="sans-serif" font-size="14" lengthAdjust="spacing" textLength="129.1035" x="297.4487" y="193.171">avatar_state_group</text><line style="stroke:#181818;stroke-width:0.5;" x1="194" x2="497.501" y1="203.88" y2="203.88"/><ellipse cx="204" cy="217.6241" fill="#000000" rx="3" ry="3" style="stroke:#000000;stroke-width:1.0;"/><text fill="#000000" font-family="sans-serif" font-size="14" lengthAdjust="spacing" textLength="51.9531" x="213" y="221.4152">id: uuid</text><text fill="#000000" font-family="sans-serif" font-size="14" lengthAdjust="spacing" textLength="4.4297" x="213" y="237.9034">&#160;</text><line style="stroke:#181818;stroke-width:1.0;" x1="194" x2="497.501" y1="244.8566" y2="244.8566"/><text fill="#000000" font-family="sans-serif" font-size="14" lengthAdjust="spacing" textLength="4.4297" x="213" y="262.3917">&#160;</text><ellipse cx="204" cy="275.089" fill="#000000" rx="3" ry="3" style="stroke:#000000;stroke-width:1.0;"/><text fill="#000000" font-family="sans-serif" font-size="14" lengthAdjust="spacing" textLength="269.4453" x="213" y="278.88">createdAt: timestamp(6) with time zone</text><ellipse cx="204" cy="291.5773" fill="#000000" rx="3" ry="3" style="stroke:#000000;stroke-width:1.0;"/><text fill="#000000" font-family="sans-serif" font-size="14" lengthAdjust="spacing" textLength="279.501" x="213" y="295.3683">modifiedAt: timestamp(6) with time zone</text><text fill="#000000" font-family="sans-serif" font-size="14" lengthAdjust="spacing" textLength="4.4297" x="213" y="311.8566">&#160;</text><text fill="#000000" font-family="sans-serif" font-size="14" lengthAdjust="spacing" textLength="131.8379" x="213" y="328.3448">name: varchar(255)</text><text fill="#000000" font-family="sans-serif" font-size="14" lengthAdjust="spacing" textLength="188.3301" x="213" y="344.8331">description: varchar(65535)</text></g><!--class inventory--><g id="elem_inventory"><rect codeLine="42" fill="#F1F1F1" height="64.4883" id="inventory" rx="2.5" ry="2.5" style="stroke:#181818;stroke-width:0.5;" width="95.3486" x="575.08" y="1172.1"/><ellipse cx="590.08" cy="1188.1" fill="#ADD1B2" rx="11" ry="11" style="stroke:#181818;stroke-width:1.0;"/><path d="M594.1943,1194.1 L586.4745,1194.1 L586.4745,1181.7069 L594.1943,1181.7069 L594.1943,1183.8651 L588.9233,1183.8651 L588.9233,1186.538 L593.6962,1186.538 L593.6962,1188.6962 L588.9233,1188.6962 L588.9233,1191.9418 L594.1943,1191.9418 Z " fill="#000000"/><text fill="#000000" font-family="sans-serif" font-size="14" lengthAdjust="spacing" textLength="63.3486" x="604.08" y="1193.391">inventory</text><line style="stroke:#181818;stroke-width:0.5;" x1="576.08" x2="669.4286" y1="1204.1" y2="1204.1"/><ellipse cx="586.08" cy="1217.8441" fill="#000000" rx="3" ry="3" style="stroke:#000000;stroke-width:1.0;"/><text fill="#000000" font-family="sans-serif" font-size="14" lengthAdjust="spacing" textLength="51.9531" x="595.08" y="1221.6352">id: uuid</text><line style="stroke:#181818;stroke-width:0.5;" x1="576.08" x2="669.4286" y1="1228.5883" y2="1228.5883"/></g><!--class invite--><g id="elem_invite"><rect codeLine="46" fill="#F1F1F1" height="443.7188" id="invite" rx="2.5" ry="2.5" style="stroke:#181818;stroke-width:0.5;" width="305.501" x="1171" y="593.67"/><ellipse cx="1300.9683" cy="609.67" fill="#ADD1B2" rx="11" ry="11" style="stroke:#181818;stroke-width:1.0;"/><path d="M1305.0825,615.67 L1297.3628,615.67 L1297.3628,603.2769 L1305.0825,603.2769 L1305.0825,605.4351 L1299.8115,605.4351 L1299.8115,608.108 L1304.5845,608.108 L1304.5845,610.2662 L1299.8115,610.2662 L1299.8115,613.5118 L1305.0825,613.5118 Z " fill="#000000"/><text fill="#000000" font-family="sans-serif" font-size="14" lengthAdjust="spacing" textLength="37.0645" x="1321.4683" y="614.961">invite</text><line style="stroke:#181818;stroke-width:0.5;" x1="1172" x2="1475.501" y1="625.67" y2="625.67"/><ellipse cx="1182" cy="639.4141" fill="#000000" rx="3" ry="3" style="stroke:#000000;stroke-width:1.0;"/><text fill="#000000" font-family="sans-serif" font-size="14" lengthAdjust="spacing" textLength="51.9531" x="1191" y="643.2052">id: uuid</text><text fill="#000000" font-family="sans-serif" font-size="14" lengthAdjust="spacing" textLength="4.4297" x="1191" y="659.6934">&#160;</text><line style="stroke:#181818;stroke-width:1.0;" x1="1172" x2="1475.501" y1="666.6466" y2="666.6466"/><text fill="#000000" font-family="sans-serif" font-size="14" lengthAdjust="spacing" textLength="4.4297" x="1191" y="684.1817">&#160;</text><ellipse cx="1182" cy="696.879" fill="#000000" rx="3" ry="3" style="stroke:#000000;stroke-width:1.0;"/><text fill="#000000" font-family="sans-serif" font-size="14" lengthAdjust="spacing" textLength="269.4453" x="1191" y="700.67">createdAt: timestamp(6) with time zone</text><ellipse cx="1182" cy="713.3673" fill="#000000" rx="3" ry="3" style="stroke:#000000;stroke-width:1.0;"/><text fill="#000000" font-family="sans-serif" font-size="14" lengthAdjust="spacing" textLength="279.501" x="1191" y="717.1583">modifiedAt: timestamp(6) with time zone</text><text fill="#000000" font-family="sans-serif" font-size="14" lengthAdjust="spacing" textLength="4.4297" x="1191" y="733.6466">&#160;</text><ellipse cx="1182" cy="746.3438" fill="#000000" rx="3" ry="3" style="stroke:#000000;stroke-width:1.0;"/><text fill="#000000" font-family="sans-serif" font-size="14" lengthAdjust="spacing" textLength="269.0762" x="1191" y="750.1348">expiresAt: timestamp(6) with time zone</text><text fill="#000000" font-family="sans-serif" font-size="14" lengthAdjust="spacing" textLength="4.4297" x="1191" y="766.6231">&#160;</text><ellipse cx="1182" cy="779.3204" fill="#000000" rx="3" ry="3" style="stroke:#000000;stroke-width:1.0;"/><text fill="#000000" font-family="sans-serif" font-size="14" lengthAdjust="spacing" textLength="124.332" x="1191" y="783.1114">nickname_id: uuid</text><text fill="#000000" font-family="sans-serif" font-size="14" lengthAdjust="spacing" textLength="4.4297" x="1191" y="799.5997">&#160;</text><ellipse cx="1182" cy="812.297" fill="#000000" rx="3" ry="3" style="stroke:#000000;stroke-width:1.0;"/><text fill="#000000" font-family="sans-serif" font-size="14" lengthAdjust="spacing" textLength="208.7422" x="1191" y="816.088">rights_invites_can_create: bool</text><ellipse cx="1182" cy="828.7852" fill="#000000" rx="3" ry="3" style="stroke:#000000;stroke-width:1.0;"/><text fill="#000000" font-family="sans-serif" font-size="14" lengthAdjust="spacing" textLength="197.3467" x="1191" y="832.5763">rights_invites_can_read: bool</text><ellipse cx="1182" cy="845.2735" fill="#000000" rx="3" ry="3" style="stroke:#000000;stroke-width:1.0;"/><text fill="#000000" font-family="sans-serif" font-size="14" lengthAdjust="spacing" textLength="214.3545" x="1191" y="849.0645">rights_invites_can_update: bool</text><ellipse cx="1182" cy="861.7618" fill="#000000" rx="3" ry="3" style="stroke:#000000;stroke-width:1.0;"/><text fill="#000000" font-family="sans-serif" font-size="14" lengthAdjust="spacing" textLength="208.7695" x="1191" y="865.5528">rights_invites_can_delete: bool</text><text fill="#000000" font-family="sans-serif" font-size="14" lengthAdjust="spacing" textLength="4.4297" x="1191" y="882.0411">&#160;</text><ellipse cx="1182" cy="894.7384" fill="#000000" rx="3" ry="3" style="stroke:#000000;stroke-width:1.0;"/><text fill="#000000" font-family="sans-serif" font-size="14" lengthAdjust="spacing" textLength="213.1172" x="1191" y="898.5294">rights_servers_can_create: bool</text><ellipse cx="1182" cy="911.2266" fill="#000000" rx="3" ry="3" style="stroke:#000000;stroke-width:1.0;"/><text fill="#000000" font-family="sans-serif" font-size="14" lengthAdjust="spacing" textLength="201.7217" x="1191" y="915.0177">rights_servers_can_read: bool</text><ellipse cx="1182" cy="927.7149" fill="#000000" rx="3" ry="3" style="stroke:#000000;stroke-width:1.0;"/><text fill="#000000" font-family="sans-serif" font-size="14" lengthAdjust="spacing" textLength="218.7295" x="1191" y="931.5059">rights_servers_can_update: bool</text><ellipse cx="1182" cy="944.2032" fill="#000000" rx="3" ry="3" style="stroke:#000000;stroke-width:1.0;"/><text fill="#000000" font-family="sans-serif" font-size="14" lengthAdjust="spacing" textLength="213.1445" x="1191" y="947.9942">rights_servers_can_delete: bool</text><text fill="#000000" font-family="sans-serif" font-size="14" lengthAdjust="spacing" textLength="4.4297" x="1191" y="964.4825">&#160;</text><ellipse cx="1182" cy="977.1798" fill="#000000" rx="3" ry="3" style="stroke:#000000;stroke-width:1.0;"/><text fill="#000000" font-family="sans-serif" font-size="14" lengthAdjust="spacing" textLength="201.0313" x="1191" y="980.9708">rights_users_can_create: bool</text><ellipse cx="1182" cy="993.668" fill="#000000" rx="3" ry="3" style="stroke:#000000;stroke-width:1.0;"/><text fill="#000000" font-family="sans-serif" font-size="14" lengthAdjust="spacing" textLength="189.6357" x="1191" y="997.4591">rights_users_can_read: bool</text><ellipse cx="1182" cy="1010.1563" fill="#000000" rx="3" ry="3" style="stroke:#000000;stroke-width:1.0;"/><text fill="#000000" font-family="sans-serif" font-size="14" lengthAdjust="spacing" textLength="206.6436" x="1191" y="1013.9473">rights_users_can_update: bool</text><ellipse cx="1182" cy="1026.6446" fill="#000000" rx="3" ry="3" style="stroke:#000000;stroke-width:1.0;"/><text fill="#000000" font-family="sans-serif" font-size="14" lengthAdjust="spacing" textLength="201.0586" x="1191" y="1030.4356">rights_users_can_delete: bool</text></g><!--class item_stack--><g id="elem_item_stack"><rect codeLine="74" fill="#F1F1F1" height="179.9063" id="item_stack" rx="2.5" ry="2.5" style="stroke:#181818;stroke-width:0.5;" width="257.8477" x="493.83" y="1371.29"/><ellipse cx="582.1982" cy="1387.29" fill="#ADD1B2" rx="11" ry="11" style="stroke:#181818;stroke-width:1.0;"/><path d="M586.3124,1393.29 L578.5927,1393.29 L578.5927,1380.8969 L586.3124,1380.8969 L586.3124,1383.0551 L581.0414,1383.0551 L581.0414,1385.728 L585.8144,1385.728 L585.8144,1387.8862 L581.0414,1387.8862 L581.0414,1391.1318 L586.3124,1391.1318 Z " fill="#000000"/><text fill="#000000" font-family="sans-serif" font-size="14" lengthAdjust="spacing" textLength="72.6113" x="602.6982" y="1392.581">item_stack</text><line style="stroke:#181818;stroke-width:0.5;" x1="494.83" x2="750.6777" y1="1403.29" y2="1403.29"/><ellipse cx="504.83" cy="1417.0341" fill="#000000" rx="3" ry="3" style="stroke:#000000;stroke-width:1.0;"/><text fill="#000000" font-family="sans-serif" font-size="14" lengthAdjust="spacing" textLength="51.9531" x="513.83" y="1420.8252">id: uuid</text><text fill="#000000" font-family="sans-serif" font-size="14" lengthAdjust="spacing" textLength="4.4297" x="513.83" y="1437.3134">&#160;</text><line style="stroke:#181818;stroke-width:1.0;" x1="494.83" x2="750.6777" y1="1444.2666" y2="1444.2666"/><text fill="#000000" font-family="sans-serif" font-size="14" lengthAdjust="spacing" textLength="4.4297" x="513.83" y="1461.8017">&#160;</text><ellipse cx="504.83" cy="1474.499" fill="#000000" rx="3" ry="3" style="stroke:#000000;stroke-width:1.0;"/><text fill="#000000" font-family="sans-serif" font-size="14" lengthAdjust="spacing" textLength="122.3018" x="513.83" y="1478.29">inventory_id: uuid</text><text fill="#000000" font-family="sans-serif" font-size="14" lengthAdjust="spacing" textLength="4.4297" x="513.83" y="1494.7783">&#160;</text><ellipse cx="504.83" cy="1507.4755" fill="#000000" rx="3" ry="3" style="stroke:#000000;stroke-width:1.0;"/><text fill="#000000" font-family="sans-serif" font-size="14" lengthAdjust="spacing" textLength="96.7832" x="513.83" y="1511.2666">slot_index: int</text><ellipse cx="504.83" cy="1523.9638" fill="#000000" rx="3" ry="3" style="stroke:#000000;stroke-width:1.0;"/><text fill="#000000" font-family="sans-serif" font-size="14" lengthAdjust="spacing" textLength="231.8477" x="513.83" y="1527.7548">nbt_bytes: varbinary(16_777_215)</text><ellipse cx="504.83" cy="1540.4521" fill="#000000" rx="3" ry="3" style="stroke:#000000;stroke-width:1.0;"/><text fill="#000000" font-family="sans-serif" font-size="14" lengthAdjust="spacing" textLength="139.166" x="513.83" y="1544.2431">is_compressed: bool</text></g><!--class nickname--><g id="elem_nickname"><rect codeLine="86" fill="#F1F1F1" height="146.9297" id="nickname" rx="2.5" ry="2.5" style="stroke:#181818;stroke-width:0.5;" width="177.0742" x="1005.21" y="1130.88"/><ellipse cx="1056.8077" cy="1146.88" fill="#ADD1B2" rx="11" ry="11" style="stroke:#181818;stroke-width:1.0;"/><path d="M1060.9219,1152.88 L1053.2022,1152.88 L1053.2022,1140.4869 L1060.9219,1140.4869 L1060.9219,1142.6451 L1055.6509,1142.6451 L1055.6509,1145.318 L1060.4239,1145.318 L1060.4239,1147.4762 L1055.6509,1147.4762 L1055.6509,1150.7218 L1060.9219,1150.7218 Z " fill="#000000"/><text fill="#000000" font-family="sans-serif" font-size="14" lengthAdjust="spacing" textLength="65.3789" x="1077.3077" y="1152.171">nickname</text><line style="stroke:#181818;stroke-width:0.5;" x1="1006.21" x2="1181.2842" y1="1162.88" y2="1162.88"/><ellipse cx="1016.21" cy="1176.6241" fill="#000000" rx="3" ry="3" style="stroke:#000000;stroke-width:1.0;"/><text fill="#000000" font-family="sans-serif" font-size="14" lengthAdjust="spacing" textLength="51.9531" x="1025.21" y="1180.4152">id: uuid</text><text fill="#000000" font-family="sans-serif" font-size="14" lengthAdjust="spacing" textLength="4.4297" x="1025.21" y="1196.9034">&#160;</text><line style="stroke:#181818;stroke-width:1.0;" x1="1006.21" x2="1181.2842" y1="1203.8566" y2="1203.8566"/><text fill="#000000" font-family="sans-serif" font-size="14" lengthAdjust="spacing" textLength="4.4297" x="1025.21" y="1221.3917">&#160;</text><ellipse cx="1016.21" cy="1234.089" fill="#000000" rx="3" ry="3" style="stroke:#000000;stroke-width:1.0;"/><text fill="#000000" font-family="sans-serif" font-size="14" lengthAdjust="spacing" textLength="151.0742" x="1025.21" y="1237.88">nickname: varchar(16)</text><text fill="#000000" font-family="sans-serif" font-size="14" lengthAdjust="spacing" textLength="4.4297" x="1025.21" y="1254.3683">&#160;</text><text fill="#000000" font-family="sans-serif" font-size="14" lengthAdjust="spacing" textLength="100.5566" x="1025.21" y="1270.8566">owner_id: uuid</text></g><!--class potion_effect--><g id="elem_potion_effect"><rect codeLine="96" fill="#F1F1F1" height="179.9063" id="potion_effect" rx="2.5" ry="2.5" style="stroke:#181818;stroke-width:0.5;" width="168.8711" x="188.31" y="1114.39"/><ellipse cx="224.7241" cy="1130.39" fill="#ADD1B2" rx="11" ry="11" style="stroke:#181818;stroke-width:1.0;"/><path d="M228.8384,1136.39 L221.1186,1136.39 L221.1186,1123.9969 L228.8384,1123.9969 L228.8384,1126.1551 L223.5674,1126.1551 L223.5674,1128.828 L228.3403,1128.828 L228.3403,1130.9862 L223.5674,1130.9862 L223.5674,1134.2318 L228.8384,1134.2318 Z " fill="#000000"/><text fill="#000000" font-family="sans-serif" font-size="14" lengthAdjust="spacing" textLength="89.2842" x="243.4828" y="1135.681">potion_effect</text><line style="stroke:#181818;stroke-width:0.5;" x1="189.31" x2="356.1811" y1="1146.39" y2="1146.39"/><ellipse cx="199.31" cy="1160.1341" fill="#000000" rx="3" ry="3" style="stroke:#000000;stroke-width:1.0;"/><text fill="#000000" font-family="sans-serif" font-size="14" lengthAdjust="spacing" textLength="51.9531" x="208.31" y="1163.9252">id: uuid</text><text fill="#000000" font-family="sans-serif" font-size="14" lengthAdjust="spacing" textLength="4.4297" x="208.31" y="1180.4134">&#160;</text><line style="stroke:#181818;stroke-width:1.0;" x1="189.31" x2="356.1811" y1="1187.3666" y2="1187.3666"/><text fill="#000000" font-family="sans-serif" font-size="14" lengthAdjust="spacing" textLength="4.4297" x="208.31" y="1204.9017">&#160;</text><ellipse cx="199.31" cy="1217.599" fill="#000000" rx="3" ry="3" style="stroke:#000000;stroke-width:1.0;"/><text fill="#000000" font-family="sans-serif" font-size="14" lengthAdjust="spacing" textLength="99.415" x="208.31" y="1221.39">target_id: uuid</text><text fill="#000000" font-family="sans-serif" font-size="14" lengthAdjust="spacing" textLength="4.4297" x="208.31" y="1237.8783">&#160;</text><ellipse cx="199.31" cy="1250.5755" fill="#000000" rx="3" ry="3" style="stroke:#000000;stroke-width:1.0;"/><text fill="#000000" font-family="sans-serif" font-size="14" lengthAdjust="spacing" textLength="75.8516" x="208.31" y="1254.3666">type_id: int</text><ellipse cx="199.31" cy="1267.0638" fill="#000000" rx="3" ry="3" style="stroke:#000000;stroke-width:1.0;"/><text fill="#000000" font-family="sans-serif" font-size="14" lengthAdjust="spacing" textLength="87.2607" x="208.31" y="1270.8548">amplifier: int</text><ellipse cx="199.31" cy="1283.5521" fill="#000000" rx="3" ry="3" style="stroke:#000000;stroke-width:1.0;"/><text fill="#000000" font-family="sans-serif" font-size="14" lengthAdjust="spacing" textLength="142.8711" x="208.31" y="1287.3431">duration_in_ticks: int</text></g><!--class server--><g id="elem_server"><rect codeLine="108" fill="#F1F1F1" height="278.8359" id="server" rx="2.5" ry="2.5" style="stroke:#181818;stroke-width:0.5;" width="305.501" x="7" y="676.11"/><ellipse cx="134.7808" cy="692.11" fill="#ADD1B2" rx="11" ry="11" style="stroke:#181818;stroke-width:1.0;"/><path d="M138.895,698.11 L131.1753,698.11 L131.1753,685.7169 L138.895,685.7169 L138.895,687.8751 L133.624,687.8751 L133.624,690.548 L138.397,690.548 L138.397,692.7062 L133.624,692.7062 L133.624,695.9518 L138.895,695.9518 Z " fill="#000000"/><text fill="#000000" font-family="sans-serif" font-size="14" lengthAdjust="spacing" textLength="41.4395" x="155.2808" y="697.401">server</text><line style="stroke:#181818;stroke-width:0.5;" x1="8" x2="311.501" y1="708.11" y2="708.11"/><ellipse cx="18" cy="721.8541" fill="#000000" rx="3" ry="3" style="stroke:#000000;stroke-width:1.0;"/><text fill="#000000" font-family="sans-serif" font-size="14" lengthAdjust="spacing" textLength="51.9531" x="27" y="725.6452">id: uuid</text><text fill="#000000" font-family="sans-serif" font-size="14" lengthAdjust="spacing" textLength="4.4297" x="27" y="742.1334">&#160;</text><line style="stroke:#181818;stroke-width:1.0;" x1="8" x2="311.501" y1="749.0866" y2="749.0866"/><text fill="#000000" font-family="sans-serif" font-size="14" lengthAdjust="spacing" textLength="4.4297" x="27" y="766.6217">&#160;</text><ellipse cx="18" cy="779.319" fill="#000000" rx="3" ry="3" style="stroke:#000000;stroke-width:1.0;"/><text fill="#000000" font-family="sans-serif" font-size="14" lengthAdjust="spacing" textLength="269.4453" x="27" y="783.11">createdAt: timestamp(6) with time zone</text><ellipse cx="18" cy="795.8073" fill="#000000" rx="3" ry="3" style="stroke:#000000;stroke-width:1.0;"/><text fill="#000000" font-family="sans-serif" font-size="14" lengthAdjust="spacing" textLength="279.501" x="27" y="799.5983">modifiedAt: timestamp(6) with time zone</text><text fill="#000000" font-family="sans-serif" font-size="14" lengthAdjust="spacing" textLength="4.4297" x="27" y="816.0866">&#160;</text><ellipse cx="18" cy="828.7838" fill="#000000" rx="3" ry="3" style="stroke:#000000;stroke-width:1.0;"/><text fill="#000000" font-family="sans-serif" font-size="14" lengthAdjust="spacing" textLength="128.6592" x="27" y="832.5748">login: varchar(255)</text><ellipse cx="18" cy="845.2721" fill="#000000" rx="3" ry="3" style="stroke:#000000;stroke-width:1.0;"/><text fill="#000000" font-family="sans-serif" font-size="14" lengthAdjust="spacing" textLength="159.291" x="27" y="849.0631">password: varchar(255)</text><text fill="#000000" font-family="sans-serif" font-size="14" lengthAdjust="spacing" textLength="4.4297" x="27" y="865.5514">&#160;</text><ellipse cx="18" cy="878.2487" fill="#000000" rx="3" ry="3" style="stroke:#000000;stroke-width:1.0;"/><text fill="#000000" font-family="sans-serif" font-size="14" lengthAdjust="spacing" textLength="188.0566" x="27" y="882.0397">avatar_state_group_id: uuid</text><text fill="#000000" font-family="sans-serif" font-size="14" lengthAdjust="spacing" textLength="4.4297" x="27" y="898.528">&#160;</text><text fill="#000000" font-family="sans-serif" font-size="14" lengthAdjust="spacing" textLength="131.8379" x="27" y="915.0163">name: varchar(255)</text><text fill="#000000" font-family="sans-serif" font-size="14" lengthAdjust="spacing" textLength="188.3301" x="27" y="931.5045">description: varchar(65535)</text><text fill="#000000" font-family="sans-serif" font-size="14" lengthAdjust="spacing" textLength="196.2803" x="27" y="947.9928">public_address: varchar(255)</text></g><!--class user--><g id="elem_user"><rect codeLine="126" fill="#F1F1F1" height="509.6719" id="user" rx="2.5" ry="2.5" style="stroke:#181818;stroke-width:0.5;" width="305.501" x="846" y="7"/><ellipse cx="979.8237" cy="23" fill="#ADD1B2" rx="11" ry="11" style="stroke:#181818;stroke-width:1.0;"/><path d="M983.938,29 L976.2183,29 L976.2183,16.6069 L983.938,16.6069 L983.938,18.7651 L978.667,18.7651 L978.667,21.438 L983.4399,21.438 L983.4399,23.5962 L978.667,23.5962 L978.667,26.8418 L983.938,26.8418 Z " fill="#000000"/><text fill="#000000" font-family="sans-serif" font-size="14" lengthAdjust="spacing" textLength="29.3535" x="1000.3237" y="28.291">user</text><line style="stroke:#181818;stroke-width:0.5;" x1="847" x2="1150.501" y1="39" y2="39"/><ellipse cx="857" cy="52.7441" fill="#000000" rx="3" ry="3" style="stroke:#000000;stroke-width:1.0;"/><text fill="#000000" font-family="sans-serif" font-size="14" lengthAdjust="spacing" textLength="51.9531" x="866" y="56.5352">id: uuid</text><text fill="#000000" font-family="sans-serif" font-size="14" lengthAdjust="spacing" textLength="4.4297" x="866" y="73.0234">&#160;</text><line style="stroke:#181818;stroke-width:1.0;" x1="847" x2="1150.501" y1="79.9766" y2="79.9766"/><text fill="#000000" font-family="sans-serif" font-size="14" lengthAdjust="spacing" textLength="4.4297" x="866" y="97.5117">&#160;</text><ellipse cx="857" cy="110.209" fill="#000000" rx="3" ry="3" style="stroke:#000000;stroke-width:1.0;"/><text fill="#000000" font-family="sans-serif" font-size="14" lengthAdjust="spacing" textLength="269.4453" x="866" y="114">createdAt: timestamp(6) with time zone</text><ellipse cx="857" cy="126.6973" fill="#000000" rx="3" ry="3" style="stroke:#000000;stroke-width:1.0;"/><text fill="#000000" font-family="sans-serif" font-size="14" lengthAdjust="spacing" textLength="279.501" x="866" y="130.4883">modifiedAt: timestamp(6) with time zone</text><text fill="#000000" font-family="sans-serif" font-size="14" lengthAdjust="spacing" textLength="4.4297" x="866" y="146.9766">&#160;</text><ellipse cx="857" cy="159.6738" fill="#000000" rx="3" ry="3" style="stroke:#000000;stroke-width:1.0;"/><text fill="#000000" font-family="sans-serif" font-size="14" lengthAdjust="spacing" textLength="128.6592" x="866" y="163.4648">login: varchar(255)</text><ellipse cx="857" cy="176.1621" fill="#000000" rx="3" ry="3" style="stroke:#000000;stroke-width:1.0;"/><text fill="#000000" font-family="sans-serif" font-size="14" lengthAdjust="spacing" textLength="159.291" x="866" y="179.9531">password: varchar(255)</text><text fill="#000000" font-family="sans-serif" font-size="14" lengthAdjust="spacing" textLength="4.4297" x="866" y="196.4414">&#160;</text><ellipse cx="857" cy="209.1387" fill="#000000" rx="3" ry="3" style="stroke:#000000;stroke-width:1.0;"/><text fill="#000000" font-family="sans-serif" font-size="14" lengthAdjust="spacing" textLength="135.7344" x="866" y="212.9297">max_nicknames: int</text><text fill="#000000" font-family="sans-serif" font-size="14" lengthAdjust="spacing" textLength="4.4297" x="866" y="229.418">&#160;</text><ellipse cx="857" cy="242.1152" fill="#000000" rx="3" ry="3" style="stroke:#000000;stroke-width:1.0;"/><text fill="#000000" font-family="sans-serif" font-size="14" lengthAdjust="spacing" textLength="208.7422" x="866" y="245.9063">rights_invites_can_create: bool</text><ellipse cx="857" cy="258.6035" fill="#000000" rx="3" ry="3" style="stroke:#000000;stroke-width:1.0;"/><text fill="#000000" font-family="sans-serif" font-size="14" lengthAdjust="spacing" textLength="197.3467" x="866" y="262.3945">rights_invites_can_read: bool</text><ellipse cx="857" cy="275.0918" fill="#000000" rx="3" ry="3" style="stroke:#000000;stroke-width:1.0;"/><text fill="#000000" font-family="sans-serif" font-size="14" lengthAdjust="spacing" textLength="214.3545" x="866" y="278.8828">rights_invites_can_update: bool</text><ellipse cx="857" cy="291.5801" fill="#000000" rx="3" ry="3" style="stroke:#000000;stroke-width:1.0;"/><text fill="#000000" font-family="sans-serif" font-size="14" lengthAdjust="spacing" textLength="208.7695" x="866" y="295.3711">rights_invites_can_delete: bool</text><text fill="#000000" font-family="sans-serif" font-size="14" lengthAdjust="spacing" textLength="4.4297" x="866" y="311.8594">&#160;</text><ellipse cx="857" cy="324.5566" fill="#000000" rx="3" ry="3" style="stroke:#000000;stroke-width:1.0;"/><text fill="#000000" font-family="sans-serif" font-size="14" lengthAdjust="spacing" textLength="213.1172" x="866" y="328.3477">rights_servers_can_create: bool</text><ellipse cx="857" cy="341.0449" fill="#000000" rx="3" ry="3" style="stroke:#000000;stroke-width:1.0;"/><text fill="#000000" font-family="sans-serif" font-size="14" lengthAdjust="spacing" textLength="201.7217" x="866" y="344.8359">rights_servers_can_read: bool</text><ellipse cx="857" cy="357.5332" fill="#000000" rx="3" ry="3" style="stroke:#000000;stroke-width:1.0;"/><text fill="#000000" font-family="sans-serif" font-size="14" lengthAdjust="spacing" textLength="218.7295" x="866" y="361.3242">rights_servers_can_update: bool</text><ellipse cx="857" cy="374.0215" fill="#000000" rx="3" ry="3" style="stroke:#000000;stroke-width:1.0;"/><text fill="#000000" font-family="sans-serif" font-size="14" lengthAdjust="spacing" textLength="213.1445" x="866" y="377.8125">rights_servers_can_delete: bool</text><text fill="#000000" font-family="sans-serif" font-size="14" lengthAdjust="spacing" textLength="4.4297" x="866" y="394.3008">&#160;</text><ellipse cx="857" cy="406.998" fill="#000000" rx="3" ry="3" style="stroke:#000000;stroke-width:1.0;"/><text fill="#000000" font-family="sans-serif" font-size="14" lengthAdjust="spacing" textLength="201.0313" x="866" y="410.7891">rights_users_can_create: bool</text><ellipse cx="857" cy="423.4863" fill="#000000" rx="3" ry="3" style="stroke:#000000;stroke-width:1.0;"/><text fill="#000000" font-family="sans-serif" font-size="14" lengthAdjust="spacing" textLength="189.6357" x="866" y="427.2773">rights_users_can_read: bool</text><ellipse cx="857" cy="439.9746" fill="#000000" rx="3" ry="3" style="stroke:#000000;stroke-width:1.0;"/><text fill="#000000" font-family="sans-serif" font-size="14" lengthAdjust="spacing" textLength="206.6436" x="866" y="443.7656">rights_users_can_update: bool</text><ellipse cx="857" cy="456.4629" fill="#000000" rx="3" ry="3" style="stroke:#000000;stroke-width:1.0;"/><text fill="#000000" font-family="sans-serif" font-size="14" lengthAdjust="spacing" textLength="201.0586" x="866" y="460.2539">rights_users_can_delete: bool</text><text fill="#000000" font-family="sans-serif" font-size="14" lengthAdjust="spacing" textLength="4.4297" x="866" y="476.7422">&#160;</text><ellipse cx="857" cy="489.4395" fill="#000000" rx="3" ry="3" style="stroke:#000000;stroke-width:1.0;"/><text fill="#000000" font-family="sans-serif" font-size="14" lengthAdjust="spacing" textLength="177.4678" x="866" y="493.2305">is_created_via_invite: bool</text><text fill="#000000" font-family="sans-serif" font-size="14" lengthAdjust="spacing" textLength="106.9482" x="866" y="509.7188">creator_id: uuid</text></g><!--link user to user--><g id="link_user_user"><path codeLine="158" d="M1165.9321,218.5481 C1186.6521,226.7281 1186.5,237.48 1186.5,261.83 C1186.5,286.18 1189.4425,295.8403 1168.7225,304.0203 " fill="none" id="user-user" style="stroke:#181818;stroke-width:1.0;"/><line style="stroke:#181818;stroke-width:1.0;" x1="1162.2115" x2="1151.98" y1="217.0793" y2="213.04"/><ellipse cx="1162.2115" cy="217.0793" fill="none" rx="4" ry="4" style="stroke:#181818;stroke-width:1.0;"/><line style="stroke:#181818;stroke-width:1.0;" x1="1154.2317" x2="1157.1694" y1="218.2294" y2="210.7883"/><line style="stroke:#181818;stroke-width:1.0;" x1="1159.4211" x2="1154.1832" y1="307.6923" y2="316.2108"/><line style="stroke:#181818;stroke-width:1.0;" x1="1159.4211" x2="1149.7768" y1="307.6923" y2="305.0492"/><line style="stroke:#181818;stroke-width:1.0;" x1="1159.4211" x2="1151.98" y1="307.6923" y2="310.63"/><ellipse cx="1165.0019" cy="305.4891" fill="none" rx="4" ry="4" style="stroke:#181818;stroke-width:1.0;"/><text fill="#000000" font-family="sans-serif" font-size="13" lengthAdjust="spacing" textLength="153.645" x="1192.5" y="266.8984">user created other users</text></g><!--link user to nickname--><g id="link_user_nickname"><path codeLine="159" d="M978.4333,524.8245 C972.7633,677.6245 977.05,866.92 1016.75,1037.39 C1024.17,1069.25 1030.0883,1086.2163 1044.0683,1114.3863 " fill="none" id="user-nickname" style="stroke:#181818;stroke-width:1.0;"/><line style="stroke:#181818;stroke-width:1.0;" x1="974.5844" x2="982.5789" y1="520.6789" y2="520.9756"/><line style="stroke:#181818;stroke-width:1.0;" x1="974.4732" x2="982.4677" y1="523.6769" y2="523.9735"/><line style="stroke:#181818;stroke-width:1.0;" x1="978.4333" x2="978.73" y1="524.8245" y2="516.83"/><line style="stroke:#181818;stroke-width:1.0;" x1="1048.5137" x2="1057.4446" y1="1123.3439" y2="1127.8428"/><line style="stroke:#181818;stroke-width:1.0;" x1="1048.5137" x2="1046.6954" y1="1123.3439" y2="1133.1772"/><line style="stroke:#181818;stroke-width:1.0;" x1="1048.5137" x2="1052.07" y1="1123.3439" y2="1130.51"/><ellipse cx="1045.8464" cy="1117.9694" fill="none" rx="4" ry="4" style="stroke:#181818;stroke-width:1.0;"/><text fill="#000000" font-family="sans-serif" font-size="13" lengthAdjust="spacing" textLength="135.5161" x="1017.75" y="820.5984">user owns nicknames</text></g><!--link user to invite--><g id="link_user_invite"><path codeLine="160" d="M1156.0255,529.803 C1171.1055,555.393 1169.5742,552.8107 1184.4242,578.0207 " fill="none" id="user-invite" style="stroke:#181818;stroke-width:1.0;"/><line style="stroke:#181818;stroke-width:1.0;" x1="1153.9947" x2="1148.41" y1="526.3569" y2="516.88"/><ellipse cx="1153.9947" cy="526.3569" fill="none" rx="4" ry="4" style="stroke:#181818;stroke-width:1.0;"/><line style="stroke:#181818;stroke-width:1.0;" x1="1146.9946" x2="1153.8869" y1="522.3569" y2="518.2954"/><line style="stroke:#181818;stroke-width:1.0;" x1="1189.4997" x2="1198.7298" y1="586.637" y2="590.4847"/><line style="stroke:#181818;stroke-width:1.0;" x1="1189.4997" x2="1188.3902" y1="586.637" y2="596.5753"/><line style="stroke:#181818;stroke-width:1.0;" x1="1189.4997" x2="1193.56" y1="586.637" y2="593.53"/><ellipse cx="1186.4544" cy="581.4672" fill="none" rx="4" ry="4" style="stroke:#181818;stroke-width:1.0;"/><text fill="#000000" font-family="sans-serif" font-size="13" lengthAdjust="spacing" textLength="123.2144" x="1171.75" y="560.2384">user created invites</text></g><!--link user to avatar_state--><g id="link_user_avatar_state"><path codeLine="161" d="M840.9853,482.6292 C813.3453,521.1392 799.6255,540.2466 771.8355,578.9666 " fill="none" id="user-avatar_state" style="stroke:#181818;stroke-width:1.0;"/><line style="stroke:#181818;stroke-width:1.0;" x1="840.068" x2="846.5673" y1="477.0473" y2="481.712"/><line style="stroke:#181818;stroke-width:1.0;" x1="838.3187" x2="844.818" y1="479.4845" y2="484.1492"/><line style="stroke:#181818;stroke-width:1.0;" x1="840.9853" x2="845.65" y1="482.6292" y2="476.13"/><line style="stroke:#181818;stroke-width:1.0;" x1="766.0047" x2="766.2145" y1="587.0907" y2="597.0885"/><line style="stroke:#181818;stroke-width:1.0;" x1="766.0047" x2="756.4655" y1="587.0907" y2="590.0915"/><line style="stroke:#181818;stroke-width:1.0;" x1="766.0047" x2="761.34" y1="587.0907" y2="593.59"/><ellipse cx="769.5032" cy="582.2162" fill="none" rx="4" ry="4" style="stroke:#181818;stroke-width:1.0;"/><text fill="#000000" font-family="sans-serif" font-size="13" lengthAdjust="spacing" textLength="137.3188" x="790.75" y="560.2384">user has avatar states</text></g><!--link avatar_state_group to avatar_state--><g id="link_avatar_state_group_avatar_state"><path codeLine="163" d="M398.4145,359.3136 C428.0545,414.7036 462.14,480.58 492.75,546.67 C499.78,561.84 499.6196,561.0873 506.5796,577.0073 " fill="none" id="avatar_state_group-avatar_state" style="stroke:#181818;stroke-width:1.0;"/><line style="stroke:#181818;stroke-width:1.0;" x1="393.0004" x2="400.054" y1="357.674" y2="353.8996"/><line style="stroke:#181818;stroke-width:1.0;" x1="394.4159" x2="401.4695" y1="360.3191" y2="356.5447"/><line style="stroke:#181818;stroke-width:1.0;" x1="398.4145" x2="394.64" y1="359.3136" y2="352.26"/><line style="stroke:#181818;stroke-width:1.0;" x1="510.5854" x2="519.2876" y1="586.1699" y2="591.0965"/><line style="stroke:#181818;stroke-width:1.0;" x1="510.5854" x2="508.2924" y1="586.1699" y2="595.9035"/><line style="stroke:#181818;stroke-width:1.0;" x1="510.5854" x2="513.79" y1="586.1699" y2="593.5"/><ellipse cx="508.1819" cy="580.6723" fill="none" rx="4" ry="4" style="stroke:#181818;stroke-width:1.0;"/><text fill="#000000" font-family="sans-serif" font-size="13" lengthAdjust="spacing" textLength="192.7783" x="500.75" y="560.2384">avatar states belongs to group</text></g><!--link avatar_state_group to server--><g id="link_avatar_state_group_server"><path codeLine="164" d="M313.1039,359.6707 C283.5939,447.1907 246.4911,557.2635 212.2711,658.7535 " fill="none" id="avatar_state_group-server" style="stroke:#181818;stroke-width:1.0;"/><line style="stroke:#181818;stroke-width:1.0;" x1="310.5916" x2="318.1723" y1="354.6023" y2="357.1584"/><line style="stroke:#181818;stroke-width:1.0;" x1="309.6331" x2="317.2138" y1="357.4451" y2="360.0011"/><line style="stroke:#181818;stroke-width:1.0;" x1="313.1039" x2="315.66" y1="359.6707" y2="352.09"/><line style="stroke:#181818;stroke-width:1.0;" x1="209.076" x2="212.2055" y1="668.2293" y2="677.727"/><line style="stroke:#181818;stroke-width:1.0;" x1="209.076" x2="200.8345" y1="668.2293" y2="673.893"/><line style="stroke:#181818;stroke-width:1.0;" x1="209.076" x2="206.52" y1="668.2293" y2="675.81"/><ellipse cx="210.993" cy="662.5438" fill="none" rx="4" ry="4" style="stroke:#181818;stroke-width:1.0;"/><text fill="#000000" font-family="sans-serif" font-size="13" lengthAdjust="spacing" textLength="235.3711" x="248.75" y="560.2384">servers belongs to avatar state group</text></g><!--link avatar_state to potion_effect--><g id="link_avatar_state_potion_effect"><path codeLine="166" d="M341.2751,1027.6265 C313.6051,1050.8765 300.45,1062.81 297.75,1067.39 C289.41,1081.55 287.8549,1080.3467 284.0249,1096.6567 " fill="none" id="avatar_state-potion_effect" style="stroke:#181818;stroke-width:1.0;"/><line style="stroke:#181818;stroke-width:1.0;" x1="341.7643" x2="346.9108" y1="1021.9908" y2="1028.1157"/><line style="stroke:#181818;stroke-width:1.0;" x1="339.4675" x2="344.614" y1="1023.9207" y2="1030.0456"/><line style="stroke:#181818;stroke-width:1.0;" x1="341.2751" x2="347.4" y1="1027.6265" y2="1022.48"/><line style="stroke:#181818;stroke-width:1.0;" x1="281.7389" x2="285.7511" y1="1106.3918" y2="1115.5516"/><line style="stroke:#181818;stroke-width:1.0;" x1="281.7389" x2="274.0689" y1="1106.3918" y2="1112.8084"/><line style="stroke:#181818;stroke-width:1.0;" x1="281.7389" x2="279.91" y1="1106.3918" y2="1114.18"/><ellipse cx="283.1105" cy="1100.5507" fill="none" rx="4" ry="4" style="stroke:#181818;stroke-width:1.0;"/><text fill="#000000" font-family="sans-serif" font-size="13" lengthAdjust="spacing" textLength="203.3281" x="298.75" y="1080.9584">avatar state holds potion effects</text></g><!--link avatar_state to inventory--><g id="link_avatar_state_inventory"><path codeLine="167" d="M505.7934,1045.875 C506.3534,1061.675 508.93,1069.32 514.75,1084.39 C528.22,1119.25 545.9181,1140.3019 570.4581,1161.8919 " fill="none" id="avatar_state-inventory" style="stroke:#181818;stroke-width:1.0;"/><line style="stroke:#181818;stroke-width:1.0;" x1="501.6542" x2="509.6492" y1="1042.0192" y2="1041.7358"/><line style="stroke:#181818;stroke-width:1.0;" x1="501.7605" x2="509.7554" y1="1045.0173" y2="1044.7339"/><line style="stroke:#181818;stroke-width:1.0;" x1="505.7934" x2="505.51" y1="1045.875" y2="1037.88"/><line style="stroke:#181818;stroke-width:1.0;" x1="573.4613" x2="581.72" y1="1164.5341" y2="1171.8"/><ellipse cx="573.4613" cy="1164.5341" fill="none" rx="4" ry="4" style="stroke:#181818;stroke-width:1.0;"/><line style="stroke:#181818;stroke-width:1.0;" x1="581.359" x2="576.0747" y1="1166.1547" y2="1172.161"/><text fill="#000000" font-family="sans-serif" font-size="13" lengthAdjust="spacing" textLength="168.3779" x="515.75" y="1080.9584">avatar state hold inventory</text></g><!--link avatar_state to inventory--><g id="link_avatar_state_inventory"><path codeLine="168" d="M694.1721,1045.7591 C694.4121,1061.4791 692.7,1069.14 688.75,1084.39 C680.47,1116.4 669.8879,1136.5344 654.4079,1159.4844 " fill="none" id="avatar_state-inventory-1" style="stroke:#181818;stroke-width:1.0;"/><line style="stroke:#181818;stroke-width:1.0;" x1="690.1115" x2="698.1106" y1="1041.8206" y2="1041.6985"/><line style="stroke:#181818;stroke-width:1.0;" x1="690.1573" x2="698.1564" y1="1044.8202" y2="1044.6981"/><line style="stroke:#181818;stroke-width:1.0;" x1="694.1721" x2="694.05" y1="1045.7591" y2="1037.76"/><line style="stroke:#181818;stroke-width:1.0;" x1="652.1711" x2="646.02" y1="1162.8006" y2="1171.92"/><ellipse cx="652.1711" cy="1162.8006" fill="none" rx="4" ry="4" style="stroke:#181818;stroke-width:1.0;"/><line style="stroke:#181818;stroke-width:1.0;" x1="651.5729" x2="644.9406" y1="1170.8406" y2="1166.3671"/><text fill="#000000" font-family="sans-serif" font-size="13" lengthAdjust="spacing" textLength="246.1177" x="693.75" y="1080.9584">avatar state hold ender chest inventory</text></g><!--link inventory to item_stack--><g id="link_inventory_item_stack"><path codeLine="170" d="M622.75,1244.85 C622.75,1278.22 622.75,1306.41 622.75,1353.06 " fill="none" id="inventory-item_stack" style="stroke:#181818;stroke-width:1.0;"/><line style="stroke:#181818;stroke-width:1.0;" x1="618.75" x2="626.75" y1="1240.85" y2="1240.85"/><line style="stroke:#181818;stroke-width:1.0;" x1="618.75" x2="626.75" y1="1243.85" y2="1243.85"/><line style="stroke:#181818;stroke-width:1.0;" x1="622.75" x2="622.75" y1="1244.85" y2="1236.85"/><line style="stroke:#181818;stroke-width:1.0;" x1="622.75" x2="628.75" y1="1363.06" y2="1371.06"/><line style="stroke:#181818;stroke-width:1.0;" x1="622.75" x2="616.75" y1="1363.06" y2="1371.06"/><line style="stroke:#181818;stroke-width:1.0;" x1="622.75" x2="622.75" y1="1363.06" y2="1371.06"/><ellipse cx="622.75" cy="1357.06" fill="none" rx="4" ry="4" style="stroke:#181818;stroke-width:1.0;"/><text fill="#000000" font-family="sans-serif" font-size="13" lengthAdjust="spacing" textLength="191.9214" x="623.75" y="1337.8584">inventory contains item stacks</text></g><!--link invite to nickname--><g id="link_invite_nickname"><path codeLine="172" d="M1188.2021,1044.4867 C1168.2821,1077.9967 1160.7863,1090.6071 1144.6663,1117.7171 " fill="none" id="invite-nickname" style="stroke:#181818;stroke-width:1.0;"/><line style="stroke:#181818;stroke-width:1.0;" x1="1186.8077" x2="1193.6844" y1="1039.0044" y2="1043.0923"/><line style="stroke:#181818;stroke-width:1.0;" x1="1185.2748" x2="1192.1515" y1="1041.5832" y2="1045.6711"/><line style="stroke:#181818;stroke-width:1.0;" x1="1188.2021" x2="1192.29" y1="1044.4867" y2="1037.61"/><line style="stroke:#181818;stroke-width:1.0;" x1="1142.622" x2="1137" y1="1121.1552" y2="1130.61"/><ellipse cx="1142.622" cy="1121.1552" fill="none" rx="4" ry="4" style="stroke:#181818;stroke-width:1.0;"/><line style="stroke:#181818;stroke-width:1.0;" x1="1142.4825" x2="1135.6062" y1="1129.2162" y2="1125.1275"/><text fill="#000000" font-family="sans-serif" font-size="13" lengthAdjust="spacing" textLength="189.4521" x="1168.75" y="1080.9584">invite registered for nickname</text></g><!--SRC=[xLP1RziW6BtxLt1BEYs7Taeg-HPrELIQjYbBSqN4V8bHRR00fqdR_VTXZ6ri9tLKQPeghPV6ttiyVy3Z6U2QwICYUwA9n4eJ3UWbGERl4s8qH7dEQ62V9vF0rNC54jTWMTj9aMUuFS9KIGeu5HH213nFnwFvr_NY- -fXkHXzHgExvMA-kb_Rtxz-BkvMyzMFfNruMAxlr_Dleokd4mD9T1mYAl9D0gwu5OBY1FQGX8XnxQg4oNwnLu135g9j8aXLs389cEQIQ2OuPXnh5gboX6DaGZ4B7ZfzrC3n7F1S0muntOZ8h7jFgmQEvu2U5kDxu5h8OtTBW5EpJr4CIkCJfDz10FtDntOZ1oqGIJ1aEjSXqYmrRo1fDfvTeIUcOrj1pu9NlHi3i2qRPbiwDvO9qPx8A2PoV3ETbXwWe2B9ic8v6tGsdNunU3EJUfhz2RH8x0AN_xqfMliPlwaBsPn5ZyMoz8wNPBjOArnEIE68S5ns7QAD4CbvbY7H8KwUqGkKA2HGizeqan9xa4Dj-QnpRVcSystvh3VQAj9hgAc6SwwbXd6-eORJQiTpeeQqE7RHuw0RJnnWXwX45EURmi4FEBxHU7CqksHFouPn8e_Zwnc-lRt5DzVJAbYPwK-acV6Y0jhhhpBUO7SLiJcQrxEh4XHFtFzQDEAPiDa8sor4Ul0D9g1se7kJryUiF1RU1o3Dak8iIh_OIVP75-rDDwLv_cae96B7-8deCnyIejIJaBG3LXFknNTdcTuHgGMUcQyCYp2XjB17Hw1PkSBb7tBTKdB0bN7Rd_h_kVeHSxNWUB5MEWxl6N4Bwz4iADgnP7tyAYOJyL9wEYp_EI4aT6oUxBiTzzLowv1qV1DugYwgbgoxUNI4tRQtH5ltSSUFYN9rPEig24xSt4uBjCQXZRbCyfr2MfJtzZTqN2w6xaThh2_gX5fAbKOxwTlDe5WaL3aAAYdgXCghTxSxeT2WxnXhByh8NfGzdQ0PvERXVQv3Jp8IN1DcDht0aSML7SsQ1ZoJE432ZYaDqXXWAsHD2Fu0]--></g></svg>