<svg xmlns="http://www.w3.org/2000/svg" xmlns:xlink="http://www.w3.org/1999/xlink" contentStyleType="text/css" height="1624px" preserveAspectRatio="none" style="width:1692px;height:1624px;background:#FFFFFF;" version="1.1" viewBox="0 0 1692 1624" width="1692px" zoomAndPan="magnify"><defs/><g><!--class avatar_state--><g id="elem_avatar_state"><rect codeLine="2" fill="#F1F1F1" height="443.7188" id="avatar_state" rx="2.5" ry="2.5" style="stroke:#181818;stroke-width:0.5;" width="509.8887" x="347.81" y="643.14"/><ellipse cx="557.7314" cy="659.14" fill="#ADD1B2" rx="11" ry="11" style="stroke:#181818;stroke-width:1.0;"/><path d="M561.8456,665.14 L554.1259,665.14 L554.1259,652.7469 L561.8456,652.7469 L561.8456,654.9051 L556.5746,654.9051 L556.5746,657.578 L561.3476,657.578 L561.3476,659.7362 L556.5746,659.7362 L556.5746,662.9818 L561.8456,662.9818 Z " fill="#000000"/><text fill="#000000" font-family="sans-serif" font-size="14" lengthAdjust="spacing" textLength="81.5459" x="578.2314" y="664.431">avatar_state</text><line style="stroke:#181818;stroke-width:0.5;" x1="348.81" x2="856.6987" y1="675.14" y2="675.14"/><ellipse cx="358.81" cy="688.8841" fill="#000000" rx="3" ry="3" style="stroke:#000000;stroke-width:1.0;"/><text fill="#000000" font-family="sans-serif" font-size="14" lengthAdjust="spacing" textLength="51.9531" x="367.81" y="692.6752">id: uuid</text><text fill="#000000" font-family="sans-serif" font-size="14" lengthAdjust="spacing" textLength="4.4297" x="367.81" y="709.1634">&#160;</text><line style="stroke:#181818;stroke-width:1.0;" x1="348.81" x2="856.6987" y1="716.1166" y2="716.1166"/><text fill="#000000" font-family="sans-serif" font-size="14" lengthAdjust="spacing" textLength="4.4297" x="367.81" y="733.6517">&#160;</text><ellipse cx="358.81" cy="746.349" fill="#000000" rx="3" ry="3" style="stroke:#000000;stroke-width:1.0;"/><text fill="#000000" font-family="sans-serif" font-size="14" lengthAdjust="spacing" textLength="88.3066" x="367.81" y="750.14">user_id: uuid</text><ellipse cx="358.81" cy="762.8373" fill="#000000" rx="3" ry="3" style="stroke:#000000;stroke-width:1.0;"/><text fill="#000000" font-family="sans-serif" font-size="14" lengthAdjust="spacing" textLength="99.5107" x="367.81" y="766.6283">group_id: uuid</text><text fill="#000000" font-family="sans-serif" font-size="14" lengthAdjust="spacing" textLength="4.4297" x="367.81" y="783.1166">&#160;</text><ellipse cx="358.81" cy="795.8138" fill="#000000" rx="3" ry="3" style="stroke:#000000;stroke-width:1.0;"/><text fill="#000000" font-family="sans-serif" font-size="14" lengthAdjust="spacing" textLength="483.8887" x="367.81" y="799.6048">game_mode: enum('ADVENTURE', 'CREATIVE', 'SPECTATOR', 'SURVIVAL')</text><ellipse cx="358.81" cy="812.3021" fill="#000000" rx="3" ry="3" style="stroke:#000000;stroke-width:1.0;"/><text fill="#000000" font-family="sans-serif" font-size="14" lengthAdjust="spacing" textLength="97.8086" x="367.81" y="816.0931">health: double</text><ellipse cx="358.81" cy="828.7904" fill="#000000" rx="3" ry="3" style="stroke:#000000;stroke-width:1.0;"/><text fill="#000000" font-family="sans-serif" font-size="14" lengthAdjust="spacing" textLength="95.9287" x="367.81" y="832.5814">food_level: int</text><ellipse cx="358.81" cy="845.2787" fill="#000000" rx="3" ry="3" style="stroke:#000000;stroke-width:1.0;"/><text fill="#000000" font-family="sans-serif" font-size="14" lengthAdjust="spacing" textLength="82.2773" x="367.81" y="849.0697">air_level: int</text><ellipse cx="358.81" cy="861.767" fill="#000000" rx="3" ry="3" style="stroke:#000000;stroke-width:1.0;"/><text fill="#000000" font-family="sans-serif" font-size="14" lengthAdjust="spacing" textLength="57.7705" x="367.81" y="865.558">level: int</text><ellipse cx="358.81" cy="878.2552" fill="#000000" rx="3" ry="3" style="stroke:#000000;stroke-width:1.0;"/><text fill="#000000" font-family="sans-serif" font-size="14" lengthAdjust="spacing" textLength="64.8184" x="367.81" y="882.0463">exp: float</text><ellipse cx="358.81" cy="894.7435" fill="#000000" rx="3" ry="3" style="stroke:#000000;stroke-width:1.0;"/><text fill="#000000" font-family="sans-serif" font-size="14" lengthAdjust="spacing" textLength="164.4111" x="367.81" y="898.5345">fire_duration_in_tics: int</text><text fill="#000000" font-family="sans-serif" font-size="14" lengthAdjust="spacing" textLength="4.4297" x="367.81" y="915.0228">&#160;</text><ellipse cx="358.81" cy="927.7201" fill="#000000" rx="3" ry="3" style="stroke:#000000;stroke-width:1.0;"/><text fill="#000000" font-family="sans-serif" font-size="14" lengthAdjust="spacing" textLength="126.3691" x="367.81" y="931.5111">position_x: double</text><ellipse cx="358.81" cy="944.2084" fill="#000000" rx="3" ry="3" style="stroke:#000000;stroke-width:1.0;"/><text fill="#000000" font-family="sans-serif" font-size="14" lengthAdjust="spacing" textLength="125.0977" x="367.81" y="947.9994">position_y: double</text><ellipse cx="358.81" cy="960.6966" fill="#000000" rx="3" ry="3" style="stroke:#000000;stroke-width:1.0;"/><text fill="#000000" font-family="sans-serif" font-size="14" lengthAdjust="spacing" textLength="125.8086" x="367.81" y="964.4877">position_z: double</text><text fill="#000000" font-family="sans-serif" font-size="14" lengthAdjust="spacing" textLength="4.4297" x="367.81" y="980.9759">&#160;</text><ellipse cx="358.81" cy="993.6732" fill="#000000" rx="3" ry="3" style="stroke:#000000;stroke-width:1.0;"/><text fill="#000000" font-family="sans-serif" font-size="14" lengthAdjust="spacing" textLength="122.6641" x="367.81" y="997.4642">velocity_x: double</text><ellipse cx="358.81" cy="1010.1615" fill="#000000" rx="3" ry="3" style="stroke:#000000;stroke-width:1.0;"/><text fill="#000000" font-family="sans-serif" font-size="14" lengthAdjust="spacing" textLength="121.3926" x="367.81" y="1013.9525">velocity_y: double</text><ellipse cx="358.81" cy="1026.6498" fill="#000000" rx="3" ry="3" style="stroke:#000000;stroke-width:1.0;"/><text fill="#000000" font-family="sans-serif" font-size="14" lengthAdjust="spacing" textLength="122.1035" x="367.81" y="1030.4408">velocity_z: double</text><text fill="#000000" font-family="sans-serif" font-size="14" lengthAdjust="spacing" textLength="4.4297" x="367.81" y="1046.9291">&#160;</text><ellipse cx="358.81" cy="1059.6263" fill="#000000" rx="3" ry="3" style="stroke:#000000;stroke-width:1.0;"/><text fill="#000000" font-family="sans-serif" font-size="14" lengthAdjust="spacing" textLength="122.3018" x="367.81" y="1063.4173">inventory_id: uuid</text><ellipse cx="358.81" cy="1076.1146" fill="#000000" rx="3" ry="3" style="stroke:#000000;stroke-width:1.0;"/><text fill="#000000" font-family="sans-serif" font-size="14" lengthAdjust="spacing" textLength="211.1621" x="367.81" y="1079.9056">ender_chest_inventory_id: uuid</text></g><!--class avatar_state_group--><g id="elem_avatar_state_group"><rect codeLine="30" fill="#F1F1F1" height="179.9063" id="avatar_state_group" rx="2.5" ry="2.5" style="stroke:#181818;stroke-width:0.5;" width="305.501" x="240" y="188.37"/><ellipse cx="323.9487" cy="204.37" fill="#ADD1B2" rx="11" ry="11" style="stroke:#181818;stroke-width:1.0;"/><path d="M328.063,210.37 L320.3433,210.37 L320.3433,197.9769 L328.063,197.9769 L328.063,200.1351 L322.792,200.1351 L322.792,202.808 L327.5649,202.808 L327.5649,204.9662 L322.792,204.9662 L322.792,208.2118 L328.063,208.2118 Z " fill="#000000"/><text fill="#000000" font-family="sans-serif" font-size="14" lengthAdjust="spacing" textLength="129.1035" x="344.4487" y="209.661">avatar_state_group</text><line style="stroke:#181818;stroke-width:0.5;" x1="241" x2="544.501" y1="220.37" y2="220.37"/><ellipse cx="251" cy="234.1141" fill="#000000" rx="3" ry="3" style="stroke:#000000;stroke-width:1.0;"/><text fill="#000000" font-family="sans-serif" font-size="14" lengthAdjust="spacing" textLength="51.9531" x="260" y="237.9052">id: uuid</text><text fill="#000000" font-family="sans-serif" font-size="14" lengthAdjust="spacing" textLength="4.4297" x="260" y="254.3934">&#160;</text><line style="stroke:#181818;stroke-width:1.0;" x1="241" x2="544.501" y1="261.3466" y2="261.3466"/><text fill="#000000" font-family="sans-serif" font-size="14" lengthAdjust="spacing" textLength="4.4297" x="260" y="278.8817">&#160;</text><ellipse cx="251" cy="291.579" fill="#000000" rx="3" ry="3" style="stroke:#000000;stroke-width:1.0;"/><text fill="#000000" font-family="sans-serif" font-size="14" lengthAdjust="spacing" textLength="269.4453" x="260" y="295.37">createdAt: timestamp(6) with time zone</text><ellipse cx="251" cy="308.0673" fill="#000000" rx="3" ry="3" style="stroke:#000000;stroke-width:1.0;"/><text fill="#000000" font-family="sans-serif" font-size="14" lengthAdjust="spacing" textLength="279.501" x="260" y="311.8583">modifiedAt: timestamp(6) with time zone</text><text fill="#000000" font-family="sans-serif" font-size="14" lengthAdjust="spacing" textLength="4.4297" x="260" y="328.3466">&#160;</text><text fill="#000000" font-family="sans-serif" font-size="14" lengthAdjust="spacing" textLength="131.8379" x="260" y="344.8348">name: varchar(255)</text><text fill="#000000" font-family="sans-serif" font-size="14" lengthAdjust="spacing" textLength="188.3301" x="260" y="361.3231">description: varchar(65535)</text></g><!--class inventory--><g id="elem_inventory"><rect codeLine="42" fill="#F1F1F1" height="64.4883" id="inventory" rx="2.5" ry="2.5" style="stroke:#181818;stroke-width:0.5;" width="95.3486" x="575.08" y="1238.06"/><ellipse cx="590.08" cy="1254.06" fill="#ADD1B2" rx="11" ry="11" style="stroke:#181818;stroke-width:1.0;"/><path d="M594.1943,1260.06 L586.4745,1260.06 L586.4745,1247.6669 L594.1943,1247.6669 L594.1943,1249.8251 L588.9233,1249.8251 L588.9233,1252.498 L593.6962,1252.498 L593.6962,1254.6562 L588.9233,1254.6562 L588.9233,1257.9018 L594.1943,1257.9018 Z " fill="#000000"/><text fill="#000000" font-family="sans-serif" font-size="14" lengthAdjust="spacing" textLength="63.3486" x="604.08" y="1259.351">inventory</text><line style="stroke:#181818;stroke-width:0.5;" x1="576.08" x2="669.4286" y1="1270.06" y2="1270.06"/><ellipse cx="586.08" cy="1283.8041" fill="#000000" rx="3" ry="3" style="stroke:#000000;stroke-width:1.0;"/><text fill="#000000" font-family="sans-serif" font-size="14" lengthAdjust="spacing" textLength="51.9531" x="595.08" y="1287.5952">id: uuid</text><line style="stroke:#181818;stroke-width:0.5;" x1="576.08" x2="669.4286" y1="1294.5483" y2="1294.5483"/></g><!--class invite--><g id="elem_invite"><rect codeLine="46" fill="#F1F1F1" height="476.6953" id="invite" rx="2.5" ry="2.5" style="stroke:#181818;stroke-width:0.5;" width="514.9404" x="1170.28" y="626.65"/><ellipse cx="1404.968" cy="642.65" fill="#ADD1B2" rx="11" ry="11" style="stroke:#181818;stroke-width:1.0;"/><path d="M1409.0822,648.65 L1401.3625,648.65 L1401.3625,636.2569 L1409.0822,636.2569 L1409.0822,638.4151 L1403.8113,638.4151 L1403.8113,641.088 L1408.5842,641.088 L1408.5842,643.2462 L1403.8113,643.2462 L1403.8113,646.4918 L1409.0822,646.4918 Z " fill="#000000"/><text fill="#000000" font-family="sans-serif" font-size="14" lengthAdjust="spacing" textLength="37.0645" x="1425.468" y="647.941">invite</text><line style="stroke:#181818;stroke-width:0.5;" x1="1171.28" x2="1684.2204" y1="658.65" y2="658.65"/><ellipse cx="1181.28" cy="672.3941" fill="#000000" rx="3" ry="3" style="stroke:#000000;stroke-width:1.0;"/><text fill="#000000" font-family="sans-serif" font-size="14" lengthAdjust="spacing" textLength="51.9531" x="1190.28" y="676.1852">id: uuid</text><text fill="#000000" font-family="sans-serif" font-size="14" lengthAdjust="spacing" textLength="4.4297" x="1190.28" y="692.6734">&#160;</text><line style="stroke:#181818;stroke-width:1.0;" x1="1171.28" x2="1684.2204" y1="699.6266" y2="699.6266"/><text fill="#000000" font-family="sans-serif" font-size="14" lengthAdjust="spacing" textLength="4.4297" x="1190.28" y="717.1617">&#160;</text><ellipse cx="1181.28" cy="729.859" fill="#000000" rx="3" ry="3" style="stroke:#000000;stroke-width:1.0;"/><text fill="#000000" font-family="sans-serif" font-size="14" lengthAdjust="spacing" textLength="269.4453" x="1190.28" y="733.65">createdAt: timestamp(6) with time zone</text><ellipse cx="1181.28" cy="746.3473" fill="#000000" rx="3" ry="3" style="stroke:#000000;stroke-width:1.0;"/><text fill="#000000" font-family="sans-serif" font-size="14" lengthAdjust="spacing" textLength="279.501" x="1190.28" y="750.1383">modifiedAt: timestamp(6) with time zone</text><text fill="#000000" font-family="sans-serif" font-size="14" lengthAdjust="spacing" textLength="4.4297" x="1190.28" y="766.6266">&#160;</text><ellipse cx="1181.28" cy="779.3238" fill="#000000" rx="3" ry="3" style="stroke:#000000;stroke-width:1.0;"/><text fill="#000000" font-family="sans-serif" font-size="14" lengthAdjust="spacing" textLength="269.0762" x="1190.28" y="783.1148">expiresAt: timestamp(6) with time zone</text><text fill="#000000" font-family="sans-serif" font-size="14" lengthAdjust="spacing" textLength="4.4297" x="1190.28" y="799.6031">&#160;</text><ellipse cx="1181.28" cy="812.3004" fill="#000000" rx="3" ry="3" style="stroke:#000000;stroke-width:1.0;"/><text fill="#000000" font-family="sans-serif" font-size="14" lengthAdjust="spacing" textLength="124.332" x="1190.28" y="816.0914">nickname_id: uuid</text><text fill="#000000" font-family="sans-serif" font-size="14" lengthAdjust="spacing" textLength="4.4297" x="1190.28" y="832.5797">&#160;</text><ellipse cx="1181.28" cy="845.277" fill="#000000" rx="3" ry="3" style="stroke:#000000;stroke-width:1.0;"/><text fill="#000000" font-family="sans-serif" font-size="14" lengthAdjust="spacing" textLength="208.7422" x="1190.28" y="849.068">rights_invites_can_create: bool</text><ellipse cx="1181.28" cy="861.7652" fill="#000000" rx="3" ry="3" style="stroke:#000000;stroke-width:1.0;"/><text fill="#000000" font-family="sans-serif" font-size="14" lengthAdjust="spacing" textLength="197.3467" x="1190.28" y="865.5563">rights_invites_can_read: bool</text><ellipse cx="1181.28" cy="878.2535" fill="#000000" rx="3" ry="3" style="stroke:#000000;stroke-width:1.0;"/><text fill="#000000" font-family="sans-serif" font-size="14" lengthAdjust="spacing" textLength="214.3545" x="1190.28" y="882.0445">rights_invites_can_update: bool</text><ellipse cx="1181.28" cy="894.7418" fill="#000000" rx="3" ry="3" style="stroke:#000000;stroke-width:1.0;"/><text fill="#000000" font-family="sans-serif" font-size="14" lengthAdjust="spacing" textLength="208.7695" x="1190.28" y="898.5328">rights_invites_can_delete: bool</text><text fill="#000000" font-family="sans-serif" font-size="14" lengthAdjust="spacing" textLength="4.4297" x="1190.28" y="915.0211">&#160;</text><ellipse cx="1181.28" cy="927.7184" fill="#000000" rx="3" ry="3" style="stroke:#000000;stroke-width:1.0;"/><text fill="#000000" font-family="sans-serif" font-size="14" lengthAdjust="spacing" textLength="213.1172" x="1190.28" y="931.5094">rights_servers_can_create: bool</text><ellipse cx="1181.28" cy="944.2066" fill="#000000" rx="3" ry="3" style="stroke:#000000;stroke-width:1.0;"/><text fill="#000000" font-family="sans-serif" font-size="14" lengthAdjust="spacing" textLength="201.7217" x="1190.28" y="947.9977">rights_servers_can_read: bool</text><ellipse cx="1181.28" cy="960.6949" fill="#000000" rx="3" ry="3" style="stroke:#000000;stroke-width:1.0;"/><text fill="#000000" font-family="sans-serif" font-size="14" lengthAdjust="spacing" textLength="218.7295" x="1190.28" y="964.4859">rights_servers_can_update: bool</text><ellipse cx="1181.28" cy="977.1832" fill="#000000" rx="3" ry="3" style="stroke:#000000;stroke-width:1.0;"/><text fill="#000000" font-family="sans-serif" font-size="14" lengthAdjust="spacing" textLength="213.1445" x="1190.28" y="980.9742">rights_servers_can_delete: bool</text><text fill="#000000" font-family="sans-serif" font-size="14" lengthAdjust="spacing" textLength="4.4297" x="1190.28" y="997.4625">&#160;</text><ellipse cx="1181.28" cy="1010.1598" fill="#000000" rx="3" ry="3" style="stroke:#000000;stroke-width:1.0;"/><text fill="#000000" font-family="sans-serif" font-size="14" lengthAdjust="spacing" textLength="201.0313" x="1190.28" y="1013.9508">rights_users_can_create: bool</text><ellipse cx="1181.28" cy="1026.648" fill="#000000" rx="3" ry="3" style="stroke:#000000;stroke-width:1.0;"/><text fill="#000000" font-family="sans-serif" font-size="14" lengthAdjust="spacing" textLength="189.6357" x="1190.28" y="1030.4391">rights_users_can_read: bool</text><ellipse cx="1181.28" cy="1043.1363" fill="#000000" rx="3" ry="3" style="stroke:#000000;stroke-width:1.0;"/><text fill="#000000" font-family="sans-serif" font-size="14" lengthAdjust="spacing" textLength="206.6436" x="1190.28" y="1046.9273">rights_users_can_update: bool</text><ellipse cx="1181.28" cy="1059.6246" fill="#000000" rx="3" ry="3" style="stroke:#000000;stroke-width:1.0;"/><text fill="#000000" font-family="sans-serif" font-size="14" lengthAdjust="spacing" textLength="201.0586" x="1190.28" y="1063.4156">rights_users_can_delete: bool</text><text fill="#000000" font-family="sans-serif" font-size="14" lengthAdjust="spacing" textLength="4.4297" x="1190.28" y="1079.9039">&#160;</text><ellipse cx="1181.28" cy="1092.6012" fill="#000000" rx="3" ry="3" style="stroke:#000000;stroke-width:1.0;"/><text fill="#000000" font-family="sans-serif" font-size="14" lengthAdjust="spacing" textLength="488.9404" x="1190.28" y="1096.3922">op_level: enum('ADMIN', 'ALL', 'GAME_MASTER', 'MODERATOR', 'OWNER')</text></g><!--class item_stack--><g id="elem_item_stack"><rect codeLine="76" fill="#F1F1F1" height="179.9063" id="item_stack" rx="2.5" ry="2.5" style="stroke:#181818;stroke-width:0.5;" width="257.8477" x="493.83" y="1437.25"/><ellipse cx="582.1982" cy="1453.25" fill="#ADD1B2" rx="11" ry="11" style="stroke:#181818;stroke-width:1.0;"/><path d="M586.3124,1459.25 L578.5927,1459.25 L578.5927,1446.8569 L586.3124,1446.8569 L586.3124,1449.0151 L581.0414,1449.0151 L581.0414,1451.688 L585.8144,1451.688 L585.8144,1453.8462 L581.0414,1453.8462 L581.0414,1457.0918 L586.3124,1457.0918 Z " fill="#000000"/><text fill="#000000" font-family="sans-serif" font-size="14" lengthAdjust="spacing" textLength="72.6113" x="602.6982" y="1458.541">item_stack</text><line style="stroke:#181818;stroke-width:0.5;" x1="494.83" x2="750.6777" y1="1469.25" y2="1469.25"/><ellipse cx="504.83" cy="1482.9941" fill="#000000" rx="3" ry="3" style="stroke:#000000;stroke-width:1.0;"/><text fill="#000000" font-family="sans-serif" font-size="14" lengthAdjust="spacing" textLength="51.9531" x="513.83" y="1486.7852">id: uuid</text><text fill="#000000" font-family="sans-serif" font-size="14" lengthAdjust="spacing" textLength="4.4297" x="513.83" y="1503.2734">&#160;</text><line style="stroke:#181818;stroke-width:1.0;" x1="494.83" x2="750.6777" y1="1510.2266" y2="1510.2266"/><text fill="#000000" font-family="sans-serif" font-size="14" lengthAdjust="spacing" textLength="4.4297" x="513.83" y="1527.7617">&#160;</text><ellipse cx="504.83" cy="1540.459" fill="#000000" rx="3" ry="3" style="stroke:#000000;stroke-width:1.0;"/><text fill="#000000" font-family="sans-serif" font-size="14" lengthAdjust="spacing" textLength="122.3018" x="513.83" y="1544.25">inventory_id: uuid</text><text fill="#000000" font-family="sans-serif" font-size="14" lengthAdjust="spacing" textLength="4.4297" x="513.83" y="1560.7383">&#160;</text><ellipse cx="504.83" cy="1573.4355" fill="#000000" rx="3" ry="3" style="stroke:#000000;stroke-width:1.0;"/><text fill="#000000" font-family="sans-serif" font-size="14" lengthAdjust="spacing" textLength="96.7832" x="513.83" y="1577.2266">slot_index: int</text><ellipse cx="504.83" cy="1589.9238" fill="#000000" rx="3" ry="3" style="stroke:#000000;stroke-width:1.0;"/><text fill="#000000" font-family="sans-serif" font-size="14" lengthAdjust="spacing" textLength="231.8477" x="513.83" y="1593.7148">nbt_bytes: varbinary(16_777_215)</text><ellipse cx="504.83" cy="1606.4121" fill="#000000" rx="3" ry="3" style="stroke:#000000;stroke-width:1.0;"/><text fill="#000000" font-family="sans-serif" font-size="14" lengthAdjust="spacing" textLength="139.166" x="513.83" y="1610.2031">is_compressed: bool</text></g><!--class nickname--><g id="elem_nickname"><rect codeLine="88" fill="#F1F1F1" height="146.9297" id="nickname" rx="2.5" ry="2.5" style="stroke:#181818;stroke-width:0.5;" width="177.0742" x="1031.21" y="1196.84"/><ellipse cx="1082.8077" cy="1212.84" fill="#ADD1B2" rx="11" ry="11" style="stroke:#181818;stroke-width:1.0;"/><path d="M1086.9219,1218.84 L1079.2022,1218.84 L1079.2022,1206.4469 L1086.9219,1206.4469 L1086.9219,1208.6051 L1081.6509,1208.6051 L1081.6509,1211.278 L1086.4239,1211.278 L1086.4239,1213.4362 L1081.6509,1213.4362 L1081.6509,1216.6818 L1086.9219,1216.6818 Z " fill="#000000"/><text fill="#000000" font-family="sans-serif" font-size="14" lengthAdjust="spacing" textLength="65.3789" x="1103.3077" y="1218.131">nickname</text><line style="stroke:#181818;stroke-width:0.5;" x1="1032.21" x2="1207.2842" y1="1228.84" y2="1228.84"/><ellipse cx="1042.21" cy="1242.5841" fill="#000000" rx="3" ry="3" style="stroke:#000000;stroke-width:1.0;"/><text fill="#000000" font-family="sans-serif" font-size="14" lengthAdjust="spacing" textLength="51.9531" x="1051.21" y="1246.3752">id: uuid</text><text fill="#000000" font-family="sans-serif" font-size="14" lengthAdjust="spacing" textLength="4.4297" x="1051.21" y="1262.8634">&#160;</text><line style="stroke:#181818;stroke-width:1.0;" x1="1032.21" x2="1207.2842" y1="1269.8166" y2="1269.8166"/><text fill="#000000" font-family="sans-serif" font-size="14" lengthAdjust="spacing" textLength="4.4297" x="1051.21" y="1287.3517">&#160;</text><ellipse cx="1042.21" cy="1300.049" fill="#000000" rx="3" ry="3" style="stroke:#000000;stroke-width:1.0;"/><text fill="#000000" font-family="sans-serif" font-size="14" lengthAdjust="spacing" textLength="151.0742" x="1051.21" y="1303.84">nickname: varchar(16)</text><text fill="#000000" font-family="sans-serif" font-size="14" lengthAdjust="spacing" textLength="4.4297" x="1051.21" y="1320.3283">&#160;</text><text fill="#000000" font-family="sans-serif" font-size="14" lengthAdjust="spacing" textLength="100.5566" x="1051.21" y="1336.8166">owner_id: uuid</text></g><!--class potion_effect--><g id="elem_potion_effect"><rect codeLine="98" fill="#F1F1F1" height="179.9063" id="potion_effect" rx="2.5" ry="2.5" style="stroke:#181818;stroke-width:0.5;" width="168.8711" x="188.31" y="1180.35"/><ellipse cx="224.7241" cy="1196.35" fill="#ADD1B2" rx="11" ry="11" style="stroke:#181818;stroke-width:1.0;"/><path d="M228.8384,1202.35 L221.1186,1202.35 L221.1186,1189.9569 L228.8384,1189.9569 L228.8384,1192.1151 L223.5674,1192.1151 L223.5674,1194.788 L228.3403,1194.788 L228.3403,1196.9462 L223.5674,1196.9462 L223.5674,1200.1918 L228.8384,1200.1918 Z " fill="#000000"/><text fill="#000000" font-family="sans-serif" font-size="14" lengthAdjust="spacing" textLength="89.2842" x="243.4828" y="1201.641">potion_effect</text><line style="stroke:#181818;stroke-width:0.5;" x1="189.31" x2="356.1811" y1="1212.35" y2="1212.35"/><ellipse cx="199.31" cy="1226.0941" fill="#000000" rx="3" ry="3" style="stroke:#000000;stroke-width:1.0;"/><text fill="#000000" font-family="sans-serif" font-size="14" lengthAdjust="spacing" textLength="51.9531" x="208.31" y="1229.8852">id: uuid</text><text fill="#000000" font-family="sans-serif" font-size="14" lengthAdjust="spacing" textLength="4.4297" x="208.31" y="1246.3734">&#160;</text><line style="stroke:#181818;stroke-width:1.0;" x1="189.31" x2="356.1811" y1="1253.3266" y2="1253.3266"/><text fill="#000000" font-family="sans-serif" font-size="14" lengthAdjust="spacing" textLength="4.4297" x="208.31" y="1270.8617">&#160;</text><ellipse cx="199.31" cy="1283.559" fill="#000000" rx="3" ry="3" style="stroke:#000000;stroke-width:1.0;"/><text fill="#000000" font-family="sans-serif" font-size="14" lengthAdjust="spacing" textLength="99.415" x="208.31" y="1287.35">target_id: uuid</text><text fill="#000000" font-family="sans-serif" font-size="14" lengthAdjust="spacing" textLength="4.4297" x="208.31" y="1303.8383">&#160;</text><ellipse cx="199.31" cy="1316.5355" fill="#000000" rx="3" ry="3" style="stroke:#000000;stroke-width:1.0;"/><text fill="#000000" font-family="sans-serif" font-size="14" lengthAdjust="spacing" textLength="75.8516" x="208.31" y="1320.3266">type_id: int</text><ellipse cx="199.31" cy="1333.0238" fill="#000000" rx="3" ry="3" style="stroke:#000000;stroke-width:1.0;"/><text fill="#000000" font-family="sans-serif" font-size="14" lengthAdjust="spacing" textLength="87.2607" x="208.31" y="1336.8148">amplifier: int</text><ellipse cx="199.31" cy="1349.5121" fill="#000000" rx="3" ry="3" style="stroke:#000000;stroke-width:1.0;"/><text fill="#000000" font-family="sans-serif" font-size="14" lengthAdjust="spacing" textLength="142.8711" x="208.31" y="1353.3031">duration_in_ticks: int</text></g><!--class server--><g id="elem_server"><rect codeLine="110" fill="#F1F1F1" height="278.8359" id="server" rx="2.5" ry="2.5" style="stroke:#181818;stroke-width:0.5;" width="305.501" x="7" y="725.58"/><ellipse cx="134.7808" cy="741.58" fill="#ADD1B2" rx="11" ry="11" style="stroke:#181818;stroke-width:1.0;"/><path d="M138.895,747.58 L131.1753,747.58 L131.1753,735.1869 L138.895,735.1869 L138.895,737.3451 L133.624,737.3451 L133.624,740.018 L138.397,740.018 L138.397,742.1762 L133.624,742.1762 L133.624,745.4218 L138.895,745.4218 Z " fill="#000000"/><text fill="#000000" font-family="sans-serif" font-size="14" lengthAdjust="spacing" textLength="41.4395" x="155.2808" y="746.871">server</text><line style="stroke:#181818;stroke-width:0.5;" x1="8" x2="311.501" y1="757.58" y2="757.58"/><ellipse cx="18" cy="771.3241" fill="#000000" rx="3" ry="3" style="stroke:#000000;stroke-width:1.0;"/><text fill="#000000" font-family="sans-serif" font-size="14" lengthAdjust="spacing" textLength="51.9531" x="27" y="775.1152">id: uuid</text><text fill="#000000" font-family="sans-serif" font-size="14" lengthAdjust="spacing" textLength="4.4297" x="27" y="791.6034">&#160;</text><line style="stroke:#181818;stroke-width:1.0;" x1="8" x2="311.501" y1="798.5566" y2="798.5566"/><text fill="#000000" font-family="sans-serif" font-size="14" lengthAdjust="spacing" textLength="4.4297" x="27" y="816.0917">&#160;</text><ellipse cx="18" cy="828.789" fill="#000000" rx="3" ry="3" style="stroke:#000000;stroke-width:1.0;"/><text fill="#000000" font-family="sans-serif" font-size="14" lengthAdjust="spacing" textLength="269.4453" x="27" y="832.58">createdAt: timestamp(6) with time zone</text><ellipse cx="18" cy="845.2773" fill="#000000" rx="3" ry="3" style="stroke:#000000;stroke-width:1.0;"/><text fill="#000000" font-family="sans-serif" font-size="14" lengthAdjust="spacing" textLength="279.501" x="27" y="849.0683">modifiedAt: timestamp(6) with time zone</text><text fill="#000000" font-family="sans-serif" font-size="14" lengthAdjust="spacing" textLength="4.4297" x="27" y="865.5566">&#160;</text><ellipse cx="18" cy="878.2538" fill="#000000" rx="3" ry="3" style="stroke:#000000;stroke-width:1.0;"/><text fill="#000000" font-family="sans-serif" font-size="14" lengthAdjust="spacing" textLength="128.6592" x="27" y="882.0448">login: varchar(255)</text><ellipse cx="18" cy="894.7421" fill="#000000" rx="3" ry="3" style="stroke:#000000;stroke-width:1.0;"/><text fill="#000000" font-family="sans-serif" font-size="14" lengthAdjust="spacing" textLength="159.291" x="27" y="898.5331">password: varchar(255)</text><text fill="#000000" font-family="sans-serif" font-size="14" lengthAdjust="spacing" textLength="4.4297" x="27" y="915.0214">&#160;</text><ellipse cx="18" cy="927.7187" fill="#000000" rx="3" ry="3" style="stroke:#000000;stroke-width:1.0;"/><text fill="#000000" font-family="sans-serif" font-size="14" lengthAdjust="spacing" textLength="188.0566" x="27" y="931.5097">avatar_state_group_id: uuid</text><text fill="#000000" font-family="sans-serif" font-size="14" lengthAdjust="spacing" textLength="4.4297" x="27" y="947.998">&#160;</text><text fill="#000000" font-family="sans-serif" font-size="14" lengthAdjust="spacing" textLength="131.8379" x="27" y="964.4863">name: varchar(255)</text><text fill="#000000" font-family="sans-serif" font-size="14" lengthAdjust="spacing" textLength="188.3301" x="27" y="980.9745">description: varchar(65535)</text><text fill="#000000" font-family="sans-serif" font-size="14" lengthAdjust="spacing" textLength="196.2803" x="27" y="997.4628">public_address: varchar(255)</text></g><!--class user--><g id="elem_user"><rect codeLine="128" fill="#F1F1F1" height="542.6484" id="user" rx="2.5" ry="2.5" style="stroke:#181818;stroke-width:0.5;" width="514.9404" x="741.28" y="7"/><ellipse cx="979.8235" cy="23" fill="#ADD1B2" rx="11" ry="11" style="stroke:#181818;stroke-width:1.0;"/><path d="M983.9377,29 L976.218,29 L976.218,16.6069 L983.9377,16.6069 L983.9377,18.7651 L978.6667,18.7651 L978.6667,21.438 L983.4397,21.438 L983.4397,23.5962 L978.6667,23.5962 L978.6667,26.8418 L983.9377,26.8418 Z " fill="#000000"/><text fill="#000000" font-family="sans-serif" font-size="14" lengthAdjust="spacing" textLength="29.3535" x="1000.3235" y="28.291">user</text><line style="stroke:#181818;stroke-width:0.5;" x1="742.28" x2="1255.2204" y1="39" y2="39"/><ellipse cx="752.28" cy="52.7441" fill="#000000" rx="3" ry="3" style="stroke:#000000;stroke-width:1.0;"/><text fill="#000000" font-family="sans-serif" font-size="14" lengthAdjust="spacing" textLength="51.9531" x="761.28" y="56.5352">id: uuid</text><text fill="#000000" font-family="sans-serif" font-size="14" lengthAdjust="spacing" textLength="4.4297" x="761.28" y="73.0234">&#160;</text><line style="stroke:#181818;stroke-width:1.0;" x1="742.28" x2="1255.2204" y1="79.9766" y2="79.9766"/><text fill="#000000" font-family="sans-serif" font-size="14" lengthAdjust="spacing" textLength="4.4297" x="761.28" y="97.5117">&#160;</text><ellipse cx="752.28" cy="110.209" fill="#000000" rx="3" ry="3" style="stroke:#000000;stroke-width:1.0;"/><text fill="#000000" font-family="sans-serif" font-size="14" lengthAdjust="spacing" textLength="269.4453" x="761.28" y="114">createdAt: timestamp(6) with time zone</text><ellipse cx="752.28" cy="126.6973" fill="#000000" rx="3" ry="3" style="stroke:#000000;stroke-width:1.0;"/><text fill="#000000" font-family="sans-serif" font-size="14" lengthAdjust="spacing" textLength="279.501" x="761.28" y="130.4883">modifiedAt: timestamp(6) with time zone</text><text fill="#000000" font-family="sans-serif" font-size="14" lengthAdjust="spacing" textLength="4.4297" x="761.28" y="146.9766">&#160;</text><ellipse cx="752.28" cy="159.6738" fill="#000000" rx="3" ry="3" style="stroke:#000000;stroke-width:1.0;"/><text fill="#000000" font-family="sans-serif" font-size="14" lengthAdjust="spacing" textLength="128.6592" x="761.28" y="163.4648">login: varchar(255)</text><ellipse cx="752.28" cy="176.1621" fill="#000000" rx="3" ry="3" style="stroke:#000000;stroke-width:1.0;"/><text fill="#000000" font-family="sans-serif" font-size="14" lengthAdjust="spacing" textLength="159.291" x="761.28" y="179.9531">password: varchar(255)</text><text fill="#000000" font-family="sans-serif" font-size="14" lengthAdjust="spacing" textLength="4.4297" x="761.28" y="196.4414">&#160;</text><ellipse cx="752.28" cy="209.1387" fill="#000000" rx="3" ry="3" style="stroke:#000000;stroke-width:1.0;"/><text fill="#000000" font-family="sans-serif" font-size="14" lengthAdjust="spacing" textLength="135.7344" x="761.28" y="212.9297">max_nicknames: int</text><text fill="#000000" font-family="sans-serif" font-size="14" lengthAdjust="spacing" textLength="4.4297" x="761.28" y="229.418">&#160;</text><ellipse cx="752.28" cy="242.1152" fill="#000000" rx="3" ry="3" style="stroke:#000000;stroke-width:1.0;"/><text fill="#000000" font-family="sans-serif" font-size="14" lengthAdjust="spacing" textLength="208.7422" x="761.28" y="245.9063">rights_invites_can_create: bool</text><ellipse cx="752.28" cy="258.6035" fill="#000000" rx="3" ry="3" style="stroke:#000000;stroke-width:1.0;"/><text fill="#000000" font-family="sans-serif" font-size="14" lengthAdjust="spacing" textLength="197.3467" x="761.28" y="262.3945">rights_invites_can_read: bool</text><ellipse cx="752.28" cy="275.0918" fill="#000000" rx="3" ry="3" style="stroke:#000000;stroke-width:1.0;"/><text fill="#000000" font-family="sans-serif" font-size="14" lengthAdjust="spacing" textLength="214.3545" x="761.28" y="278.8828">rights_invites_can_update: bool</text><ellipse cx="752.28" cy="291.5801" fill="#000000" rx="3" ry="3" style="stroke:#000000;stroke-width:1.0;"/><text fill="#000000" font-family="sans-serif" font-size="14" lengthAdjust="spacing" textLength="208.7695" x="761.28" y="295.3711">rights_invites_can_delete: bool</text><text fill="#000000" font-family="sans-serif" font-size="14" lengthAdjust="spacing" textLength="4.4297" x="761.28" y="311.8594">&#160;</text><ellipse cx="752.28" cy="324.5566" fill="#000000" rx="3" ry="3" style="stroke:#000000;stroke-width:1.0;"/><text fill="#000000" font-family="sans-serif" font-size="14" lengthAdjust="spacing" textLength="213.1172" x="761.28" y="328.3477">rights_servers_can_create: bool</text><ellipse cx="752.28" cy="341.0449" fill="#000000" rx="3" ry="3" style="stroke:#000000;stroke-width:1.0;"/><text fill="#000000" font-family="sans-serif" font-size="14" lengthAdjust="spacing" textLength="201.7217" x="761.28" y="344.8359">rights_servers_can_read: bool</text><ellipse cx="752.28" cy="357.5332" fill="#000000" rx="3" ry="3" style="stroke:#000000;stroke-width:1.0;"/><text fill="#000000" font-family="sans-serif" font-size="14" lengthAdjust="spacing" textLength="218.7295" x="761.28" y="361.3242">rights_servers_can_update: bool</text><ellipse cx="752.28" cy="374.0215" fill="#000000" rx="3" ry="3" style="stroke:#000000;stroke-width:1.0;"/><text fill="#000000" font-family="sans-serif" font-size="14" lengthAdjust="spacing" textLength="213.1445" x="761.28" y="377.8125">rights_servers_can_delete: bool</text><text fill="#000000" font-family="sans-serif" font-size="14" lengthAdjust="spacing" textLength="4.4297" x="761.28" y="394.3008">&#160;</text><ellipse cx="752.28" cy="406.998" fill="#000000" rx="3" ry="3" style="stroke:#000000;stroke-width:1.0;"/><text fill="#000000" font-family="sans-serif" font-size="14" lengthAdjust="spacing" textLength="201.0313" x="761.28" y="410.7891">rights_users_can_create: bool</text><ellipse cx="752.28" cy="423.4863" fill="#000000" rx="3" ry="3" style="stroke:#000000;stroke-width:1.0;"/><text fill="#000000" font-family="sans-serif" font-size="14" lengthAdjust="spacing" textLength="189.6357" x="761.28" y="427.2773">rights_users_can_read: bool</text><ellipse cx="752.28" cy="439.9746" fill="#000000" rx="3" ry="3" style="stroke:#000000;stroke-width:1.0;"/><text fill="#000000" font-family="sans-serif" font-size="14" lengthAdjust="spacing" textLength="206.6436" x="761.28" y="443.7656">rights_users_can_update: bool</text><ellipse cx="752.28" cy="456.4629" fill="#000000" rx="3" ry="3" style="stroke:#000000;stroke-width:1.0;"/><text fill="#000000" font-family="sans-serif" font-size="14" lengthAdjust="spacing" textLength="201.0586" x="761.28" y="460.2539">rights_users_can_delete: bool</text><text fill="#000000" font-family="sans-serif" font-size="14" lengthAdjust="spacing" textLength="4.4297" x="761.28" y="476.7422">&#160;</text><ellipse cx="752.28" cy="489.4395" fill="#000000" rx="3" ry="3" style="stroke:#000000;stroke-width:1.0;"/><text fill="#000000" font-family="sans-serif" font-size="14" lengthAdjust="spacing" textLength="488.9404" x="761.28" y="493.2305">op_level: enum('ADMIN', 'ALL', 'GAME_MASTER', 'MODERATOR', 'OWNER')</text><text fill="#000000" font-family="sans-serif" font-size="14" lengthAdjust="spacing" textLength="4.4297" x="761.28" y="509.7188">&#160;</text><ellipse cx="752.28" cy="522.416" fill="#000000" rx="3" ry="3" style="stroke:#000000;stroke-width:1.0;"/><text fill="#000000" font-family="sans-serif" font-size="14" lengthAdjust="spacing" textLength="177.4678" x="761.28" y="526.207">is_created_via_invite: bool</text><text fill="#000000" font-family="sans-serif" font-size="14" lengthAdjust="spacing" textLength="106.9482" x="761.28" y="542.6953">creator_id: uuid</text></g><!--link user to user--><g id="link_user_user"><path codeLine="162" d="M1270.0792,239.5847 C1291.5492,249.2447 1291.22,258.06 1291.22,278.33 C1291.22,298.6 1294.285,306.1844 1272.815,315.8444 " fill="none" id="user-user" style="stroke:#181818;stroke-width:1.0;"/><line style="stroke:#181818;stroke-width:1.0;" x1="1266.4314" x2="1256.4" y1="237.9434" y2="233.43"/><ellipse cx="1266.4314" cy="237.9434" fill="none" rx="4" ry="4" style="stroke:#181818;stroke-width:1.0;"/><line style="stroke:#181818;stroke-width:1.0;" x1="1258.4065" x2="1261.689" y1="238.719" y2="231.4235"/><line style="stroke:#181818;stroke-width:1.0;" x1="1263.6956" x2="1258.8619" y1="319.9475" y2="328.7017"/><line style="stroke:#181818;stroke-width:1.0;" x1="1263.6956" x2="1253.9381" y1="319.9475" y2="317.7583"/><line style="stroke:#181818;stroke-width:1.0;" x1="1263.6956" x2="1256.4" y1="319.9475" y2="323.23"/><ellipse cx="1269.1672" cy="317.4856" fill="none" rx="4" ry="4" style="stroke:#181818;stroke-width:1.0;"/><text fill="#000000" font-family="sans-serif" font-size="13" lengthAdjust="spacing" textLength="153.645" x="1297.22" y="283.3984">user created other users</text></g><!--link user to nickname--><g id="link_user_nickname"><path codeLine="163" d="M968.0328,557.7863 C958.4628,721.3763 962.26,924.25 1015.75,1103.35 C1025.58,1136.25 1033.8192,1154.0773 1052.3292,1181.6973 " fill="none" id="user-nickname" style="stroke:#181818;stroke-width:1.0;"/><line style="stroke:#181818;stroke-width:1.0;" x1="964.2732" x2="972.2596" y1="553.5596" y2="554.0268"/><line style="stroke:#181818;stroke-width:1.0;" x1="964.098" x2="972.0844" y1="556.5545" y2="557.0217"/><line style="stroke:#181818;stroke-width:1.0;" x1="968.0328" x2="968.5" y1="557.7863" y2="549.8"/><line style="stroke:#181818;stroke-width:1.0;" x1="1057.8963" x2="1067.3342" y1="1190.0044" y2="1193.3097"/><line style="stroke:#181818;stroke-width:1.0;" x1="1057.8963" x2="1057.3658" y1="1190.0044" y2="1199.9903"/><line style="stroke:#181818;stroke-width:1.0;" x1="1057.8963" x2="1062.35" y1="1190.0044" y2="1196.65"/><ellipse cx="1054.556" cy="1185.0201" fill="none" rx="4" ry="4" style="stroke:#181818;stroke-width:1.0;"/><text fill="#000000" font-family="sans-serif" font-size="13" lengthAdjust="spacing" textLength="135.5161" x="1016.75" y="870.0684">user owns nicknames</text></g><!--link user to invite--><g id="link_user_invite"><path codeLine="164" d="M1206.1123,561.9347 C1224.8623,587.4947 1224.2597,586.6789 1242.7697,611.8989 " fill="none" id="user-invite" style="stroke:#181818;stroke-width:1.0;"/><line style="stroke:#181818;stroke-width:1.0;" x1="1203.7464" x2="1197.24" y1="558.7095" y2="549.84"/><ellipse cx="1203.7464" cy="558.7095" fill="none" rx="4" ry="4" style="stroke:#181818;stroke-width:1.0;"/><line style="stroke:#181818;stroke-width:1.0;" x1="1196.3807" x2="1202.8312" y1="555.4312" y2="550.6993"/><line style="stroke:#181818;stroke-width:1.0;" x1="1248.6865" x2="1258.257" y1="619.9606" y2="622.8599"/><line style="stroke:#181818;stroke-width:1.0;" x1="1248.6865" x2="1248.583" y1="619.9606" y2="629.9601"/><line style="stroke:#181818;stroke-width:1.0;" x1="1248.6865" x2="1253.42" y1="619.9606" y2="626.41"/><ellipse cx="1245.1364" cy="615.1236" fill="none" rx="4" ry="4" style="stroke:#181818;stroke-width:1.0;"/><text fill="#000000" font-family="sans-serif" font-size="13" lengthAdjust="spacing" textLength="123.2144" x="1226.75" y="593.2184">user created invites</text></g><!--link user to avatar_state--><g id="link_user_avatar_state"><path codeLine="165" d="M811.0434,556.4634 C789.9834,587.5534 783.2866,597.4583 762.7366,627.7883 " fill="none" id="user-avatar_state" style="stroke:#181818;stroke-width:1.0;"/><line style="stroke:#181818;stroke-width:1.0;" x1="809.975" x2="816.5984" y1="550.9084" y2="555.395"/><line style="stroke:#181818;stroke-width:1.0;" x1="808.2925" x2="814.9159" y1="553.3922" y2="557.8788"/><line style="stroke:#181818;stroke-width:1.0;" x1="811.0434" x2="815.53" y1="556.4634" y2="549.84"/><line style="stroke:#181818;stroke-width:1.0;" x1="757.1274" x2="757.6072" y1="636.067" y2="646.0555"/><line style="stroke:#181818;stroke-width:1.0;" x1="757.1274" x2="747.6728" y1="636.067" y2="639.3245"/><line style="stroke:#181818;stroke-width:1.0;" x1="757.1274" x2="752.64" y1="636.067" y2="642.69"/><ellipse cx="760.4929" cy="631.0998" fill="none" rx="4" ry="4" style="stroke:#181818;stroke-width:1.0;"/><text fill="#000000" font-family="sans-serif" font-size="13" lengthAdjust="spacing" textLength="137.3188" x="790.75" y="593.2184">user has avatar states</text></g><!--link avatar_state_group to avatar_state--><g id="link_avatar_state_group_avatar_state"><path codeLine="167" d="M427.5743,376.2891 C453.7443,449.1491 483.0458,530.7095 517.2658,625.9895 " fill="none" id="avatar_state_group-avatar_state" style="stroke:#181818;stroke-width:1.0;"/><line style="stroke:#181818;stroke-width:1.0;" x1="422.4576" x2="429.9867" y1="373.8767" y2="371.1724"/><line style="stroke:#181818;stroke-width:1.0;" x1="423.4717" x2="431.0008" y1="376.7001" y2="373.9958"/><line style="stroke:#181818;stroke-width:1.0;" x1="427.5743" x2="424.87" y1="376.2891" y2="368.76"/><line style="stroke:#181818;stroke-width:1.0;" x1="520.6459" x2="528.9968" y1="635.4009" y2="640.9019"/><line style="stroke:#181818;stroke-width:1.0;" x1="520.6459" x2="517.7032" y1="635.4009" y2="644.9581"/><line style="stroke:#181818;stroke-width:1.0;" x1="520.6459" x2="523.35" y1="635.4009" y2="642.93"/><ellipse cx="518.6178" cy="629.754" fill="none" rx="4" ry="4" style="stroke:#181818;stroke-width:1.0;"/><text fill="#000000" font-family="sans-serif" font-size="13" lengthAdjust="spacing" textLength="192.7783" x="505.75" y="593.2184">avatar states belongs to group</text></g><!--link avatar_state_group to server--><g id="link_avatar_state_group_server"><path codeLine="168" d="M347.6871,375.8427 C320.4971,435.1727 288.23,507.83 259.75,579.65 C241.09,626.72 228.1659,661.8199 211.9459,708.4299 " fill="none" id="avatar_state_group-server" style="stroke:#181818;stroke-width:1.0;"/><line style="stroke:#181818;stroke-width:1.0;" x1="345.7172" x2="352.9899" y1="370.5399" y2="373.8728"/><line style="stroke:#181818;stroke-width:1.0;" x1="344.4673" x2="351.74" y1="373.2671" y2="376.6"/><line style="stroke:#181818;stroke-width:1.0;" x1="347.6871" x2="351.02" y1="375.8427" y2="368.57"/><line style="stroke:#181818;stroke-width:1.0;" x1="208.6593" x2="211.6967" y1="717.8744" y2="727.402"/><line style="stroke:#181818;stroke-width:1.0;" x1="208.6593" x2="200.3633" y1="717.8744" y2="723.458"/><line style="stroke:#181818;stroke-width:1.0;" x1="208.6593" x2="206.03" y1="717.8744" y2="725.43"/><ellipse cx="210.6313" cy="712.2077" fill="none" rx="4" ry="4" style="stroke:#181818;stroke-width:1.0;"/><text fill="#000000" font-family="sans-serif" font-size="13" lengthAdjust="spacing" textLength="235.3711" x="260.75" y="593.2184">servers belongs to avatar state group</text></g><!--link avatar_state to potion_effect--><g id="link_avatar_state_potion_effect"><path codeLine="170" d="M342.0971,1092.4395 C313.0571,1118.1195 299.15,1130.89 297.75,1133.35 C289.69,1147.54 288.248,1146.2527 284.458,1162.4627 " fill="none" id="avatar_state-potion_effect" style="stroke:#181818;stroke-width:1.0;"/><line style="stroke:#181818;stroke-width:1.0;" x1="342.4438" x2="347.7433" y1="1086.7933" y2="1092.7862"/><line style="stroke:#181818;stroke-width:1.0;" x1="340.1964" x2="345.496" y1="1088.7806" y2="1094.7735"/><line style="stroke:#181818;stroke-width:1.0;" x1="342.0971" x2="348.09" y1="1092.4395" y2="1087.14"/><line style="stroke:#181818;stroke-width:1.0;" x1="282.1813" x2="286.2024" y1="1172.2001" y2="1181.356"/><line style="stroke:#181818;stroke-width:1.0;" x1="282.1813" x2="274.5176" y1="1172.2001" y2="1178.624"/><line style="stroke:#181818;stroke-width:1.0;" x1="282.1813" x2="280.36" y1="1172.2001" y2="1179.99"/><ellipse cx="283.5473" cy="1166.3577" fill="none" rx="4" ry="4" style="stroke:#181818;stroke-width:1.0;"/><text fill="#000000" font-family="sans-serif" font-size="13" lengthAdjust="spacing" textLength="203.3281" x="298.75" y="1146.9184">avatar state holds potion effects</text></g><!--link avatar_state to inventory--><g id="link_avatar_state_inventory"><path codeLine="171" d="M504.4436,1095.0659 C503.7536,1116.5859 506.88,1129.98 514.75,1150.35 C528.22,1185.21 545.9181,1206.2619 570.4581,1227.8519 " fill="none" id="avatar_state-inventory" style="stroke:#181818;stroke-width:1.0;"/><line style="stroke:#181818;stroke-width:1.0;" x1="500.5739" x2="508.5698" y1="1090.9398" y2="1091.1961"/><line style="stroke:#181818;stroke-width:1.0;" x1="500.4777" x2="508.4736" y1="1093.9382" y2="1094.1946"/><line style="stroke:#181818;stroke-width:1.0;" x1="504.4436" x2="504.7" y1="1095.0659" y2="1087.07"/><line style="stroke:#181818;stroke-width:1.0;" x1="573.4613" x2="581.72" y1="1230.4941" y2="1237.76"/><ellipse cx="573.4613" cy="1230.4941" fill="none" rx="4" ry="4" style="stroke:#181818;stroke-width:1.0;"/><line style="stroke:#181818;stroke-width:1.0;" x1="581.359" x2="576.0747" y1="1232.1147" y2="1238.121"/><text fill="#000000" font-family="sans-serif" font-size="13" lengthAdjust="spacing" textLength="168.3779" x="515.75" y="1146.9184">avatar state hold inventory</text></g><!--link avatar_state to inventory--><g id="link_avatar_state_inventory"><path codeLine="172" d="M694.5656,1095.082 C695.9956,1116.392 694.08,1129.75 688.75,1150.35 C680.47,1182.36 669.8879,1202.4944 654.4079,1225.4444 " fill="none" id="avatar_state-inventory-1" style="stroke:#181818;stroke-width:1.0;"/><line style="stroke:#181818;stroke-width:1.0;" x1="690.3068" x2="698.2888" y1="1091.3588" y2="1090.8232"/><line style="stroke:#181818;stroke-width:1.0;" x1="690.5077" x2="698.4897" y1="1094.3521" y2="1093.8165"/><line style="stroke:#181818;stroke-width:1.0;" x1="694.5656" x2="694.03" y1="1095.082" y2="1087.1"/><line style="stroke:#181818;stroke-width:1.0;" x1="652.1711" x2="646.02" y1="1228.7606" y2="1237.88"/><ellipse cx="652.1711" cy="1228.7606" fill="none" rx="4" ry="4" style="stroke:#181818;stroke-width:1.0;"/><line style="stroke:#181818;stroke-width:1.0;" x1="651.5729" x2="644.9406" y1="1236.8006" y2="1232.3271"/><text fill="#000000" font-family="sans-serif" font-size="13" lengthAdjust="spacing" textLength="246.1177" x="693.75" y="1146.9184">avatar state hold ender chest inventory</text></g><!--link inventory to item_stack--><g id="link_inventory_item_stack"><path codeLine="174" d="M622.75,1310.81 C622.75,1344.18 622.75,1372.37 622.75,1419.02 " fill="none" id="inventory-item_stack" style="stroke:#181818;stroke-width:1.0;"/><line style="stroke:#181818;stroke-width:1.0;" x1="618.75" x2="626.75" y1="1306.81" y2="1306.81"/><line style="stroke:#181818;stroke-width:1.0;" x1="618.75" x2="626.75" y1="1309.81" y2="1309.81"/><line style="stroke:#181818;stroke-width:1.0;" x1="622.75" x2="622.75" y1="1310.81" y2="1302.81"/><line style="stroke:#181818;stroke-width:1.0;" x1="622.75" x2="628.75" y1="1429.02" y2="1437.02"/><line style="stroke:#181818;stroke-width:1.0;" x1="622.75" x2="616.75" y1="1429.02" y2="1437.02"/><line style="stroke:#181818;stroke-width:1.0;" x1="622.75" x2="622.75" y1="1429.02" y2="1437.02"/><ellipse cx="622.75" cy="1423.02" fill="none" rx="4" ry="4" style="stroke:#181818;stroke-width:1.0;"/><text fill="#000000" font-family="sans-serif" font-size="13" lengthAdjust="spacing" textLength="191.9214" x="623.75" y="1403.8184">inventory contains item stacks</text></g><!--link invite to nickname--><g id="link_invite_nickname"><path codeLine="176" d="M1241.2833,1110.1671 C1215.5833,1143.8071 1204.9116,1157.7769 1184.3316,1184.7369 " fill="none" id="invite-nickname" style="stroke:#181818;stroke-width:1.0;"/><line style="stroke:#181818;stroke-width:1.0;" x1="1240.5331" x2="1246.8902" y1="1104.5602" y2="1109.4169"/><line style="stroke:#181818;stroke-width:1.0;" x1="1238.7119" x2="1245.069" y1="1106.9441" y2="1111.8008"/><line style="stroke:#181818;stroke-width:1.0;" x1="1241.2833" x2="1246.14" y1="1110.1671" y2="1103.81"/><line style="stroke:#181818;stroke-width:1.0;" x1="1181.9045" x2="1175.23" y1="1187.9164" y2="1196.66"/><ellipse cx="1181.9045" cy="1187.9164" fill="none" rx="4" ry="4" style="stroke:#181818;stroke-width:1.0;"/><line style="stroke:#181818;stroke-width:1.0;" x1="1180.8366" x2="1174.4776" y1="1195.9076" y2="1191.0534"/><text fill="#000000" font-family="sans-serif" font-size="13" lengthAdjust="spacing" textLength="189.4521" x="1219.75" y="1146.9184">invite registered for nickname</text></g><!--SRC=[xLTTRziW57tth-0jwRGyj5DIoMzM6qsLcdPAi-mH4KDYL1iim6dITlzz66CRVwIkAatJjEKbyJs7atlXSi24AQgE0EsHGW9AXHG1BnxGdq-0OXza6SMUUPvCF1lF916m0elOJl0iXSqHEeeI0XEEYGy8ovBnABXUp-zMtvVpqMSmkbhEWzNDsln- -3Q_MWMh-wLv-BvStwo3sz6PrOa8YbNa0yopJKniSCivXZ7PazW7b2aRHLHqWvq0EQG-sCOSbO4j5GJYJ215EOEKGKL3MOomZ9HBQi13AuyAE9u2dYl08ZeR7kfvxsXLmF4KqD6YR4-OukBONXB2i5wdC29ImHxIJyyZtSM7PY47Mo0KH9Dne7oWQAB_0INfU7O6dgYAJ0GySrRchXk0Rkamsz2PRXaVx9488oJ65zDfqGEOo53GD9_E6frDfryqNbTIbTaje46Yx-ZotrUYQJ_TR_ATR4R3ntnQEjjBq5sa92mAaZ1431PP-s33UNoQfKbuY9Eb-1rAcCIaOZLfsYNsH0obvR9EfULoJgVbijv8AtUleQHgpgcKQiRfX6fENpeyBNsgjCR5pLtkVi7jRVxrDLZCuI9uMCsD9oxkh-VBqY3lVzpfQAFp5Kdo7Hm-3ZPsZnTOHCOyjmfC3gvNies2cwDUSBFnDfGXSHoVp-3bvIMyE9-M7arrgJn9TLjBKavPdL_PmuFPbSHwbv_FpWgGFp7tuAd5Ksvibcot95I3_w2zRaTKftXrJ8iTvfmbIHhdsrgumTOXyMXFYJgReW__gB_4V4TPZulgCmb9-SG5Re5bmPsJe3LD7t3d74_rWKL3Y33EswCbKCzSlc7-odbBq06MZTkyDVotw7_SeXrtB1eNxYcow-DaP43UT3Up7LxvPC9VYgtX5rzM270LwITJWkM-6cxbjPQlVLDMGTcGjNUXbh3jdePeumt1yYCaRHoOkFIydhjalq1Z7DZewotRIQ1uyIRnXewrLz_-Q8nrHQrGGwdKQ1uOpMH0n6CiBGKK5DcZykhSDdiKQlG3OytL7PYhkwFZrODi7SwfxpkI8MSAKRteEGuCBireMYVWD8a51DbHgOZG3R3beY9ulm00]--></g></svg>