<?xml version="1.0" encoding="UTF-8" standalone="no"?>
<!DOCTYPE svg PUBLIC "-//W3C//DTD SVG 1.1//EN" "http://www.w3.org/Graphics/SVG/1.1/DTD/svg11.dtd">
<!-- Created with Vectornator (http://vectornator.io/) -->
<svg height="1024.0px" stroke-miterlimit="10" style="fill-rule:nonzero;clip-rule:evenodd;stroke-linecap:round;stroke-linejoin:round;" version="1.1" viewBox="0 0 1024 1024" width="1024.0px" xml:space="preserve" xmlns="http://www.w3.org/2000/svg" xmlns:xlink="http://www.w3.org/1999/xlink">
<defs>
<path d="M305.797 718.203L386.088 569.006L454.994 637.912L305.797 718.203Z" id="Fill"/>
<path d="M757.807 197.287L826.713 266.193L454.994 637.912L386.088 569.006L757.807 197.287Z" id="Fill_2"/>
<path d="M863.094 92L932 160.906L870.736 222.17L801.83 153.264L863.094 92Z" id="Fill_3"/>
</defs>
<clipPath id="ArtboardFrame">
<rect height="1024" width="1024" x="0" y="0"/>
</clipPath>
<g clip-path="url(#ArtboardFrame)" id="Layer-1" visibility="hidden">
<path d="M2.84217e-14 0L1024 0L1024 1024L2.84217e-14 1024L2.84217e-14 0Z" fill="#000000" fill-rule="nonzero" opacity="1" stroke="none"/>
</g>
<g id="Layer-2">
<g opacity="1">
<g opacity="1">
<use fill="#ffffff" fill-rule="nonzero" stroke="none" xlink:href="#Fill"/>
<mask height="165.197" id="StrokeMask" maskUnits="userSpaceOnUse" width="165.197" x="297.797" y="561.006">
<rect fill="#ffffff" height="165.197" stroke="none" width="165.197" x="297.797" y="561.006"/>
<use fill="#000000" fill-rule="evenodd" stroke="none" xlink:href="#Fill"/>
</mask>
<use fill="none" mask="url(#StrokeMask)" stroke="#ffffff" stroke-linecap="round" stroke-linejoin="round" stroke-width="16" xlink:href="#Fill"/>
</g>
<g opacity="1">
<use fill="#ffffff" fill-rule="nonzero" stroke="none" xlink:href="#Fill_2"/>
<mask height="456.624" id="StrokeMask_2" maskUnits="userSpaceOnUse" width="456.624" x="378.088" y="189.287">
<rect fill="#ffffff" height="456.624" stroke="none" width="456.624" x="378.088" y="189.287"/>
<use fill="#000000" fill-rule="evenodd" stroke="none" xlink:href="#Fill_2"/>
</mask>
<use fill="none" mask="url(#StrokeMask_2)" stroke="#ffffff" stroke-linecap="round" stroke-linejoin="round" stroke-width="16" xlink:href="#Fill_2"/>
</g>
<g opacity="1">
<use fill="#ffffff" fill-rule="nonzero" stroke="none" xlink:href="#Fill_3"/>
<mask height="146.17" id="StrokeMask_3" maskUnits="userSpaceOnUse" width="146.17" x="793.83" y="84">
<rect fill="#ffffff" height="146.17" stroke="none" width="146.17" x="793.83" y="84"/>
<use fill="#000000" fill-rule="evenodd" stroke="none" xlink:href="#Fill_3"/>
</mask>
<use fill="none" mask="url(#StrokeMask_3)" stroke="#ffffff" stroke-linecap="round" stroke-linejoin="round" stroke-width="16" xlink:href="#Fill_3"/>
</g>
</g>
<path d="M635.25 247.916C635.463 245.968 187.499 247.916 168.009 247.916C137.313 247.916 92 293.158 92 325.662L92 856.204C92 898.063 125.937 932 167.796 932L698.338 932C740.198 932 774.135 898.063 774.135 856.204L772.186 384.85" fill="none" opacity="1" stroke="#ffffff" stroke-linecap="round" stroke-linejoin="round" stroke-width="32"/>
</g>
</svg>
