<?xml version="1.0" encoding="us-ascii" standalone="no"?><svg xmlns="http://www.w3.org/2000/svg" xmlns:xlink="http://www.w3.org/1999/xlink" contentStyleType="text/css" height="478px" preserveAspectRatio="none" style="width:570px;height:478px;background:#FFFFFF;" version="1.1" viewBox="0 0 570 478" width="570px" zoomAndPan="magnify"><defs/><g><!--cluster POMS--><g id="cluster_POMS"><path d="M27,98.49 L70,98.49 A3.75,3.75 0 0 1 72.5,100.99 L79.5,120.9783 L561,120.9783 A2.5,2.5 0 0 1 563.5,123.4783 L563.5,193.47 A2.5,2.5 0 0 1 561,195.97 L27,195.97 A2.5,2.5 0 0 1 24.5,193.47 L24.5,100.99 A2.5,2.5 0 0 1 27,98.49 " fill="none" style="stroke:#000000;stroke-width:1.5;"/><line style="stroke:#000000;stroke-width:1.5;" x1="24.5" x2="79.5" y1="120.9783" y2="120.9783"/><text fill="#000000" font-family="sans-serif" font-size="14" font-weight="bold" lengthAdjust="spacing" textLength="42" x="28.5" y="114.0252">POMS</text></g><!--entity Server--><g id="elem_Server"><rect fill="#F1F1F1" height="46.4883" rx="2.5" ry="2.5" style="stroke:#181818;stroke-width:0.5;" width="83" x="236" y="133.49"/><rect fill="#F1F1F1" height="10" style="stroke:#181818;stroke-width:0.5;" width="15" x="299" y="138.49"/><rect fill="#F1F1F1" height="2" style="stroke:#181818;stroke-width:0.5;" width="4" x="297" y="140.49"/><rect fill="#F1F1F1" height="2" style="stroke:#181818;stroke-width:0.5;" width="4" x="297" y="144.49"/><text fill="#000000" font-family="sans-serif" font-size="14" lengthAdjust="spacing" textLength="43" x="251" y="167.0252">Server</text></g><!--entity Plugin--><g id="elem_Plugin"><rect fill="#F1F1F1" height="46.4883" rx="2.5" ry="2.5" style="stroke:#181818;stroke-width:0.5;" width="83" x="41" y="133.49"/><rect fill="#F1F1F1" height="10" style="stroke:#181818;stroke-width:0.5;" width="15" x="104" y="138.49"/><rect fill="#F1F1F1" height="2" style="stroke:#181818;stroke-width:0.5;" width="4" x="102" y="140.49"/><rect fill="#F1F1F1" height="2" style="stroke:#181818;stroke-width:0.5;" width="4" x="102" y="144.49"/><text fill="#000000" font-family="sans-serif" font-size="14" lengthAdjust="spacing" textLength="43" x="56" y="167.0252">Plugin</text></g><!--entity Site--><g id="elem_Site"><rect fill="#F1F1F1" height="46.4883" rx="2.5" ry="2.5" style="stroke:#181818;stroke-width:0.5;" width="65" x="482" y="133.49"/><rect fill="#F1F1F1" height="10" style="stroke:#181818;stroke-width:0.5;" width="15" x="527" y="138.49"/><rect fill="#F1F1F1" height="2" style="stroke:#181818;stroke-width:0.5;" width="4" x="525" y="140.49"/><rect fill="#F1F1F1" height="2" style="stroke:#181818;stroke-width:0.5;" width="4" x="525" y="144.49"/><text fill="#000000" font-family="sans-serif" font-size="14" lengthAdjust="spacing" textLength="25" x="497" y="167.0252">Site</text></g><!--entity Database--><g id="elem_Database"><path d="M183,16 C183,6 215.5,6 215.5,6 C215.5,6 248,6 248,16 L248,41.4883 C248,51.4883 215.5,51.4883 215.5,51.4883 C215.5,51.4883 183,51.4883 183,41.4883 L183,16 " fill="#F1F1F1" style="stroke:#181818;stroke-width:0.5;"/><path d="M183,16 C183,26 215.5,26 215.5,26 C215.5,26 248,26 248,16 " fill="none" style="stroke:#181818;stroke-width:0.5;"/><text fill="#000000" font-family="sans-serif" font-size="14" lengthAdjust="spacing" textLength="45" x="193" y="43.5352">MySQL</text></g><!--entity SearchEngine--><g id="elem_SearchEngine"><path d="M283,16 C283,6 339.5,6 339.5,6 C339.5,6 396,6 396,16 L396,41.4883 C396,51.4883 339.5,51.4883 339.5,51.4883 C339.5,51.4883 283,51.4883 283,41.4883 L283,16 " fill="#F1F1F1" style="stroke:#181818;stroke-width:0.5;"/><path d="M283,16 C283,26 339.5,26 339.5,26 C339.5,26 396,26 396,16 " fill="none" style="stroke:#181818;stroke-width:0.5;"/><text fill="#000000" font-family="sans-serif" font-size="14" lengthAdjust="spacing" textLength="93" x="293" y="43.5352">Elastic Search</text></g><!--entity MinecraftServer--><g id="elem_MinecraftServer"><rect fill="#F1F1F1" height="46.4883" rx="2.5" ry="2.5" style="stroke:#181818;stroke-width:0.5;" width="151" x="7" y="273.97"/><rect fill="#F1F1F1" height="10" style="stroke:#181818;stroke-width:0.5;" width="15" x="138" y="278.97"/><rect fill="#F1F1F1" height="2" style="stroke:#181818;stroke-width:0.5;" width="4" x="136" y="280.97"/><rect fill="#F1F1F1" height="2" style="stroke:#181818;stroke-width:0.5;" width="4" x="136" y="284.97"/><text fill="#000000" font-family="sans-serif" font-size="14" lengthAdjust="spacing" textLength="111" x="22" y="307.5052">Minecraft Server</text></g><!--entity SiteUser--><g id="elem_SiteUser"><ellipse cx="514.5" cy="267.47" fill="#F1F1F1" rx="8" ry="8" style="stroke:#181818;stroke-width:0.5;"/><path d="M514.5,275.47 L514.5,302.47 M501.5,283.47 L527.5,283.47 M514.5,302.47 L501.5,317.47 M514.5,302.47 L527.5,317.47 " fill="none" style="stroke:#181818;stroke-width:0.5;"/><text fill="#000000" font-family="sans-serif" font-size="14" lengthAdjust="spacing" textLength="60" x="484.5" y="332.5052">Site User</text></g><!--entity Player--><g id="elem_Player"><ellipse cx="82.5" cy="404.96" fill="#F1F1F1" rx="8" ry="8" style="stroke:#181818;stroke-width:0.5;"/><path d="M82.5,412.96 L82.5,439.96 M69.5,420.96 L95.5,420.96 M82.5,439.96 L69.5,454.96 M82.5,439.96 L95.5,454.96 " fill="none" style="stroke:#181818;stroke-width:0.5;"/><text fill="#000000" font-family="sans-serif" font-size="14" lengthAdjust="spacing" textLength="41" x="62" y="469.9952">Player</text></g><!--link Database to Server--><g id="link_Database_Server"><path d="M229.0912,57.3625 C240.3612,80.2425 252.5105,104.9467 263.8105,127.9067 " fill="none" id="Database-Server" style="stroke:#181818;stroke-width:1.0;"/><polygon fill="#181818" points="226.44,51.98,226.8286,61.8212,228.6494,56.4654,234.0052,58.2862,226.44,51.98" style="stroke:#181818;stroke-width:1.0;"/><polygon fill="#181818" points="266.46,133.29,266.0747,123.4487,264.2521,128.8039,258.8969,126.9813,266.46,133.29" style="stroke:#181818;stroke-width:1.0;"/></g><!--link SearchEngine to Server--><g id="link_SearchEngine_Server"><path d="M325.9088,57.3625 C314.6388,80.2425 302.4895,104.9467 291.1895,127.9067 " fill="none" id="SearchEngine-Server" style="stroke:#181818;stroke-width:1.0;"/><polygon fill="#181818" points="328.56,51.98,320.9948,58.2862,326.3506,56.4654,328.1714,61.8212,328.56,51.98" style="stroke:#181818;stroke-width:1.0;"/><polygon fill="#181818" points="288.54,133.29,296.1031,126.9813,290.7479,128.8039,288.9253,123.4487,288.54,133.29" style="stroke:#181818;stroke-width:1.0;"/></g><!--link Plugin to Server--><g id="link_Plugin_Server"><path d="M130.33,156.73 C163.23,156.73 196.85,156.73 229.74,156.73 " fill="none" id="Plugin-Server" style="stroke:#181818;stroke-width:1.0;"/><polygon fill="#181818" points="124.33,156.73,133.33,160.73,129.33,156.73,133.33,152.73,124.33,156.73" style="stroke:#181818;stroke-width:1.0;"/><polygon fill="#181818" points="235.74,156.73,226.74,152.73,230.74,156.73,226.74,160.73,235.74,156.73" style="stroke:#181818;stroke-width:1.0;"/><text fill="#000000" font-family="sans-serif" font-size="13" lengthAdjust="spacing" textLength="75" x="142.5" y="150.2984">WebSockets</text></g><!--link Server to Site--><g id="link_Server_Site"><path d="M325.33,156.73 C371.7,156.73 433.54,156.73 475.85,156.73 " fill="none" id="Server-Site" style="stroke:#181818;stroke-width:1.0;"/><polygon fill="#181818" points="319.33,156.73,328.33,160.73,324.33,156.73,328.33,152.73,319.33,156.73" style="stroke:#181818;stroke-width:1.0;"/><polygon fill="#181818" points="481.85,156.73,472.85,152.73,476.85,156.73,472.85,160.73,481.85,156.73" style="stroke:#181818;stroke-width:1.0;"/><text fill="#000000" font-family="sans-serif" font-size="13" lengthAdjust="spacing" textLength="126" x="337.5" y="150.2984">HTTP + WebSockets</text></g><!--link Plugin to MinecraftServer--><g id="link_Plugin_MinecraftServer"><path d="M82.5,186.29 C82.5,212.04 82.5,241.92 82.5,267.67 " fill="none" id="Plugin-MinecraftServer" style="stroke:#181818;stroke-width:1.0;"/><polygon fill="#181818" points="82.5,180.29,78.5,189.29,82.5,185.29,86.5,189.29,82.5,180.29" style="stroke:#181818;stroke-width:1.0;"/><polygon fill="#181818" points="82.5,273.67,86.5,264.67,82.5,268.67,78.5,264.67,82.5,273.67" style="stroke:#181818;stroke-width:1.0;"/><text fill="#000000" font-family="sans-serif" font-size="13" lengthAdjust="spacing" textLength="64" x="83.5" y="225.5384">Bukkit API</text></g><!--link MinecraftServer to Player--><g id="link_MinecraftServer_Player"><path d="M82.5,320.9 C82.5,341.39 82.5,371.94 82.5,396.09 " fill="none" id="MinecraftServer-Player" style="stroke:#181818;stroke-width:1.0;"/></g><!--link Site to SiteUser--><g id="link_Site_SiteUser"><path d="M514.5,180.29 C514.5,201.44 514.5,233.48 514.5,258.52 " fill="none" id="Site-SiteUser" style="stroke:#181818;stroke-width:1.0;"/></g><!--SRC=[NKzB2W8n3Dtd566sCXSG4HG51GShLLo8YrYZ3ZEej5KGyUwcjkElc_HzahnioTE676DnqxC9aiD1Oc3RIDcm9kTBWvh9caCMNF4xFExB8mEi2Yd6qiwBOAziry7p9YC7S2PJqPvHJGkDTq1vg-IFGDKN6PY0BZsluG50nfyiPW7Zmh6D0GG5a5HLqosiQD9Z9y-xAGnyX_qH85RXQY7ZTcpZaZVwP2hsxcEmeIiaQEDeFbVO-dP1QdtD_ZjR6lgNgYezzjGOu5_DyoRxQxh0zsLF]--></g></svg>