<?xml version="1.0" encoding="us-ascii" standalone="no"?><svg xmlns="http://www.w3.org/2000/svg" xmlns:xlink="http://www.w3.org/1999/xlink" contentStyleType="text/css" height="494px" preserveAspectRatio="none" style="width:570px;height:494px;background:#FFFFFF;" version="1.1" viewBox="0 0 570 494" width="570px" zoomAndPan="magnify"><defs/><g><!--cluster POMS--><g id="cluster_POMS"><path d="M27,114.49 L70,114.49 A3.75,3.75 0 0 1 72.5,116.99 L79.5,136.9783 L561,136.9783 A2.5,2.5 0 0 1 563.5,139.4783 L563.5,209.47 A2.5,2.5 0 0 1 561,211.97 L27,211.97 A2.5,2.5 0 0 1 24.5,209.47 L24.5,116.99 A2.5,2.5 0 0 1 27,114.49 " fill="none" style="stroke:#000000;stroke-width:1.5;"/><line style="stroke:#000000;stroke-width:1.5;" x1="24.5" x2="79.5" y1="136.9783" y2="136.9783"/><text fill="#000000" font-family="sans-serif" font-size="14" font-weight="bold" lengthAdjust="spacing" textLength="42" x="28.5" y="130.0252">POMS</text></g><!--entity Server--><g id="elem_Server"><rect fill="#F1F1F1" height="46.4883" rx="2.5" ry="2.5" style="stroke:#181818;stroke-width:0.5;" width="83" x="236" y="149.49"/><rect fill="#F1F1F1" height="10" style="stroke:#181818;stroke-width:0.5;" width="15" x="299" y="154.49"/><rect fill="#F1F1F1" height="2" style="stroke:#181818;stroke-width:0.5;" width="4" x="297" y="156.49"/><rect fill="#F1F1F1" height="2" style="stroke:#181818;stroke-width:0.5;" width="4" x="297" y="160.49"/><text fill="#000000" font-family="sans-serif" font-size="14" lengthAdjust="spacing" textLength="43" x="251" y="183.0252">Server</text></g><!--entity Plugin--><g id="elem_Plugin"><rect fill="#F1F1F1" height="46.4883" rx="2.5" ry="2.5" style="stroke:#181818;stroke-width:0.5;" width="83" x="41" y="149.49"/><rect fill="#F1F1F1" height="10" style="stroke:#181818;stroke-width:0.5;" width="15" x="104" y="154.49"/><rect fill="#F1F1F1" height="2" style="stroke:#181818;stroke-width:0.5;" width="4" x="102" y="156.49"/><rect fill="#F1F1F1" height="2" style="stroke:#181818;stroke-width:0.5;" width="4" x="102" y="160.49"/><text fill="#000000" font-family="sans-serif" font-size="14" lengthAdjust="spacing" textLength="43" x="56" y="183.0252">Plugin</text></g><!--entity Site--><g id="elem_Site"><rect fill="#F1F1F1" height="46.4883" rx="2.5" ry="2.5" style="stroke:#181818;stroke-width:0.5;" width="65" x="482" y="149.49"/><rect fill="#F1F1F1" height="10" style="stroke:#181818;stroke-width:0.5;" width="15" x="527" y="154.49"/><rect fill="#F1F1F1" height="2" style="stroke:#181818;stroke-width:0.5;" width="4" x="525" y="156.49"/><rect fill="#F1F1F1" height="2" style="stroke:#181818;stroke-width:0.5;" width="4" x="525" y="160.49"/><text fill="#000000" font-family="sans-serif" font-size="14" lengthAdjust="spacing" textLength="25" x="497" y="183.0252">Site</text></g><!--entity Database--><g id="elem_Database"><path d="M245,16 C245,6 277.5,6 277.5,6 C277.5,6 310,6 310,16 L310,41.4883 C310,51.4883 277.5,51.4883 277.5,51.4883 C277.5,51.4883 245,51.4883 245,41.4883 L245,16 " fill="#F1F1F1" style="stroke:#181818;stroke-width:0.5;"/><path d="M245,16 C245,26 277.5,26 277.5,26 C277.5,26 310,26 310,16 " fill="none" style="stroke:#181818;stroke-width:0.5;"/><text fill="#000000" font-family="sans-serif" font-size="14" lengthAdjust="spacing" textLength="45" x="255" y="43.5352">MySQL</text></g><!--entity MinecraftServer--><g id="elem_MinecraftServer"><rect fill="#F1F1F1" height="46.4883" rx="2.5" ry="2.5" style="stroke:#181818;stroke-width:0.5;" width="151" x="7" y="289.97"/><rect fill="#F1F1F1" height="10" style="stroke:#181818;stroke-width:0.5;" width="15" x="138" y="294.97"/><rect fill="#F1F1F1" height="2" style="stroke:#181818;stroke-width:0.5;" width="4" x="136" y="296.97"/><rect fill="#F1F1F1" height="2" style="stroke:#181818;stroke-width:0.5;" width="4" x="136" y="300.97"/><text fill="#000000" font-family="sans-serif" font-size="14" lengthAdjust="spacing" textLength="111" x="22" y="323.5052">Minecraft Server</text></g><!--entity SiteUser--><g id="elem_SiteUser"><ellipse cx="514.5" cy="283.47" fill="#F1F1F1" rx="8" ry="8" style="stroke:#181818;stroke-width:0.5;"/><path d="M514.5,291.47 L514.5,318.47 M501.5,299.47 L527.5,299.47 M514.5,318.47 L501.5,333.47 M514.5,318.47 L527.5,333.47 " fill="none" style="stroke:#181818;stroke-width:0.5;"/><text fill="#000000" font-family="sans-serif" font-size="14" lengthAdjust="spacing" textLength="60" x="484.5" y="348.5052">Site User</text></g><!--entity Player--><g id="elem_Player"><ellipse cx="82.5" cy="420.96" fill="#F1F1F1" rx="8" ry="8" style="stroke:#181818;stroke-width:0.5;"/><path d="M82.5,428.96 L82.5,455.96 M69.5,436.96 L95.5,436.96 M82.5,455.96 L69.5,470.96 M82.5,455.96 L95.5,470.96 " fill="none" style="stroke:#181818;stroke-width:0.5;"/><text fill="#000000" font-family="sans-serif" font-size="14" lengthAdjust="spacing" textLength="41" x="62" y="485.9952">Player</text></g><!--link Database to Server--><g id="link_Database_Server"><path d="M277.5,57.93 C277.5,84.45 277.5,116.57 277.5,143.23 " fill="none" id="Database-Server" style="stroke:#181818;stroke-width:1.0;"/><polygon fill="#181818" points="277.5,51.93,273.5,60.93,277.5,56.93,281.5,60.93,277.5,51.93" style="stroke:#181818;stroke-width:1.0;"/><polygon fill="#181818" points="277.5,149.23,281.5,140.23,277.5,144.23,273.5,140.23,277.5,149.23" style="stroke:#181818;stroke-width:1.0;"/><text fill="#000000" font-family="sans-serif" font-size="13" lengthAdjust="spacing" textLength="98" x="278.5" y="95.0584">MySQL Protocol</text></g><!--link Plugin to Server--><g id="link_Plugin_Server"><path d="M130.33,172.73 C163.23,172.73 196.85,172.73 229.74,172.73 " fill="none" id="Plugin-Server" style="stroke:#181818;stroke-width:1.0;"/><polygon fill="#181818" points="124.33,172.73,133.33,176.73,129.33,172.73,133.33,168.73,124.33,172.73" style="stroke:#181818;stroke-width:1.0;"/><polygon fill="#181818" points="235.74,172.73,226.74,168.73,230.74,172.73,226.74,176.73,235.74,172.73" style="stroke:#181818;stroke-width:1.0;"/><text fill="#000000" font-family="sans-serif" font-size="13" lengthAdjust="spacing" textLength="75" x="142.5" y="166.2984">WebSockets</text></g><!--link Server to Site--><g id="link_Server_Site"><path d="M325.33,172.73 C371.7,172.73 433.54,172.73 475.85,172.73 " fill="none" id="Server-Site" style="stroke:#181818;stroke-width:1.0;"/><polygon fill="#181818" points="319.33,172.73,328.33,176.73,324.33,172.73,328.33,168.73,319.33,172.73" style="stroke:#181818;stroke-width:1.0;"/><polygon fill="#181818" points="481.85,172.73,472.85,168.73,476.85,172.73,472.85,176.73,481.85,172.73" style="stroke:#181818;stroke-width:1.0;"/><text fill="#000000" font-family="sans-serif" font-size="13" lengthAdjust="spacing" textLength="126" x="337.5" y="166.2984">HTTP + WebSockets</text></g><!--link Plugin to MinecraftServer--><g id="link_Plugin_MinecraftServer"><path d="M82.5,202.29 C82.5,228.04 82.5,257.92 82.5,283.67 " fill="none" id="Plugin-MinecraftServer" style="stroke:#181818;stroke-width:1.0;"/><polygon fill="#181818" points="82.5,196.29,78.5,205.29,82.5,201.29,86.5,205.29,82.5,196.29" style="stroke:#181818;stroke-width:1.0;"/><polygon fill="#181818" points="82.5,289.67,86.5,280.67,82.5,284.67,78.5,280.67,82.5,289.67" style="stroke:#181818;stroke-width:1.0;"/><text fill="#000000" font-family="sans-serif" font-size="13" lengthAdjust="spacing" textLength="64" x="83.5" y="241.5384">Bukkit API</text></g><!--link MinecraftServer to Player--><g id="link_MinecraftServer_Player"><path d="M82.5,336.9 C82.5,357.39 82.5,387.94 82.5,412.09 " fill="none" id="MinecraftServer-Player" style="stroke:#181818;stroke-width:1.0;"/></g><!--link Site to SiteUser--><g id="link_Site_SiteUser"><path d="M514.5,196.29 C514.5,217.44 514.5,249.48 514.5,274.52 " fill="none" id="Site-SiteUser" style="stroke:#181818;stroke-width:1.0;"/></g><!--SRC=[NK_D2i8m3BxdASAkqXSO8YWU51nMEl4W7h8QnzYmqbLXYEzkw-gKvVRz9D-NCpagg6NCEhNR8BMuZ0p0CQkkh2rT72gs3xQde0zapm7SIDTKCifjfl09wESO_JsGpRsihX6eol49NW2adR6O18pxbcqIZWSKG5HbGrs8-7R2gH2pM0RJs5bQuums3K0KfgBnhZxLkmvSAADhTktFOCEPa9pYAiybJlvT45S_OQDt_SBYNjULmxbS0unL8RwTFzSz73vw0m00]--></g></svg>