<?xml version="1.0" encoding="UTF-8" standalone="no"?>
<!DOCTYPE svg PUBLIC "-//W3C//DTD SVG 1.1//EN" "http://www.w3.org/Graphics/SVG/1.1/DTD/svg11.dtd">
<!-- Created with Vectornator (http://vectornator.io/) -->
<svg height="1024.0px" stroke-miterlimit="10" style="fill-rule:nonzero;clip-rule:evenodd;stroke-linecap:round;stroke-linejoin:round;" version="1.1" viewBox="0 0 1024 1024" width="1024.0px" xml:space="preserve" xmlns="http://www.w3.org/2000/svg" xmlns:xlink="http://www.w3.org/1999/xlink">
<defs>
<path d="M384 432C384 361.308 441.308 304 512 304C552.242 304 588.147 322.571 611.612 351.61C629.367 373.583 640 401.55 640 432C640 502.692 582.692 560 512 560C441.308 560 384 502.692 384 432Z" id="Fill"/>
<path d="M256 1024C256 811.923 370.615 640 512 640C653.385 640 768 811.923 768 1024C768 1236.08 653.385 1408 512 1408C370.615 1408 256 1236.08 256 1024Z" id="Fill_2"/>
</defs>
<clipPath id="ArtboardFrame">
<rect height="1024" width="1024" x="0" y="0"/>
</clipPath>
<g clip-path="url(#ArtboardFrame)" id="Layer-2" visibility="hidden">
<path d="M0 0L1024 0L1024 1024L0 1024L0 0Z" fill="#000000" fill-rule="nonzero" opacity="1" stroke="none"/>
</g>
<g clip-path="url(#ArtboardFrame)" id="Layer-1">
<g opacity="1">
<mask height="288" id="StrokeMask" maskUnits="userSpaceOnUse" width="288" x="368" y="288">
<rect fill="#ffffff" height="288" stroke="none" width="288" x="368" y="288"/>
<use fill="#000000" fill-rule="evenodd" stroke="none" xlink:href="#Fill"/>
</mask>
<use fill="none" mask="url(#StrokeMask)" stroke="#ffffff" stroke-linecap="butt" stroke-linejoin="round" stroke-width="32" xlink:href="#Fill"/>
</g>
<g opacity="1">
<mask height="800" id="StrokeMask_2" maskUnits="userSpaceOnUse" width="544" x="240" y="624">
<rect fill="#ffffff" height="800" stroke="none" width="544" x="240" y="624"/>
<use fill="#000000" fill-rule="evenodd" stroke="none" xlink:href="#Fill_2"/>
</mask>
<use fill="none" mask="url(#StrokeMask_2)" stroke="#ffffff" stroke-linecap="butt" stroke-linejoin="round" stroke-width="32" xlink:href="#Fill_2"/>
</g>
</g>
</svg>
